<svg width="380" height="446" viewBox="0 0 380 446" fill="none" xmlns="http://www.w3.org/2000/svg">
<path d="M184.539 154.372C174.135 137.242 164.528 121.386 158.362 106.159C156.318 99.984 154.712 93.9031 153.719 88.076C150.223 71.3967 151.683 61.6002 158.178 48.1004C158.316 47.8181 158.462 47.5275 158.612 47.237C161.703 45.506 165.963 43.8938 170.844 43.4232C181.719 42.3715 200.187 45.0764 207.25 64.5629C214.701 85.1502 198.794 125.289 184.539 154.372ZM251.708 38.2753C250.999 36.9372 248.366 32.0963 247.461 30.439C247.29 30.1321 247.177 29.9316 247.152 29.8865C235.664 9.19287 235.276 13.1131 228.104 11.8691C227.837 11.8241 227.562 11.7545 227.295 11.6891C219.127 9.84352 205.089 4.6261 198.231 2.15448C191.143 -0.390793 172.491 5.08442 160.452 6.24657C157.39 6.53711 155.016 7.08955 153.122 7.81385C147.586 9.92128 146.21 13.5018 143.924 16.4359C142.589 18.1545 141.654 18.6742 140.415 18.9607C140.39 18.9648 140.357 18.9648 140.34 18.973C130.975 22.2671 108.848 49.0416 113.629 85.989C113.971 89.6146 114.747 93.1461 115.744 96.6039C124.892 132.062 155.508 179.616 163.026 193.112C157.486 205.617 145.663 231.295 141.892 255.479C141.738 256.298 140.824 261.855 140.766 266.52C140.265 278.812 142.614 290.061 149.881 298.139C149.927 298.188 151.308 299.641 151.37 299.706C155.087 303.299 159.467 305.583 163.877 306.953C170.118 309.589 174.865 308.116 179.458 307.35C181.507 308.57 183.651 309.511 185.833 310.243C198.965 314.696 213.658 311.123 220.541 307.35C229.773 304.408 233.982 299.093 236.619 290.851C239.276 283.088 243.344 267.248 234.137 243.804C230.003 233.681 221.684 217.836 208.869 194.806L208.785 194.671C219.06 175.598 246.573 128.403 251.47 114.613C251.737 113.885 251.967 113.181 252.196 112.477C260.514 91.5993 265.946 63.9818 251.708 38.2753" fill="white"/>
<path d="M176.731 218.325C173.765 212.715 167.274 200.492 165.889 197.586C150.804 226.419 147.083 258.44 146.845 267.745C147.003 274.898 146.845 285.746 157.157 290.366C170.84 272.087 146.845 244.776 176.731 218.325Z" fill="#ACA9A6"/>
<path d="M211.362 122.169C214.891 104.978 223.689 90.32 212.517 66.4263C203.315 46.7556 187.475 39.7172 170.838 43.4247H170.842C181.726 42.373 200.198 45.0697 207.253 64.5644C214.703 85.1517 198.797 125.291 184.542 154.373C184.217 155.057 183.862 155.74 183.528 156.419C190.457 168.217 196.127 178.369 202.893 190.359C202.893 190.359 212.013 175.922 215.801 169.383C208.033 151.73 209.159 132.878 211.362 122.169Z" fill="#ACA9A6"/>
<path d="M254.585 66.1024C254.577 65.509 254.577 64.9034 254.564 64.3346V64.2364C254.56 63.9786 254.547 63.7494 254.547 63.4957C254.451 60.9218 254.268 58.6957 254.018 56.8542C253.751 55.0414 253.429 53.6911 253.133 52.7253C251.815 48.8501 248.653 44.2179 245.032 39.7616C237.948 31.0414 229.104 23.0291 228.829 22.7754C228.27 23.0168 227.698 23.3073 227.106 23.6429C219.551 28.0787 219.726 34.1022 193.49 21.7769C189.527 19.915 183.332 21.0935 179.866 21.3186C206.393 40.6455 235.508 39.8189 254.585 66.1024Z" fill="#BCBAB7"/>
<path d="M234.232 138.845C235.245 137.343 236.163 135.948 236.985 134.679C237.965 133.104 238.896 131.492 239.776 129.859C240.176 129.118 240.564 128.369 240.944 127.616C251.715 106.35 254.735 81.5355 254.581 66.1001C241.081 27.6263 201.721 44.7845 189.115 20.7967C188.906 20.8089 179.465 21.3491 179.265 21.3695C179.883 22.1429 180.521 22.9041 181.193 23.6652C186.19 29.2632 197.896 40.6228 210.486 43.52C223.085 46.4213 233.648 48.2218 244.277 63.7513C254.907 79.293 243.601 101.19 233.648 122.694C229.676 131.271 229.28 139.889 228.7 148.396C230.318 146.203 230.669 143.649 232.588 141.12C233.147 140.376 233.693 139.614 234.232 138.845Z" fill="#CCC9C6"/>
<path d="M244.279 63.7558C233.645 48.2182 223.086 46.4176 210.488 43.5205C197.894 40.6273 186.192 29.2595 181.194 23.6616C180.523 22.9086 179.884 22.1393 179.267 21.3741C170.581 22.2048 163.615 29.0304 158.913 38.8023C157.299 42.1619 155.947 45.8652 154.883 49.7854C158.363 46.8309 164.249 44.0565 170.844 43.4263C187.473 39.7148 203.321 46.7532 212.52 66.432C223.696 90.3175 214.893 104.984 211.36 122.166C209.157 132.875 208.035 151.727 215.799 169.381C218.498 164.72 221.414 158.275 228.702 148.401C229.281 139.885 229.674 131.267 233.645 122.698C243.603 101.19 254.904 79.2894 244.279 63.7558Z" fill="#BBB8B5"/>
<path d="M179.873 21.3129C179.664 21.3252 179.464 21.3539 179.259 21.3621C170.574 22.2051 163.615 29.0184 158.906 38.7985C157.295 42.1621 155.94 45.8613 154.884 49.7897C155.931 48.9017 157.179 48.0343 158.605 47.2364C161.705 45.5095 165.964 43.8931 170.845 43.4225C181.721 42.375 200.197 45.0756 207.247 64.5581C214.702 85.1494 198.795 125.289 184.541 154.371C191.462 166.169 195.704 173.649 203.547 186.208C203.547 186.208 237.459 135.49 237.843 134.737C248.61 113.471 254.609 87.388 253.003 66.4897C250.441 32.9755 229.103 23.0276 228.828 22.778C228.269 23.0154 227.693 23.31 227.105 23.6415C219.554 28.0814 219.358 35.1647 193.122 22.8435C190.314 21.5176 186.572 21.1983 183.402 21.1983C182.096 21.1983 180.882 21.2475 179.873 21.3129" fill="url(#paint0_linear_1_995)"/>
<path d="M168.903 194.572C157.16 210.638 139.134 296.498 165.34 293.49C206.482 287.839 174.356 205.522 168.903 194.572Z" fill="#9A9794"/>
<path d="M179.873 21.313C179.664 21.3253 179.464 21.354 179.259 21.3622C170.574 22.2052 163.615 29.0184 158.906 38.7985C157.295 42.1622 155.94 45.8613 154.884 49.7897C155.931 48.9018 157.179 48.0344 158.605 47.2364C161.705 45.5096 165.964 43.8932 170.845 43.4226C181.721 42.375 200.197 45.0757 207.247 64.5581C214.702 85.1495 198.795 125.289 184.541 154.371C191.462 166.169 197.423 178.216 204.202 190.202C204.202 190.202 240.567 128.374 240.942 127.617C251.718 106.347 256.344 81.4462 254.588 66.1009C252.794 50.506 249.686 44.9243 245.781 39.1749C244.417 37.1616 229.103 23.0277 228.828 22.7781C228.269 23.0154 227.693 23.3101 227.105 23.6415C219.554 28.0814 219.358 35.1648 193.122 22.8435C190.314 21.5177 186.572 21.1984 183.402 21.1984C182.096 21.1984 180.882 21.2475 179.873 21.313" fill="url(#paint1_linear_1_995)"/>
<g opacity="0.279999">
<path d="M196.363 31.7644C185.179 31.879 176.998 35.4513 176.731 38.0007C228.978 39.6785 233.17 75.5333 182.096 166.136C162.731 200.489 155.039 232.072 154.943 253.29V254.088C155.001 267.465 158.142 276.577 163.29 279.446C165.055 280.428 166.945 280.891 168.813 280.919H169.135C177.215 280.809 184.695 272.485 179.451 261.85C172.927 248.624 178.438 221.343 195.129 191.54C211.815 161.725 270.148 79.7687 234.23 46.4713C222.286 35.3982 208.52 31.8749 197.452 31.7644H196.363Z" fill="url(#paint2_linear_1_995)"/>
</g>
<g opacity="0.330002">
<path d="M172.094 36.9033C175.036 35.9662 178.106 35.4466 181.176 35.1315C184.259 34.8082 187.371 34.755 190.467 34.9555C196.662 35.3606 202.873 36.846 208.426 39.8005C213.987 42.7223 218.701 47.1704 222.101 52.4287C223.778 55.0722 225.154 57.8876 226.297 60.7888C227.349 63.7106 228.25 66.6814 228.875 69.726C231.424 81.9367 230.256 94.5813 227.67 106.616C225.042 118.696 220.991 130.399 216.264 141.71C211.575 153.049 206.111 163.995 200.558 174.819L192.11 190.946L183.825 207.052C178.494 217.823 173.342 228.667 169.779 239.953C168.878 242.772 168.136 245.62 167.551 248.505C166.926 251.37 166.479 254.279 166.321 257.193C165.958 263.024 166.617 268.97 169.003 274.518L168.286 274.891C164.815 269.739 163.104 263.449 162.712 257.205C162.283 250.944 163.054 244.675 164.335 238.598C165.566 232.497 167.464 226.588 169.512 220.777C171.56 214.958 173.963 209.295 176.441 203.689C186.453 181.321 198.239 160.079 208.689 138.44C211.267 133.014 213.828 127.592 216.093 122.064C218.4 116.548 220.515 110.962 222.222 105.27C225.659 93.9266 227.607 81.9695 225.843 70.2579C225.455 67.3362 224.645 64.4717 223.778 61.6523C222.81 58.8656 221.617 56.1566 220.144 53.5949C217.136 48.5126 212.869 44.1422 207.654 41.1264C202.46 38.09 196.478 36.3877 190.4 35.7535C187.355 35.4384 184.28 35.3688 181.214 35.5611C178.152 35.7616 175.086 36.1545 172.115 36.9729L172.094 36.9033Z" fill="#797775"/>
</g>
<g opacity="0.550003">
<path d="M141.238 260.884C141.238 278.505 149.569 288.809 156.211 292.991C158.334 294.329 161.918 295.266 165.718 295.344H166.723C168.275 295.311 169.844 295.135 171.35 294.775C181.587 292.328 189.338 282.253 189.518 263.507V262.157C189.447 254.669 188.199 245.846 185.475 235.636C184.566 232.219 177.299 216.759 175.855 214.022C172.889 208.416 166.064 195.223 164.675 192.317C152.807 218.634 141.476 251.562 141.238 260.884" fill="url(#paint3_linear_1_995)"/>
</g>
<g opacity="0.440002">
<path d="M158.906 38.7986C157.295 42.1623 155.948 45.8614 154.884 49.7898C155.923 48.9018 157.183 48.0345 158.609 47.2365C161.705 45.5097 165.964 43.8933 170.837 43.4227C181.721 42.3751 200.189 45.0758 207.251 64.5582C214.702 85.1496 198.795 125.289 184.541 154.371C191.462 166.169 197.869 177.107 204.632 189.093C204.632 189.093 240.567 128.374 240.942 127.617C251.718 106.351 261.796 66.4897 245.035 39.7602C239.077 30.2624 230.53 23.1382 230.246 22.8886C229.128 23.0522 227.693 23.3101 227.105 23.6416C219.554 28.0815 222.178 31.6865 195.441 20.4496C193.255 19.5289 190.953 19.1197 188.616 19.1197C176.268 19.1197 162.865 30.5817 158.906 38.7986" fill="url(#paint4_linear_1_995)"/>
</g>
<g opacity="0.440002">
<path d="M188.667 20.9859C179.969 21.0472 170.228 28.0163 166.602 32.0061C162.389 36.6506 155.948 45.8617 154.884 49.7901C158.363 46.8397 164.245 44.0572 170.837 43.4229C181.721 42.3753 200.189 45.076 207.252 64.5584C214.702 85.1498 198.795 125.289 184.541 154.372C184.207 155.055 183.865 155.742 183.527 156.418C182.096 158.91 165.267 190.656 164.675 192.317C154.279 221.731 144.221 251.87 143.983 261.187C143.983 277.142 149.749 295.049 165.918 295.299H166.602C168.1 295.278 169.677 295.107 171.35 294.775C186.735 291.694 190.561 267.039 188.249 254.337C188.249 254.337 183.285 233.697 183.051 233.267C183.051 233.267 213.597 173.187 215.799 169.381C218.486 164.721 240.567 128.375 240.942 127.618C251.718 106.351 255.618 81.5038 254.584 66.1012C254.221 60.6792 248.651 44.2208 245.035 39.7604C237.947 31.0402 227.693 23.3104 227.105 23.6418C219.554 28.0817 220.743 31.7442 193.497 21.7759C192.041 21.2439 190.51 20.9981 188.942 20.9859H188.667Z" fill="url(#paint5_linear_1_995)"/>
</g>
<path d="M170.553 40.542C169.139 40.6853 164.2 41.6305 161.196 42.6086L159.573 45.0472L158.605 47.2366C161.705 45.5098 165.964 43.8934 170.845 43.4228C181.721 42.3752 200.197 45.0759 207.247 64.5583C214.702 85.1497 198.795 125.289 184.541 154.371C184.232 155.006 183.915 155.632 183.606 156.262C185.901 158.153 187.707 159.589 187.707 159.589C188.137 158.893 188.4 158.32 188.783 157.604C203.459 127.601 217.827 85.1088 210.034 63.5967C207.001 55.2366 201.762 48.9758 194.457 44.9983C193.998 44.7527 191.224 43.4392 190.26 43.0791C189.793 42.8909 189.326 42.719 188.854 42.5554C187.941 42.2444 185.1 41.483 184.633 41.3807C182.855 40.9797 181.012 40.6932 179.143 40.5295C177.749 40.3986 176.327 40.3415 174.921 40.3415C173.448 40.3415 171.971 40.4029 170.553 40.542" fill="url(#paint6_linear_1_995)"/>
<path d="M203.55 186.208C202.407 184.329 201.727 183.298 201.723 183.294C201.293 182.582 200.888 181.907 200.471 181.223C184.652 153.324 167.619 129.029 158.358 106.162C156.318 99.9873 154.712 93.9024 153.715 88.0834C150.223 71.3959 151.683 61.5994 158.178 48.1037C164.423 35.1154 183.309 18.9067 193.876 23.8704C216.661 34.5712 219.694 29.407 225.188 25.0121C225.359 24.8852 225.789 24.5742 225.964 24.4147C226.085 24.3246 226.782 23.8827 226.899 23.8008C286.638 68.8424 222.598 155.897 203.55 186.208ZM167.102 291.759C165.529 292 164.023 292.041 162.584 291.894C160.202 291.583 157.815 290.666 155.533 289.123C152.338 286.963 149.964 283.771 148.742 280.158C145.033 269.26 145.809 247.581 165.65 198.488C167.715 202.899 169.659 207.049 170.514 208.751C181.995 231.54 184.752 252.442 184.765 264.923C183.526 280.632 175.808 290.159 167.102 291.759M251.708 38.2745C250.999 36.9405 248.371 32.1037 247.461 30.4382C247.29 30.1272 247.177 29.9267 247.152 29.8817C235.664 9.19209 235.276 13.1205 228.096 11.8765C227.842 11.8315 227.562 11.7537 227.295 11.6924C219.127 9.85092 205.081 4.62532 198.223 2.16188C191.143 -0.387486 172.491 5.08364 160.452 6.2417C157.382 6.54042 155.016 7.08874 153.122 7.80895C147.586 9.92047 146.21 13.501 143.924 16.4351C142.589 18.1497 141.646 18.6775 140.411 18.9558C140.39 18.964 140.357 18.964 140.34 18.9763C130.975 22.2663 108.848 49.0449 113.629 85.9842C113.962 89.6098 114.747 93.1453 115.74 96.6072C124.892 132.061 155.508 179.623 163.026 193.111C157.486 205.62 145.663 231.294 141.892 255.474C141.738 256.293 140.824 261.862 140.766 266.511V266.519C140.261 278.811 142.605 290.069 149.881 298.142C149.927 298.187 151.308 299.644 151.374 299.71C155.083 303.294 159.467 305.586 163.881 306.961C170.118 309.592 174.865 308.115 179.45 307.346C181.507 308.573 183.651 309.506 185.837 310.243C198.965 314.699 213.658 311.118 220.541 307.346C229.773 304.407 233.974 299.092 236.619 290.854C239.276 283.096 243.344 267.247 234.141 243.808C229.998 233.68 221.684 217.831 208.869 194.805L208.785 194.67C219.056 175.597 246.568 128.407 251.474 114.612C251.737 113.888 251.967 113.184 252.196 112.485C260.514 91.6026 265.946 63.9769 251.708 38.2745" fill="#EFECE8"/>
<path d="M226.96 149.862C226.096 151.229 223.893 154.461 221.152 158.447C214.319 169.786 207.824 179.403 203.556 186.196C204.945 188.393 208.041 193.34 209.363 195.697C209.192 195.399 209.034 195.108 208.871 194.805L208.783 194.67C209.443 193.451 210.177 192.109 210.969 190.664C210.999 182.996 224.298 155.82 226.96 149.862Z" fill="#DAD7D3"/>
<path d="M198.137 7.22591C193.093 4.57424 186.656 4.78703 180.52 5.8387C178.647 6.16197 174.17 7.00494 174.17 7.00494C174.17 7.00494 183.219 9.18602 190.444 11.6904C195.1 13.4377 202.909 16.3963 212.321 11.5267L212.496 11.1298C208.157 10.6755 202.93 9.74664 198.137 7.22591Z" fill="#BBB8B5"/>
<path d="M168.692 9.3233C166.623 10.1294 164.813 10.8373 163.528 11.5329C146.549 20.7688 141.727 29.9105 140.921 30.6511C140.438 33.8675 139.695 36.3352 139.328 40.2472C142.469 41.8349 157.7 38.9254 167.825 31.1055C169.08 30.0743 170.403 29.0881 171.78 28.151C172.314 27.7459 172.802 27.5003 173.21 27.1974C173.277 27.1729 173.336 27.0462 173.398 27.0216C179.188 21.9474 186.001 9.50753 192.371 12.5807C192.88 12.8262 193.385 13.0512 193.877 13.2558C193.126 12.8302 192.371 12.4088 191.608 12.0037C187.044 9.60168 182.213 7.85021 176.965 7.85021C174.324 7.85021 171.571 8.29618 168.692 9.3233Z" fill="url(#paint7_linear_1_995)"/>
<path d="M143.587 19.6446C142.832 21.4901 142.206 23.2702 141.78 25.5536C141.484 27.1208 141.201 28.8313 140.925 30.6605C151.63 17.6313 162.418 12.0579 163.536 11.5382C164.787 10.9325 168.225 8.62052 169.752 8.12538C158.138 11.2149 151.655 15.8594 144.717 17.9177C144.409 18.1919 143.766 19.2108 143.587 19.6446Z" fill="#F6F2EE"/>
<path d="M200.461 24.161C182.715 14.4013 173.566 26.8126 173.562 26.8167C173.508 26.8331 173.454 27.005 173.404 27.0254C167.096 32.5579 160.784 40.2674 158.173 48.1038C164.426 35.1114 183.311 18.9026 193.878 23.8704C218.867 35.6024 220.122 28.2899 226.901 23.8009C221.95 26.7349 217.853 33.7201 200.461 24.161Z" fill="#EBE7E3"/>
<path d="M225.155 24.665C213.508 29.4446 205.644 20.0778 193.88 13.2604C193.384 13.0476 192.883 12.8307 192.374 12.577C184.202 8.5831 170.448 29.7596 170.481 29.7433C173.109 27.8445 182.716 14.402 200.463 24.1617C217.851 33.7208 220.441 28.2906 225.168 25.0251C225.406 24.8655 226.903 23.8016 226.903 23.8016C226.903 23.8016 225.393 24.4849 225.168 24.6568L225.155 24.665Z" fill="#FFFBF7"/>
<path d="M167.824 31.1051C157.691 38.6631 142.469 41.8304 139.332 40.2509C137.951 55.1829 134.638 74.4894 138.009 96.3043C139.482 105.831 141.451 115.971 143.086 126.005C138.931 93.9554 138.051 55.4816 167.824 31.1051Z" fill="#EFECE8"/>
<path d="M153.122 7.81196C147.587 9.92348 146.21 13.5 143.924 16.434C142.581 18.1527 141.646 18.6805 140.411 18.9588C141.258 18.7828 142.259 18.5496 143.398 18.2754C146.489 17.5143 149.109 16.389 152.175 15.0631C154.991 13.8437 158.179 12.4606 162.271 10.8237C164.545 9.91529 169.35 8.20071 171.883 7.52961C174.448 6.84623 181.115 5.73318 181.477 5.66362C181.477 5.66362 184.039 5.34034 184.869 5.21758C184.631 5.23395 156.66 6.80122 153.122 7.81196Z" fill="#EFECE8"/>
<path d="M184.169 5.26012C183.577 5.30104 156.657 6.80268 153.124 7.81343C147.592 9.92495 146.211 13.5056 143.925 16.4314C142.582 18.1542 141.647 18.682 140.417 18.9603C141.259 18.7843 142.261 18.5553 143.391 18.2729C146.486 17.5159 149.11 16.3864 152.177 15.0565C154.988 13.8412 158.18 12.4662 162.276 10.8253C164.542 9.91686 169.347 8.19406 171.875 7.52296C174.449 6.84776 180.857 5.75516 181.475 5.66923C182.326 5.55056 184.04 5.33774 184.87 5.22316C184.633 5.23134 184.399 5.23966 184.169 5.26012" fill="url(#paint8_linear_1_995)"/>
<path d="M224.475 300.633C224.199 301.201 223.983 301.697 223.699 302.188C222.727 304.058 221.671 305.793 220.541 307.348C229.827 304.385 233.982 299.176 236.619 290.849C226.782 300.981 224.475 300.633 224.475 300.633Z" fill="#D2CFCB"/>
<path d="M202.895 303.411C195.499 300.231 189.554 306.468 185.837 310.249C198.969 314.697 213.658 311.12 220.545 307.343C221.668 305.793 222.727 304.062 223.699 302.191C219.815 308.526 210.049 306.488 202.895 303.411Z" fill="#DEDBD7"/>
<path d="M180.163 292.608C183.91 285.373 185.895 272.266 184.765 264.925C183.509 280.585 175.791 290.157 167.106 291.757C165.533 292.002 164.019 292.039 162.588 291.892C160.202 291.581 157.82 290.668 155.529 289.126C155.15 288.868 154.787 288.59 154.428 288.307C147.799 286.372 142.464 280.864 140.895 274.12C140.883 274.05 140.853 273.993 140.841 273.928C140.908 275.024 141.012 276.117 141.145 277.193L141.17 277.426C141.579 280.684 142.268 283.81 143.294 286.752C150.599 299.728 171.62 309.107 180.163 292.608Z" fill="#EBE7E3"/>
<path d="M167.102 291.757C165.529 292.003 164.024 292.04 162.584 291.892C160.206 291.581 157.816 290.669 155.534 289.126C153.786 287.939 152.28 286.45 151.07 284.739C145.076 278.65 141.772 267.79 141.242 260.416L141.221 260.146V260.15V260.146V260.158C140.996 262.114 140.791 264.41 140.766 266.517V266.526C140.583 270.99 140.779 275.315 141.446 279.407C141.471 279.481 141.484 279.559 141.496 279.645C148.133 292.023 166.552 304.369 178.812 283.52C175.625 288.132 171.487 290.951 167.102 291.757Z" fill="#F2EFEA"/>
<path d="M247.156 29.8831C235.667 9.18947 235.279 13.1138 228.099 11.8739C218.379 12.3854 207.516 19.0391 193.879 13.2611C213.073 24.5307 229.238 0.219617 247.418 30.3619C247.431 30.3865 247.644 30.7793 247.66 30.8039C247.581 30.6688 247.523 30.5461 247.456 30.4397C247.293 30.1287 247.181 29.9282 247.156 29.8831Z" fill="#E7E4E0"/>
<path d="M226.9 23.797C227.009 23.7315 227.13 23.662 227.242 23.5924C231.552 20.8098 239.962 19.3407 247.463 30.4344C236.445 12.1346 226.179 13.8164 215.528 15.5064C208.574 16.6113 201.457 17.7121 193.877 13.2558C204.552 20.0037 216.692 30.0088 226.9 23.797" fill="url(#paint9_linear_1_995)"/>
<path d="M163.882 306.957C168.708 303.998 172.826 299.861 176.101 295.061C166.977 303.286 147.224 300.618 141.421 279.253C142.585 286.476 145.222 292.962 149.881 298.138C149.927 298.191 151.308 299.644 151.375 299.705C155.084 303.298 159.468 305.582 163.882 306.957Z" fill="#CCC9C6"/>
<path d="M198.227 2.15859C191.143 -0.390784 172.496 5.08852 160.452 6.24249C157.386 6.53712 155.012 7.09364 153.127 7.80976C160.248 6.29159 160.74 7.80157 181.603 5.5141C181.707 5.49773 184.339 5.24811 185.011 5.21128C189.7 4.91256 194.322 5.22356 198.135 7.22868C202.928 9.74531 207.451 10.8093 211.793 11.2676C217.196 11.8323 222.318 11.4476 227.291 11.6931C219.131 9.84762 205.085 4.62202 198.227 2.15859Z" fill="#F2EFEA"/>
<path d="M192.751 1.49492C183.969 1.62586 170.098 5.31697 160.453 6.24587C157.383 6.53641 155.013 7.09292 153.124 7.81312C160.324 6.39726 161.05 7.79696 181.608 5.51357C181.704 5.4972 184.345 5.24754 185.004 5.20662C189.701 4.91199 194.315 5.22291 198.132 7.22394C202.925 9.74875 207.452 10.8046 211.79 11.2588C215.048 11.6067 218.198 11.6067 221.285 11.5985C223.317 11.5985 225.315 11.5984 227.297 11.6884C219.124 9.84698 205.082 4.62965 198.232 2.15803C197.014 1.72427 195.475 1.52356 193.677 1.49492H192.751Z" fill="url(#paint10_linear_1_995)"/>
<path d="M211.789 11.2635L211.222 11.5459C203.446 15.6625 196.262 13.7515 191.611 12.0042C192.37 12.4052 193.133 12.8226 193.876 13.2646C207.513 19.0426 218.376 12.3807 228.096 11.8692C227.842 11.8242 227.562 11.7546 227.295 11.6891C222.323 11.4436 217.2 11.8323 211.789 11.2635Z" fill="#EBE7E3"/>
<path d="M226.96 244.774C218.128 206.55 198.913 181.662 181.989 161.271C167.621 143.978 159.808 125.326 156.212 108.45C156.566 112.321 156.892 116.381 157.159 120.514C160.433 143.957 169.344 171.804 195.559 203.313C219.38 231.937 224.423 235.841 226.96 244.774Z" fill="#FFFBF7"/>
<path d="M247.903 31.2474C247.903 31.2556 248.178 31.8735 248.178 31.8735C248.245 32.0208 249.83 35.6914 249.889 35.8346C254.315 46.0239 249.739 54.4168 248.863 55.8613C255.249 78.0281 248.554 103.391 238.183 126.446C233.665 136.545 233.832 145.597 232.522 151.98C232.535 151.948 232.555 151.915 232.568 151.89C241.182 136.263 249.059 121.4 251.474 114.615C251.737 113.887 251.966 113.183 252.196 112.479C260.51 91.6015 265.946 63.98 251.712 38.2776C251.09 37.1154 249.029 33.318 247.903 31.2474Z" fill="#EBE7E3"/>
<path d="M226.902 23.8019C233.193 28.5488 237.561 34.1467 241.307 39.7079C240.034 30.8894 237.765 22.1365 230.243 22.8853C229.296 22.9876 228.416 23.1554 227.515 23.5237C227.486 23.5319 227.407 23.4132 226.902 23.8019Z" fill="#DEDBD7"/>
<path d="M250.083 35.6468C250.025 35.5036 245.611 29.2223 243.1 26.7138C240.338 23.7798 236.333 22.0325 232.829 22.1225C229.6 22.2043 228.332 23.0514 227.331 23.5343C227.172 23.6038 226.989 23.747 226.905 23.8043C237.668 20.7721 239.721 30.9819 241.31 39.7021C244.769 44.8377 247.251 50.2556 248.865 55.8863C249.478 54.7569 254.055 45.6765 250.083 35.6468Z" fill="#CCC9C6"/>
<path d="M185.837 310.244C190.513 306.496 194.363 302.408 199.29 302.567C195.744 302.42 182.516 305.207 179.45 307.347C181.51 308.566 183.655 309.508 185.837 310.244Z" fill="#D2CFCB"/>
<path d="M231.047 270.707C230.909 267.139 230.5 263.607 229.829 260.194C228.49 253.393 226.058 247.063 222.316 241.882C208.52 222.797 175.455 187.609 166.878 160.196C169.368 177.379 165.122 198.04 172.138 208.188C174.525 211.204 176.832 214.179 179.034 217.092C195.863 236.792 215.449 248.217 214.832 276.162C214.502 290.967 209.425 296.25 202.004 303.075C202.291 303.169 202.588 303.28 202.896 303.411C210.059 306.472 219.817 308.522 223.696 302.191C228.707 292.579 231.56 283.679 231.047 270.707Z" fill="#EFECE8"/>
<path d="M216.12 278.531C220.571 242.59 199.416 223.336 179.263 200.683C176.931 198.137 170.198 195.24 172.838 201.206C184.215 218.749 191.803 235.768 193.605 242.848C204.23 284.632 192.558 297.849 179.455 307.351C182.517 305.207 195.749 302.42 199.287 302.572C200.155 302.596 201.056 302.756 202.003 303.075C208.039 297.518 212.248 294.596 214.626 285.749C214.964 284.521 215.265 283.155 215.569 281.645C215.765 280.671 215.982 279.639 216.12 278.531Z" fill="#E7E4E0"/>
<path d="M200.577 252.264C195.659 232.941 183.999 202.778 163.307 176.441C162.99 177.382 161.163 183.066 159.649 187.293C161.025 189.622 162.177 191.586 163.024 193.108C164.087 195.13 164.771 196.533 165.648 198.489C167.713 202.901 169.661 207.05 170.512 208.752C181.996 231.541 184.75 252.439 184.762 264.924C185.617 280.573 177.633 298.529 163.879 306.954C170.12 309.594 174.867 308.116 179.456 307.347C190.653 303.349 211.203 294.052 200.577 252.264Z" fill="#F2EFEA"/>
<path d="M130.68 30.5614C116.796 49.1762 113.363 79.3596 118.912 95.3801C125.999 115.861 129.17 125.989 146.678 153.389C148.289 155.906 137.605 114.02 135.269 103.83C133.133 94.5085 126.65 56.4192 140.358 26.3956C141.631 23.6089 143.082 20.5399 144.718 17.9209C139.215 20.7527 134.543 25.389 130.68 30.5614" fill="url(#paint11_linear_1_995)"/>
<path d="M174.497 21.37C168.131 24.3777 162.628 28.8462 157.997 33.9081C153.354 38.9864 149.754 44.8872 147.235 51.1767C142.212 63.8254 141.828 77.808 144.026 91.1973C146.096 104.685 151.06 117.722 153.888 131.468C155.323 138.318 156.124 145.36 155.895 152.37C155.649 159.376 154.393 166.324 152.199 172.916C153.571 166.111 154.297 159.22 154.014 152.37C153.805 145.52 152.624 138.756 150.977 132.098C149.287 125.448 147.222 118.856 145.19 112.202C143.221 105.532 141.382 98.7472 140.264 91.7784C139.187 84.8177 138.758 77.718 139.337 70.6469C139.684 67.1195 140.18 63.6003 141.065 60.1548C141.903 56.7051 143.025 53.3046 144.506 50.0678C147.393 43.5532 151.536 37.5992 156.658 32.6559C161.806 27.7823 167.784 23.6329 174.497 21.37Z" fill="#CCC9C6"/>
<path d="M160.067 186.749C161.481 183.053 162.387 179.215 162.816 175.319C163.162 171.415 163.25 167.495 162.954 163.579C162.533 155.743 161.31 147.951 160.113 140.16C158.957 132.361 157.622 124.577 156.55 116.757C155.42 108.946 155.044 101.105 154.281 93.2484L161.548 139.947C162.745 147.751 163.859 155.595 164.13 163.53C164.289 167.495 164.051 171.473 163.567 175.409C162.883 179.33 161.802 183.18 160.067 186.749Z" fill="#CCC9C6"/>
<path d="M140.077 27.0242C138.525 31.992 137.124 36.9966 136.097 42.0708C134.996 47.1368 134.187 52.2519 133.678 57.3916C132.622 67.6668 132.622 78.0443 133.711 88.3073C134.733 98.5825 137.178 108.669 139.789 118.711C141.078 123.745 142.476 128.753 143.648 133.836C144.745 138.914 145.792 144.082 145.634 149.3C145.392 144.099 144.182 139.037 142.801 134.036C141.433 129.032 139.906 124.064 138.446 119.072C135.492 109.095 133.085 98.8894 131.892 88.4955C131.346 83.2945 131.108 78.0689 131.175 72.8474C131.246 67.6259 131.521 62.4044 132.218 57.232C132.91 52.0514 133.903 46.924 135.18 41.8662C136.519 36.8288 138.112 31.857 140.077 27.0242Z" fill="#CCC9C6"/>
<path d="M130.156 31.3007C127.828 35.6178 126.251 40.2665 124.966 44.9642C123.694 49.666 122.805 54.4578 122.1 59.2619C120.774 68.8906 120.619 78.6584 121.642 88.2871C122.659 97.9158 125.008 107.418 128.934 116.269C130.94 120.655 133.205 125.034 135.437 129.347C137.632 133.697 140.164 137.875 142.525 142.204C140.94 140.306 139.442 138.354 137.986 136.353C136.572 134.339 135.2 132.277 133.911 130.174C132.655 128.046 131.445 125.897 130.319 123.712C129.176 121.552 128.091 119.317 127.09 117.046C123.139 107.962 120.836 98.2472 119.877 88.463C118.884 78.6625 119.426 68.776 120.957 59.0941C121.754 54.2573 122.855 49.4573 124.328 44.78C125.805 40.111 127.574 35.4787 130.156 31.3007Z" fill="#DEDBD7"/>
<path d="M140.921 30.6583C145.473 23.8736 151.76 18.3248 158.597 13.7089C162.043 11.4173 165.764 9.48178 169.756 8.12321C171.195 7.65262 172.656 7.24341 174.174 7.00607C174.766 6.90786 175.392 6.85875 175.997 6.81783C177.082 6.76873 178.179 6.74827 179.272 6.92832C180.382 7.05927 181.441 7.40709 182.413 7.73446C190.369 10.513 197.26 15.178 204.231 19.3887C207.723 21.488 211.286 23.5054 215.153 24.7125C217.072 25.3182 219.091 25.6905 221.11 25.5555C223.129 25.4327 225.127 24.8353 226.904 23.8041C225.232 24.9908 223.242 25.7765 221.156 26.0261C219.066 26.3003 216.942 26.0384 214.911 25.5391C210.839 24.4793 207.139 22.5233 203.526 20.5631C196.334 16.5897 189.513 11.9452 181.821 9.42449C180.84 9.12168 179.939 8.81886 179.001 8.68792C178.062 8.52014 177.082 8.52833 176.106 8.55288C174.153 8.65927 172.188 9.09712 170.286 9.69457C166.456 10.9099 162.856 12.825 159.377 14.8997C155.906 16.9989 152.619 19.4092 149.528 22.0404C146.399 24.6348 143.479 27.487 140.921 30.6583Z" fill="#CCC9C6"/>
<path d="M226.902 23.802C228.546 22.4802 230.648 21.6045 232.867 21.4531C235.074 21.2976 237.331 21.8091 239.304 22.7953C242.813 24.5385 245.408 27.0142 247.452 30.4393C247.51 30.5375 247.727 30.9222 247.919 31.2823C248.044 31.5114 248.161 31.7365 248.228 31.8593C250.43 35.8572 251.844 39.7284 252.016 43.9759C252.237 48.2072 251.256 52.422 248.87 55.8921C250.764 52.2706 251.427 48.1008 251.052 44.0414C250.639 39.978 249.279 36.0332 247.172 32.5304C245.091 29.0398 242.229 25.938 238.679 23.9697C236.901 23.004 234.924 22.4106 232.892 22.3493C230.852 22.292 228.783 22.8035 226.902 23.802Z" fill="#BBB8B5"/>
<path d="M164.72 175.612C166.685 184.577 169.722 193.277 173.998 201.367C176.088 205.439 178.461 209.359 181.073 213.124L185.069 218.759L187.063 221.607C187.723 222.556 188.315 223.563 188.945 224.528C191.477 228.412 193.638 232.508 195.699 236.657C197.643 240.856 199.307 245.181 200.605 249.621C201.844 254.065 202.766 258.599 203.179 263.186C203.629 267.77 203.7 269.701 203.529 274.272C203.416 269.693 203.208 267.778 202.557 263.256C201.944 258.726 200.984 254.253 199.629 249.899C198.248 245.545 196.458 241.331 194.539 237.189C192.47 233.114 190.305 229.075 187.76 225.253C187.13 224.295 186.529 223.317 185.879 222.376L183.88 219.569C182.566 217.703 181.19 215.82 179.896 213.905C177.297 210.063 174.932 206.061 172.867 201.924C168.762 193.621 165.984 184.7 164.72 175.612Z" fill="#CCC9C6"/>
<path d="M162.122 150.904C162.827 157.095 164.475 163.14 166.365 169.069C168.263 174.994 170.541 180.805 173.21 186.423C178.567 197.656 185.404 208.279 194.248 217.106C196.472 219.262 198.795 221.505 200.873 223.887C202.963 226.272 204.865 228.813 206.605 231.461C210.076 236.748 212.733 242.555 214.452 248.611C217.339 258.776 217.718 269.509 215.924 279.829C215.574 281.814 215.136 283.795 214.627 285.751C215.87 279.633 216.488 273.417 216.267 267.218C216.1 261.022 215.153 254.847 213.338 248.934C211.502 243.029 208.929 237.337 205.47 232.177C203.747 229.603 201.858 227.123 199.793 224.803C197.728 222.454 195.475 220.363 193.21 218.1C184.32 209.053 177.365 198.307 172.209 186.882C169.639 181.157 167.449 175.264 165.693 169.261C164.829 166.254 164.074 163.225 163.436 160.165C162.81 157.108 162.268 154.018 162.122 150.904Z" fill="#D2CFCB"/>
<path d="M237.834 134.742C241.142 128.44 243.858 121.905 246.236 115.276C248.618 108.651 250.591 101.886 252.181 95.0403C253.745 88.1983 254.851 81.2499 255.293 74.2525C255.468 70.7578 255.476 67.2345 255.088 63.7603L254.813 61.1414L254.258 58.5675L253.991 57.2744C253.879 56.8447 253.695 56.4437 253.562 56.0263L252.702 53.5097C256.081 59.836 256.895 67.21 256.878 74.2934C256.878 77.8658 256.619 81.43 256.152 84.9737C255.714 88.5093 255.097 92.0244 254.304 95.5067C252.773 102.471 250.629 109.297 247.955 115.914C245.26 122.51 241.956 128.91 237.834 134.742Z" fill="#FFFBF7"/>
<path d="M159.098 132.229C158.843 131.03 158.685 130.359 158.685 130.359C158.685 130.359 158.822 131.022 159.098 132.229ZM158.163 184.78C158.851 185.942 159.415 186.854 160.007 187.894C160.282 188.377 160.587 188.88 160.866 189.359C184.37 229.662 221.214 259.063 200.51 290.883C198.662 293.727 196.772 296.645 193.535 299.481C197.277 296.457 200.206 296.817 202.821 297.185C205.575 297.57 207.994 297.959 210.681 294.378C211.44 293.367 212.454 291.734 213.321 289.623C213.789 288.514 214.206 287.291 214.627 285.748C214.627 285.748 225.924 300.704 236.962 289.84C240.679 277.703 242.16 259.419 225.661 239.552C206.889 216.948 195.187 214.664 180.023 189.187C168.029 169.046 160.841 139.845 159.098 132.229C160.858 140.467 167.207 173.58 158.163 184.78" fill="url(#paint12_linear_1_995)"/>
<path d="M136.203 39.8177C132.828 54.4018 130.709 75.7665 134.092 97.5814C135.565 107.12 142.765 127.945 144.396 137.982C140.254 105.937 124.714 44.6176 174.499 21.3623C162.643 24.2472 139.34 41.389 136.203 39.8177" fill="url(#paint13_linear_1_995)"/>
<path d="M192.751 1.49558C183.969 1.62653 170.098 5.31763 160.453 6.24654C157.383 6.53708 155.013 7.09358 153.124 7.81379C147.592 9.9253 146.211 13.506 143.925 16.4318C142.582 18.1546 141.647 18.6824 140.417 18.9606C140.387 18.9647 140.358 18.9648 140.337 18.9771C130.972 22.2712 108.849 49.0497 113.626 85.989C113.968 89.6146 114.748 93.146 115.745 96.6038C124.885 132.062 155.51 179.616 163.027 193.112C157.487 205.617 145.665 231.295 141.893 255.475C141.735 256.298 140.825 261.855 140.767 266.507C140.258 278.816 142.611 290.061 149.886 298.139C149.928 298.192 151.309 299.649 151.372 299.711C155.08 303.299 159.469 305.583 163.874 306.958H163.878C170.119 309.585 174.875 308.116 179.451 307.35C181.508 308.57 183.652 309.511 185.834 310.243C198.966 314.696 213.655 311.123 220.543 307.35C229.775 304.408 233.984 299.085 236.62 290.851C239.278 283.093 243.345 267.248 234.142 243.809C229.996 233.681 221.686 217.836 208.862 194.81L208.783 194.671C219.053 175.598 246.57 128.412 251.472 114.613C251.734 113.885 251.968 113.181 252.197 112.477C260.512 91.5993 265.947 63.9736 251.709 38.2794C251 36.9331 248.372 32.1086 247.463 30.4349C247.296 30.1321 247.183 29.9317 247.154 29.8867C235.665 9.18891 235.277 13.1132 228.098 11.8692C227.839 11.8323 227.564 11.7546 227.297 11.6891C219.124 9.84764 205.082 4.63032 198.232 2.1587C197.014 1.72494 195.475 1.52423 193.677 1.49558H192.751ZM201.72 183.291C201.294 182.579 200.885 181.908 200.472 181.22C184.653 153.328 167.62 129.03 158.363 106.167C156.315 99.9881 154.713 93.9033 153.716 88.0802C150.224 71.4009 151.68 61.5963 158.18 48.1087C164.425 35.1164 183.31 18.9076 193.877 23.8672C205.495 29.326 211.886 30.615 216.104 30.1117C220.155 29.6207 222.165 27.4559 224.856 25.2953C225.415 24.8165 226.783 23.8875 226.9 23.7975C233.212 28.5648 237.563 34.1301 241.318 39.6953C273.156 86.8729 220.593 159.098 203.547 186.208C202.4 184.326 201.728 183.295 201.72 183.291ZM162.581 291.891C160.199 291.584 157.817 290.663 155.527 289.128C152.339 286.964 149.962 283.768 148.735 280.162C145.035 269.253 145.811 247.577 165.647 198.493C167.72 202.896 169.669 207.049 170.511 208.752C181.992 231.54 184.749 252.439 184.766 264.928C183.527 280.629 175.805 290.16 167.099 291.76C166.144 291.907 165.209 291.976 164.295 291.976C163.716 291.976 163.144 291.944 162.581 291.891" fill="url(#paint14_linear_1_995)"/>
<path d="M193.193 1.49093C184.441 1.49911 170.257 5.30061 160.453 6.24588C157.383 6.53642 155.013 7.09292 153.124 7.81313C147.592 9.92464 146.211 13.5053 143.925 16.4311C142.582 18.1539 141.647 18.6817 140.417 18.96C140.387 18.9641 140.358 18.9642 140.337 18.9764C130.972 22.2706 108.849 49.0491 113.626 85.9884C113.968 89.6139 114.748 93.1454 115.745 96.6032C124.885 132.061 155.51 179.615 163.027 193.111C157.487 205.617 145.665 231.294 141.893 255.474C141.735 256.297 140.825 261.854 140.767 266.515C140.258 278.816 142.611 290.061 149.886 298.138C149.928 298.192 151.309 299.649 151.372 299.71C155.08 303.299 159.469 305.582 163.874 306.957H163.878C170.119 309.584 174.875 308.115 179.451 307.35C181.508 308.569 183.652 309.51 185.834 310.243C190.294 311.753 194.928 312.338 199.38 312.314C208.036 312.252 216 309.838 220.543 307.35C229.775 304.408 233.984 299.084 236.62 290.851C239.278 283.092 243.345 267.247 234.142 243.808C229.996 233.68 221.686 217.835 208.862 194.809L208.783 194.67C219.053 175.597 246.57 128.411 251.472 114.612C251.734 113.884 251.968 113.18 252.197 112.477C260.512 91.5987 265.947 63.9729 251.709 38.2787C251 36.9406 248.372 32.1079 247.463 30.4342C247.296 30.1314 247.183 29.931 247.154 29.886C235.665 9.18824 235.277 13.1125 228.098 11.8685C227.839 11.8317 227.564 11.7539 227.297 11.6884C219.124 9.84698 205.082 4.62966 198.232 2.15804C196.931 1.69154 195.241 1.49093 193.28 1.49093H193.193ZM201.72 183.29C201.294 182.578 200.885 181.907 200.472 181.22C184.653 153.328 167.62 129.029 158.363 106.167C156.315 99.9875 154.713 93.9026 153.716 88.0796C150.224 71.4003 151.68 61.5956 158.18 48.1081C164.425 35.1157 183.31 18.9069 193.877 23.8665C205.495 29.3254 211.886 30.6144 216.104 30.111C220.155 29.62 222.165 27.4553 224.856 25.2947C225.415 24.8159 226.783 23.8869 226.9 23.7968C233.212 28.5641 237.563 34.1294 241.318 39.6946C273.156 86.8723 220.593 159.098 203.547 186.208C202.4 184.325 201.728 183.294 201.72 183.29ZM162.581 291.89C160.199 291.583 157.817 290.662 155.527 289.128C152.339 286.963 149.962 283.767 148.735 280.162C145.035 269.252 145.811 247.577 165.647 198.492C167.72 202.895 169.669 207.049 170.511 208.751C181.992 231.54 184.749 252.438 184.766 264.927C183.527 280.629 175.805 290.159 167.099 291.759C166.144 291.906 165.209 291.976 164.295 291.976C163.716 291.976 163.144 291.943 162.581 291.89" fill="url(#paint15_linear_1_995)"/>
<path d="M190.54 269.434C190.836 255.071 188.066 240.904 183.477 227.433C178.863 213.937 172.406 201.117 164.934 188.918C161.221 182.788 157.346 176.654 153.712 170.438C150.079 164.206 146.512 157.945 143.125 151.578C136.35 138.864 129.979 125.892 125.199 112.314C128.156 118.878 131.314 125.307 134.748 131.629C138.106 137.976 141.61 144.245 145.189 150.481C152.331 162.962 159.853 175.177 167.454 187.441C174.955 199.82 181.387 212.918 185.622 226.766C187.753 233.673 189.339 240.749 190.223 247.906C191.078 255.059 191.237 262.302 190.54 269.434Z" fill="#E1DEDA"/>
<g opacity="0.429993">
<path d="M134.743 131.628C138.101 137.97 141.614 144.248 145.185 150.48C146.658 153.05 148.143 155.611 149.649 158.165C153.962 164.904 158.789 171.845 164.083 178.576C188.366 209.488 203.626 240.976 192.626 271.364C190.627 276.897 191.633 279.491 194.165 279.598H194.499C201.482 279.319 218.523 262.067 218.799 236.095V234.826C218.611 216.985 210.48 195.174 185.984 171.984C147.905 143.613 125.202 112.321 125.202 112.321C128.156 118.881 131.31 125.31 134.743 131.628" fill="url(#paint16_linear_1_995)"/>
</g>
<path d="M165.648 198.49C164.771 196.534 164.087 195.13 163.024 193.109C157.488 205.618 145.665 231.296 141.89 255.476C141.739 256.295 140.826 261.864 140.767 266.521C140.851 267.351 140.976 268.133 141.139 268.849C144.468 282.942 149.649 285.34 151.806 285.7C150.458 284.064 149.424 282.185 148.74 280.16C145.035 269.258 145.807 247.574 165.648 198.49Z" fill="#F2EFEA"/>
<path d="M234.142 243.804C230 233.684 221.69 217.836 208.866 194.801L208.787 194.675C208.787 194.675 200.477 181.224 200.468 181.22C184.653 153.328 167.625 129.033 158.359 106.159C156.319 99.9878 154.709 93.9028 153.716 88.0798C153.708 88.0553 153.708 88.0348 153.704 88.0102C153.695 87.9693 153.691 87.9366 153.679 87.9038C154.58 93.5673 154.346 99.4312 156.207 108.454C159.811 125.33 167.625 143.978 181.984 161.275C198.916 181.658 218.131 206.554 226.963 244.774C228.098 249.689 229.795 260.647 230.467 270.812C231.276 283.068 228.94 291.624 224.481 300.647C224.589 300.799 227.272 304.302 235.043 293.658C235.669 292.729 236.166 291.788 236.62 290.851C239.278 283.092 243.349 267.252 234.142 243.804Z" fill="#FFFBF7"/>
<path d="M124.472 58.7967C124.472 65.1231 129.7 70.2422 136.149 70.2422C142.603 70.2422 147.83 65.1231 147.83 58.7967C147.83 52.4703 142.603 47.3387 136.149 47.3387C129.7 47.3387 124.472 52.4703 124.472 58.7967ZM137.709 53.3786C136.529 52.9326 135.786 51.8278 135.778 50.6492C135.899 50.6411 136.02 50.6165 136.149 50.6165C138.064 50.6165 139.808 51.2672 141.213 52.3394C140.65 53.1128 139.733 53.5709 138.777 53.5709C138.418 53.5709 138.06 53.5096 137.709 53.3786M128.381 55.8545C129.095 54.0499 130.446 52.5767 132.153 51.656C132.415 52.0857 132.574 52.597 132.574 53.1249C132.574 54.7617 131.226 56.0835 129.562 56.0835C129.141 56.0835 128.753 56.01 128.381 55.8545ZM134.355 61.6979L132.853 58.9236C132.687 58.6085 132.745 58.2238 132.987 57.966L135.223 55.7072C135.473 55.4494 135.865 55.3757 136.187 55.5353L139.069 56.9182C139.399 57.0737 139.582 57.4134 139.528 57.7694L139.082 60.8835C139.032 61.2395 138.752 61.5179 138.402 61.5793L135.244 62.1193C135.198 62.1275 135.144 62.1275 135.098 62.1275C134.789 62.1275 134.505 61.968 134.355 61.6979M141.798 59.3736C141.798 57.9742 142.795 56.8161 144.113 56.4969C144.338 57.2335 144.488 57.9906 144.488 58.7967C144.488 59.9834 144.221 61.1086 143.746 62.1275C142.611 61.7101 141.798 60.634 141.798 59.3736M128.068 60.7281C128.31 60.6667 128.565 60.6257 128.832 60.6257C130.488 60.6257 131.844 61.9435 131.844 63.5804C131.844 64.2597 131.61 64.8652 131.218 65.3644C129.666 64.2391 128.536 62.6186 128.068 60.7281ZM135.402 66.9029C135.59 65.4503 136.842 64.3292 138.373 64.3292C139.378 64.3292 140.266 64.8244 140.817 65.5732C139.491 66.4571 137.884 66.9726 136.149 66.9726C135.89 66.9726 135.644 66.9275 135.402 66.9029" fill="url(#paint17_linear_1_995)"/>
<path d="M137.534 38.0249L140.229 42.6082L144.901 39.9645L142.206 35.3814L137.534 38.0249Z" fill="url(#paint18_linear_1_995)"/>
<path d="M130.901 79.1094L134.789 82.7882L138.539 78.9908L134.656 75.2996L130.901 79.1094Z" fill="url(#paint19_linear_1_995)"/>
<path d="M209.258 271.532C208.841 272.068 208.616 272.964 208.516 274.114C208.415 275.28 208.457 276.324 208.545 277.318C208.107 276.847 207.239 276.692 206.776 277.04C206.897 277.502 207.055 277.924 207.118 278.419C207.168 278.762 207.168 279.143 207.172 279.511C206.359 280.096 205.42 280.89 205.291 282.372C205.27 282.609 205.278 282.826 205.278 283.051C204.974 282.11 204.444 281.148 204.181 280.33C203.943 279.601 203.518 278.902 203.101 278.533C202.98 278.415 202.821 278.378 202.675 278.292C202.583 278.533 202.512 278.791 202.421 279.012C202.383 279.123 202.366 279.237 202.321 279.458C202.041 279.176 201.816 278.918 201.536 278.717C201.328 278.57 201.077 278.505 200.823 278.455C200.289 278.337 200.197 278.464 200.197 279.229C200.197 279.479 200.185 279.745 200.176 280.072C199.012 279.634 198.366 280.559 198.391 280.583C198.637 280.809 198.854 280.948 198.908 281.296C198.962 281.623 198.829 282.138 198.662 282.585C198.328 283.468 198.549 284.97 199.196 285.555C199.659 285.977 200.518 285.899 201.123 285.322C201.824 284.684 202.041 282.711 201.649 282.097C201.411 281.729 201.244 281.725 200.781 282.036C200.902 282.294 201.144 282.543 201.111 282.834C201.077 283.161 200.844 283.616 200.606 283.874C200.281 284.217 199.913 284.25 199.651 283.968C199.192 283.464 199.183 282.593 199.609 281.774C199.73 281.549 200.03 281.128 200.185 281.013C200.844 280.542 201.624 280.407 202.104 280.743C202.638 281.115 202.963 281.717 203.03 282.609C203.155 284.164 202.333 286.587 202.408 288.133C202.462 289.566 203.505 290.13 204.719 290.364C205.253 290.466 206.634 290.621 206.918 290.724C208.361 291.231 209.613 291.153 210.38 289.848C211.169 288.51 211.598 285.985 212.441 284.655C212.929 283.898 213.492 283.513 214.143 283.407C214.736 283.329 215.361 283.779 215.728 284.5C215.82 284.672 215.879 285.175 215.887 285.437C215.87 286.353 215.449 287.127 214.811 287.36C214.431 287.495 214.118 287.315 213.997 286.857C213.91 286.525 213.918 286.018 214.047 285.703C214.151 285.437 214.477 285.33 214.706 285.15C214.444 284.663 214.293 284.586 213.91 284.811C213.271 285.187 212.604 287 212.929 287.875C213.184 288.657 213.918 289.107 214.523 288.939C215.386 288.702 216.208 287.515 216.342 286.562C216.4 286.104 216.534 285.588 216.725 285.314C216.938 285.023 217.193 284.999 217.531 284.917C217.556 284.909 217.576 284.851 217.622 284.782C217.435 283.779 216.734 283.943 216.183 283.673C216.325 283.366 216.438 283.137 216.563 282.904C216.926 282.224 216.901 282.069 216.367 281.95C216.121 281.885 215.87 281.819 215.607 281.864C215.274 281.909 214.944 282.052 214.564 282.175C214.623 281.958 214.66 281.848 214.681 281.742C214.715 281.496 214.769 281.23 214.802 280.98C214.736 280.988 214.677 280.988 214.619 280.98C214.51 280.98 214.406 280.972 214.293 281.005C213.759 281.152 213.401 281.48 212.721 281.872C212.086 282.241 211.269 283.17 210.606 284.103C210.685 283.779 210.777 283.464 210.898 283.174C211.327 282.097 211.248 281.435 210.822 280.919L210.339 280.15C210.389 280.035 210.443 279.904 210.493 279.753C210.718 279.033 211.064 278.472 211.336 277.76C211.215 277.306 210.389 276.884 209.842 277.073C210.151 276.099 210.364 275.039 210.372 273.803C210.364 272.674 210.092 271.978 209.784 271.442C209.738 271.364 209.671 271.331 209.604 271.331C209.488 271.331 209.358 271.417 209.258 271.532M188.049 284.909C187.861 284.266 187.67 283.616 187.465 282.916C186.597 283.084 186.08 283.734 185.705 284.43C185.338 285.122 185.146 285.891 184.862 286.599C184.512 286.304 184.161 285.993 183.802 285.682C182.684 286.98 182.501 288.338 183.514 289.926C184.345 291.219 185.325 292.406 186.264 293.58C187.332 294.926 188.416 296.211 188.491 297.971C188.571 299.616 187.67 301.052 186.243 302.226C185.112 303.164 183.857 303.511 182.28 303.519C182.23 303.519 182.096 303.978 182.071 304.064C182.213 304.706 183.389 304.416 183.982 304.269C188.433 303.164 191.307 299.849 189.972 296.493C189.459 295.159 187.724 293.04 187.06 291.747C186.506 290.687 186.009 289.615 186.247 288.362C186.543 286.885 188.012 285.445 189.876 285.748C190.936 285.916 191.774 286.775 191.766 287.818C191.758 288.489 191.174 289.377 190.498 289.668C190.06 289.848 189.605 289.909 189.267 289.598C188.959 289.296 188.959 288.919 189.163 288.51C189.196 288.444 189.205 288.371 189.221 288.293C188.537 288.346 187.678 289.263 187.774 289.979C187.953 291.231 190.823 292.23 192.142 291.378C193.351 290.609 194.002 288.809 193.568 287.36C193.147 285.96 192.505 285.228 191.149 284.798C191.003 284.741 190.878 284.684 190.769 284.626C191.04 283.955 191.261 283.374 191.491 282.736C191.407 282.732 191.32 282.732 191.232 282.732C189.739 282.732 188.9 283.653 188.049 284.909M198.253 290.061C197.385 290.425 196.342 291.444 196.146 292.148C196.572 292.037 196.968 291.898 197.335 291.837C198.132 291.738 198.67 292.123 198.812 292.851C198.929 293.469 198.47 294.554 197.832 295.082C196.797 295.945 195.704 296.706 194.632 297.504C193.385 298.409 192.826 299.481 192.918 300.7C193.03 302.329 194.428 303.491 194.674 303.724C192.509 306.421 189.939 308.672 187.327 310.718C188.045 310.922 188.767 311.119 189.484 311.274C191.837 309.31 194.131 307.223 196.351 304.837C198.236 305.652 200.543 305.832 202.354 304.465C203.518 303.581 204.056 302.509 204.523 301.384C204.878 300.532 205.149 299.669 205.449 298.802C205.866 297.623 206.738 296.674 207.652 296.322C208.49 296.002 208.991 296.408 209.066 297.48C209.07 297.623 209.079 297.754 209.095 297.991C209.671 297.275 209.884 296.551 210.042 295.876C210.322 294.587 210.013 293.797 209.462 293.281C208.808 292.68 207.706 292.635 206.584 293.469C206.146 293.776 205.587 294.398 205.182 295.004C204.648 295.806 204.215 296.616 203.806 297.435C202.479 299.157 201.403 300.279 200.669 300.95C201.482 299.755 202.104 298.486 202.646 297.206C203.117 296.101 203.505 294.979 203.881 293.85C203.931 293.711 203.952 293.564 204.01 293.306C203.81 293.494 203.697 293.563 203.61 293.674C202.049 295.528 200.289 297.21 198.541 298.855C198.366 299.014 198.232 299.194 198.07 299.37C198.145 298.486 198.804 297.34 199.492 296.346C199.751 296.088 199.993 295.831 200.222 295.552C200.94 294.722 201.561 293.719 201.953 292.749C202.454 291.477 202.024 290.662 201.273 290.167C200.835 289.872 200.347 289.709 199.792 289.709C199.338 289.709 198.82 289.823 198.253 290.061M180.432 293.203C179.672 293.158 178.15 293.101 178.133 293.158C182.397 295.274 183.652 298.184 184.345 301.744C185.262 301.306 186.168 298.621 186.009 297.21C185.796 295.249 184.687 293.821 182.864 292.463C182.814 292.733 182.78 292.888 182.73 293.093C181.737 292.647 181.116 291.702 179.852 291.501C180.056 292.115 180.24 292.647 180.432 293.203M218.853 298.331C218.782 298.294 218.674 298.253 218.557 298.192C217.735 297.737 214.652 297.058 213.071 298.724C211.982 299.906 210.681 302.877 212.675 304.158C213.163 304.461 213.517 304.755 214.293 304.383C214.94 304.06 215.37 303.47 215.67 302.795C215.728 302.672 215.737 302.537 215.783 302.345C215.657 302.439 215.591 302.476 215.528 302.546C214.886 303.233 214.51 303.413 214.197 303.205C213.885 303.016 213.638 301.883 213.993 301.257C214.94 299.591 216.725 299.031 217.61 299.563C218.311 299.988 218.469 300.905 217.906 302.267C217.247 303.859 216.141 305.136 214.811 305.676C213.597 306.167 212.404 306.355 211.21 306.511C210.468 306.597 209.734 306.425 208.962 306.261C207.99 306.044 206.976 305.832 205.883 306.13C202.934 306.957 199.492 309.617 197.536 312.285C197.928 312.305 198.316 312.314 198.708 312.314C199.275 311.659 199.951 311.016 200.744 310.427C203.013 308.708 205.262 307.824 207.381 307.919C209.054 308.004 210.539 308.316 212.091 308.381C213.042 308.426 213.972 308.483 214.961 308.311C216.35 308.066 217.697 307.026 218.87 305.136C218.494 305.058 218.148 304.989 217.76 304.894C219.387 303.462 220.684 301.789 221.11 299.571C220.438 300.029 219.817 300.409 219.166 300.782C219.596 299.894 220.017 299.051 220.28 298.229C220.559 297.357 220.526 296.653 220.209 296.174C219.762 296.903 219.349 297.574 218.853 298.331M186.493 304.526C185.563 305.271 185.588 306.511 186.355 307.489C186.614 307.82 186.91 308.107 187.111 308.336C187.916 307.685 188.608 307.018 189.388 306.433C191.115 305.128 191.616 303.614 191.366 302.046C191.307 301.662 191.195 301.289 191.09 300.802C189.53 302.169 187.953 303.344 186.493 304.526ZM178.851 305.013C178.02 304.981 177.232 304.94 176.435 304.845C176.427 304.911 177.32 305.754 177.845 306.143C177.466 306.458 177.111 306.744 176.752 307.026C180.557 306.879 183.385 308.606 186.218 310.337C185.855 308.099 182.622 305.083 178.7 304.535C178.746 304.69 178.792 304.837 178.851 305.013M194.036 309.801C193.431 310.484 192.588 311.123 191.87 311.741C193.222 311.97 194.553 312.117 195.884 312.199C196.038 312.129 196.192 312.048 196.334 311.941C197.073 311.421 197.677 310.722 198.291 310.063C198.737 309.576 199.075 309.019 199.505 308.5C199.905 308.005 200.36 307.53 200.802 307.014C198.061 307.092 195.767 307.841 194.036 309.801M208.257 309.703C205.904 309.899 203.313 310.955 200.823 312.277C204.753 312.133 208.507 311.516 211.824 310.656C211.073 310.014 210.126 309.678 208.887 309.678C208.687 309.678 208.474 309.691 208.257 309.703" fill="url(#paint20_linear_1_995)"/>
<path d="M185.083 191.119C184.958 191.135 184.854 191.2 184.845 191.323V191.364C184.887 192.039 185.075 192.821 185.751 193.831C186.497 194.949 187.315 195.779 188.183 196.479C187.586 196.635 187.098 197.486 187.277 197.968C187.941 198.447 188.591 198.758 189.221 199.274C190.544 200.338 191.224 199.769 191.328 199.29C191.357 199.119 191.153 198.807 190.848 198.447C191.128 198.697 191.445 198.865 191.774 198.861C192.354 198.734 192.746 198.472 192.308 197.58C192.075 197.126 191.654 196.606 191.424 196.131C191.182 195.632 191.069 195.17 190.894 194.687C190.273 194.638 189.589 195.272 189.493 195.951C188.967 195.002 188.375 194.036 187.578 193.05C186.802 192.072 186.051 191.393 185.363 191.151C185.313 191.135 185.258 191.123 185.208 191.119H185.083ZM196.213 195.337C196.372 196.434 197.54 198.259 198.708 199.671C198.203 198.505 198.407 197.842 198.866 197.265C199.042 197.052 198.996 196.246 198.357 195.481C198.111 195.182 197.544 194.621 197.173 194.519C197.052 194.482 196.935 194.466 196.839 194.466C196.334 194.466 196.151 194.9 196.213 195.337M204.089 196.369C203.818 196.581 203.334 196.97 203.063 198.439C202.838 198.149 202.208 197.6 201.908 197.343C201.795 197.531 201.641 197.67 201.578 197.891C201.369 198.562 201.482 199.368 201.962 200.244C202.779 201.762 203.676 203.256 204.582 204.741C206.25 207.483 207.852 210.114 206.943 212.52C207.135 212.508 207.197 212.512 207.231 212.508C207.293 212.487 207.327 212.41 207.377 212.381C208.624 211.526 209.55 210.081 208.641 208.346C207.706 206.554 205.199 204.303 204.327 202.466C203.818 201.414 203.793 200.53 204.148 199.773C204.473 199.094 205.424 198.75 206.476 198.865C206.726 198.898 207.339 199.196 207.619 199.368C208.641 200.047 209.208 201.042 209.008 201.885C208.895 202.372 208.465 202.58 207.877 202.38C207.443 202.232 206.88 201.864 206.626 201.516C206.4 201.214 206.513 200.788 206.48 200.416C205.754 200.346 205.562 200.453 205.541 201.017C205.495 201.963 206.663 203.325 207.869 203.608C208.92 203.89 209.955 203.432 210.197 202.67C210.547 201.594 210.172 200.502 209.212 199.691C208.737 199.307 208.253 198.799 208.094 198.39C207.931 197.977 208.082 197.678 208.211 197.257C208.228 197.22 208.178 197.162 208.14 197.068C206.889 196.553 206.567 197.408 205.875 197.801C205.65 197.429 205.47 197.142 205.291 196.843C204.995 196.328 204.819 196.103 204.598 196.103C204.461 196.103 204.302 196.197 204.089 196.369M194.311 197.911C194.102 198.104 193.969 198.505 194.186 198.889C194.607 199.671 195.462 200.448 196.405 200.894C198.203 201.746 199.834 203.026 201.044 204.663C201.253 204.954 201.453 205.248 201.649 205.547C200.61 204.536 199.4 203.612 198.303 202.67C197.123 201.676 195.984 201.214 195.02 201.259C194.736 201.275 194.536 201.529 194.549 201.807C194.595 202.781 195.266 203.779 196.272 204.974C197.123 205.985 197.974 207.147 198.9 208.244C198.704 208.08 198.499 207.929 198.303 207.765C196.881 206.64 195.646 205.281 194.653 203.714C194.157 202.928 191.971 200.297 191.024 201.615C190.681 202.089 191.207 203.039 192.221 203.804C193.122 204.475 194.044 205.04 194.953 205.686C194.97 206.767 195.391 207.462 196.705 208.399C197.465 208.927 198.224 209.332 198.979 209.848C199.204 210.003 199.53 210.294 199.609 210.503C199.993 211.558 200.702 212.115 201.474 212.45C202.354 212.831 203.147 212.847 203.714 212.831C204.231 212.811 204.765 212.536 205.124 212.062C205.654 211.37 205.979 209.553 205.186 208.109C204.924 207.634 204.431 207.086 203.977 206.709C203.61 206.39 203.389 206.186 203.176 205.74C202.75 204.827 202.208 203.919 201.578 203.043C200.677 201.815 199.888 201.418 199.021 201.512C198.261 200.588 197.573 199.728 196.772 198.938C196.046 198.23 195.191 197.797 194.67 197.797C194.519 197.797 194.394 197.834 194.311 197.911M188.178 205.715C188.183 206.959 190.077 207.135 190.544 206.959C191.12 206.742 191.487 206.308 192.054 206.108C192.442 205.985 193.034 206.132 193.739 206.173C192.505 205.412 190.636 204.512 189.413 204.512C188.679 204.512 188.174 204.835 188.178 205.715M190.886 207.97C190.665 208.019 190.51 208.158 190.314 208.252C190.586 208.567 190.999 209.189 191.353 209.455C190.84 209.565 190.385 209.606 189.981 209.762C189.655 209.877 189.422 210.102 189.176 210.327C188.662 210.805 188.742 210.998 189.58 211.538C189.876 211.726 190.148 211.919 190.523 212.168C189.209 213.085 189.78 214.431 189.822 214.423C190.248 214.312 190.556 214.186 190.978 214.374C191.378 214.562 191.866 215.07 192.229 215.552C192.997 216.551 194.081 216.985 195.199 216.715C195.996 216.526 196.514 215.548 196.297 214.492C196.08 213.302 194.778 212.062 193.819 212.05C193.239 212.037 193.114 212.217 193.134 212.925C193.518 212.991 193.948 212.901 194.244 213.138C194.586 213.412 194.928 213.985 195.049 214.423C195.212 215.016 194.978 215.413 194.474 215.491C193.602 215.634 192.621 215.016 192.004 213.977C191.837 213.686 191.583 213.076 191.566 212.823C191.512 211.783 191.916 210.875 192.634 210.605C193.431 210.306 194.323 210.392 195.358 210.949C197.173 211.935 199.3 214.525 201.069 215.552C202.775 216.551 204.306 215.745 205.253 214.578C205.287 214.533 205.366 214.501 205.391 214.443C205.395 214.415 205.391 214.345 205.42 214.157C202.917 214.898 200.343 213.159 197.657 211.354C196.213 210.372 194.745 209.394 193.26 208.493C192.613 208.105 191.996 207.904 191.432 207.904C191.245 207.904 191.061 207.929 190.886 207.97ZM211.895 209.242C210.555 209.921 209.963 211.763 211.198 214.124C211.502 214.689 211.87 215.286 212.291 215.806C213.926 217.836 215.762 219.481 217.576 221.163C218.678 222.202 219.712 223.327 220.759 224.465C223.454 227.407 222.958 230.898 223.033 231.061C224.234 229.142 225.286 227.166 224.297 224.105C223.667 222.194 222.345 220.893 220.981 219.73C219.946 218.838 218.861 218.081 217.785 217.259C216.321 216.142 215.386 214.509 215.328 213.113C215.274 211.841 216.079 211.358 217.627 211.779C217.827 211.832 217.944 211.861 218.294 211.959C217.727 210.928 216.709 210.228 215.82 209.697C214.865 209.128 214.047 208.903 213.334 208.903C212.796 208.903 212.32 209.033 211.895 209.242M209.671 217.283C211.544 220.262 213.084 223.429 214.577 226.568C215.332 228.123 216.413 229.555 217.401 230.922C217.768 231.421 218.536 231.56 219.116 231.671C219.52 231.749 219.804 231.863 220.063 232.342C223.404 238.349 226.028 244.627 228.131 250.679C228.193 250.883 228.243 251.194 228.164 251.37C227.242 253.183 227.801 254.48 228.761 255.659C229.52 256.6 230.918 258.507 231.464 258.462C231.577 257.328 231.706 256.211 231.685 255.098C231.681 254.096 231.639 253.04 231.343 252.103C231.168 251.534 230.53 251.203 230.1 250.752C229.791 250.433 229.341 250.188 229.199 249.791C226.975 243.878 224.314 237.715 220.956 231.863C220.622 231.258 220.543 230.84 220.751 230.251C221.102 229.224 220.772 228.082 220.155 227.01C218.565 224.289 216.425 222.186 214.197 220.254C212.858 219.096 211.465 218.048 210.051 217.001C209.875 216.866 209.684 216.776 209.35 216.571C209.513 216.923 209.567 217.12 209.671 217.283M203.618 218.744C202.462 219.583 201.899 220.835 202.041 222.75C202.149 224.084 203.084 225.975 203.985 226.572C204.035 225.954 204.023 225.353 204.114 224.837C204.352 223.724 205.149 223.172 206.234 223.327C207.168 223.475 208.474 224.608 208.912 225.717C209.646 227.509 210.218 229.342 210.818 231.163C211.511 233.267 212.75 234.564 214.519 234.994C215.958 235.346 217.351 235.076 218.757 234.458C218.161 234.102 217.697 233.811 217.214 233.541C215.687 232.67 214.677 231.147 213.901 229.347C212.933 227.104 212.028 224.809 210.722 222.73C209.884 221.363 208.77 220.053 207.581 219.067C206.78 218.408 206.033 218.138 205.349 218.138C204.711 218.138 204.127 218.376 203.618 218.744M191.866 233.161C190.919 233.005 189.956 232.858 188.913 232.694C188.625 233.86 189.159 234.9 189.843 235.792C190.523 236.659 191.412 237.347 192.171 238.12C191.57 238.386 190.953 238.636 190.348 238.889C191.366 241.046 193.034 242.102 195.704 241.799C197.882 241.545 200.005 241.03 202.112 240.563C204.511 240.044 206.826 239.466 209.166 240.428C211.369 241.32 212.696 243.293 213.38 245.764C213.918 247.733 213.622 249.504 212.696 251.46C212.666 251.518 213.113 251.939 213.288 252.045C213.559 251.252 214.393 250.024 214.564 249.201C215.791 243.022 211.565 238.701 206.384 238.349C204.344 238.186 202.275 238.427 200.189 238.48C198.478 238.533 196.776 238.505 195.304 237.465C193.552 236.205 192.546 233.525 194.052 231.393C194.916 230.177 196.534 229.662 197.878 230.284C198.762 230.697 199.571 231.953 199.538 232.968C199.521 233.631 199.329 234.229 198.716 234.458C198.132 234.667 197.648 234.445 197.231 233.934C197.164 233.86 197.073 233.807 196.993 233.742C196.643 234.617 197.331 236.221 198.328 236.532C200.055 237.068 201.795 234.887 201.474 232.747C201.194 230.787 200.264 229.142 198.508 228.373C196.58 227.534 194.945 227.833 193.577 229.24C193.414 229.396 193.264 229.51 193.126 229.625C192.404 228.884 191.779 228.258 191.09 227.587C189.956 229.576 190.669 231.258 191.866 233.161M201.657 236.385C203.622 236.324 205.666 233.852 204.74 231.655C204.073 230.014 202.058 228.663 200.493 227.722C202.917 230.443 203.897 233.398 201.657 236.385ZM226.754 239.81C227.447 240.952 227.906 242.274 228.427 243.518C230.313 242.392 231.648 240.158 230.872 237.74C230.475 236.504 229.791 235.362 229.153 234.237C228.665 233.394 228.052 232.665 227.526 231.851C227.009 231.069 226.558 230.239 226.037 229.4C224.839 233.12 224.81 236.549 226.754 239.81M219.491 244.467C220.104 246.075 221.865 246.64 223.613 246.075C224.197 245.879 224.752 245.621 225.165 245.461C224.627 244.066 224.013 242.83 223.559 241.5C222.545 238.554 220.647 237.158 218.311 236.745C217.739 236.651 217.147 236.618 216.421 236.528C217.618 239.274 218.515 241.938 219.491 244.467M198.741 244.213C199.1 244.418 199.3 244.524 199.567 244.688C198.478 245.817 196.843 246.194 195.95 247.794C196.922 247.81 197.765 247.818 198.629 247.827C198.216 248.821 197.415 250.847 197.481 250.9C202.487 246.169 207.185 245.867 212.533 246.648C212.353 245.204 208.991 242.699 206.926 242.241C206.267 242.094 205.625 242.02 204.995 242.02C202.875 242.02 200.881 242.826 198.741 244.213ZM230.413 245.732C231.752 245.216 233.083 244.737 234.397 244.467C234.309 244.246 234.23 244.021 234.142 243.804C233.917 243.252 233.671 242.675 233.425 242.085C232.115 243.125 231.009 244.455 230.413 245.732ZM230.676 248.985C230.6 249.009 230.546 249.116 230.413 249.312C232.424 249.664 233.17 251.399 233.546 253.408C234.71 253.13 235.235 252.148 235.744 251.26C236.182 251.653 236.591 252.119 237.058 252.455C236.654 251.01 236.199 249.529 235.686 248.015C235.419 247.986 235.148 247.966 234.885 247.966C233.466 247.966 232.069 248.391 230.676 248.985M213.192 255.904C213.434 255.912 213.676 255.917 213.947 255.921C213.505 257.013 213.067 258.065 212.562 259.084C212.641 259.133 214.268 258.335 215.065 257.811C215.328 258.482 215.557 259.088 215.787 259.702C217.393 254.517 221.16 251.554 224.944 248.571C224.664 248.522 224.368 248.502 224.059 248.502C220.664 248.502 215.612 251.325 213.192 255.904M225.486 252.393C224.176 253.498 222.958 254.718 222.299 256.387C221.652 257.991 221.857 259.276 222.904 260.369C224.218 259.194 225.198 258.012 224.814 256.522C225.732 256.473 226.608 256.412 227.718 256.334C226.896 254.562 226.387 252.995 227.509 251.104C227.447 251.055 227.392 251.002 227.326 250.961C226.738 251.448 226.091 251.894 225.486 252.393M233.233 254.677C233.909 255.806 234.388 256.8 235.068 257.623C235.54 258.233 236.316 258.634 237.275 258.233C237.609 258.102 238.06 257.758 238.289 257.418C238.197 256.981 238.097 256.543 237.993 256.093C237.317 256.17 236.795 255.782 236.366 255.475C235.648 254.971 234.881 254.648 233.817 254.648C233.633 254.648 233.437 254.656 233.233 254.677M226.299 260.025C226.028 260.901 225.653 261.621 224.46 261.871C224.935 262.55 225.661 262.677 226.5 262.583C227.288 262.489 227.839 261.94 228.181 261.339C228.702 260.426 228.761 259.329 228.636 258.384C228.569 257.864 228.465 257.251 228.294 256.911C227.209 257.885 226.658 258.928 226.299 260.025M234.518 261.515C235.448 262.034 236.808 261.433 237.555 259.931C236.316 260.267 235.869 259.501 235.235 258.871C234.676 258.323 233.959 257.963 233.241 257.468C232.87 258.994 233.508 260.966 234.518 261.515M229.311 261.269C229.341 262.096 229.353 262.84 228.49 263.606C229.311 263.843 230.029 263.642 230.738 263.09C231.376 262.607 231.568 262.01 231.535 261.335C231.472 260.16 230.596 258.757 229.47 258.237C229.445 259.346 229.266 260.353 229.311 261.269M233.133 264.727C233.241 264.891 233.379 264.98 233.55 264.997H233.675C233.821 264.985 233.992 264.931 234.192 264.833C234.764 264.551 234.956 264.232 234.868 263.798C234.635 262.574 233.721 261.813 232.716 261.081C232.524 262.472 232.469 263.724 233.133 264.727" fill="url(#paint21_linear_1_995)"/>
<path d="M148.881 181.18L150.583 180.227L145.949 172.3L144.247 173.254L146.028 176.311L137.61 181.053L138.669 182.87L147.092 178.123L148.881 181.18ZM156.478 190.293L148.143 191.59L153.458 185.133L151.806 182.322L141.689 188.022L142.745 189.835L150.488 185.477L150.517 185.526L144.409 192.675L145.277 194.156L154.647 192.597L154.676 192.634L146.942 196.996L148.001 198.809L158.122 193.113L156.478 190.293Z" fill="#BCBAB7"/>
<path d="M163.289 424.583C160.97 424.583 159.979 421.55 159.979 413.206C159.979 408.874 162.128 407.792 168.256 407.792C169.865 407.792 171.15 407.804 172.384 407.825C170.429 413.726 167.807 424.583 163.289 424.583ZM150.863 418.893C150.863 421.101 151.078 422.986 151.469 424.583H119.061C114.752 424.583 111.997 423.605 111.997 419.704V408.874H122.204C123.038 406.439 123.586 404.213 123.862 401.837H112C112.048 398.496 112.297 395.511 112.545 392.086C108.681 393.439 105.648 395.009 103.159 397.72V401.837H97.9132C97.4738 404.763 97.4737 406.977 97.3646 408.874H103.159V420.248C103.159 428.21 108.075 431.622 114.809 431.622H158.87C164.267 431.622 168.413 427.282 172.399 417.46V431.622H181.23V401.837C177.257 401.51 173.611 401.29 169.638 401.29C158.706 401.29 150.863 405.735 150.863 418.893ZM197.245 415.59V412.667C197.245 408.874 196.966 405.625 196.417 401.837H187.858C188.134 405.625 188.41 408.874 188.41 412.667V431.622H197.245C197.245 421.003 200.721 408.928 209.94 410.23C209.94 408.333 209.664 403.999 209.116 401.29C202.385 401.864 199.087 407.682 197.245 415.59ZM75.5527 424.583C73.2342 424.583 72.2401 421.55 72.2401 413.206C72.2401 408.874 74.3949 407.792 80.52 407.792C82.1293 407.792 83.4143 407.804 84.6539 407.825C82.693 413.726 80.0775 424.583 75.5527 424.583ZM63.1328 418.893C63.1328 427.886 66.4424 432.163 70.8611 432.163C76.274 432.163 80.5958 427.463 84.666 417.445V431.622H93.5005V401.837C89.5242 401.51 85.8813 401.29 81.902 401.29C70.9702 401.29 63.1328 405.735 63.1328 418.893M351.01 405.084C351.01 397.666 345.764 393.168 336.378 393.168C331.19 393.168 327.383 394.251 325.061 395.339C323.737 397.176 323.131 399.293 322.301 402.643C325.834 401.29 329.256 400.211 334.448 400.211C338.588 400.211 341.903 401.944 341.903 406.71C341.903 411.85 338.645 415.59 320.919 425.662C320.919 426.747 320.976 428.911 321.473 431.622H350.732C351.565 429.185 352.114 427.02 352.389 424.583H327.486C339.927 420.409 351.01 416.051 351.01 405.084M42.327 423.304L41.8724 423.064C36.5748 420.305 29.4496 416.083 29.4496 408.389C29.4496 401.344 34.0926 398.041 39.6661 398.041C45.8517 398.041 49.6038 402.319 49.6038 409.799C49.6038 414.948 46.7125 419.49 42.327 423.304M59.2656 432.163L44.7213 424.556C52.9527 421.622 58.9899 415.834 58.9899 407.628C58.9899 396.578 50.5402 391.004 39.6661 391.004C29.6738 391.004 20.0665 397.286 20.0665 409.418C20.0665 419.654 28.0161 425.772 36.7384 430.267L64.7846 444.62C64.7846 438.285 64.0148 434.652 59.2656 432.163M265.981 428.911C263.502 428.911 255.767 423.982 255.767 410.774C255.767 404.269 259.635 400.211 265.981 400.211C272.33 400.211 276.2 404.269 276.2 410.774C276.2 423.982 268.469 428.911 265.981 428.911M265.981 393.168C254.943 393.168 246.657 399.667 246.657 410.23C246.657 424.039 260.186 432.163 265.981 432.163C271.782 432.163 285.305 424.039 285.305 410.23C285.305 399.667 277.028 393.168 265.981 393.168ZM266.105 407.935C264.175 409.284 262.517 410.863 261.056 412.667C262.517 414.472 264.175 416.045 266.105 417.4C268.036 416.045 269.687 414.472 271.16 412.667C269.687 410.863 268.036 409.284 266.105 407.935ZM316.782 405.084C316.782 397.666 311.532 393.168 302.143 393.168C296.958 393.168 293.148 394.251 290.827 395.339C289.505 397.176 288.896 399.293 288.066 402.643C291.603 401.29 295.027 400.211 300.216 400.211C304.356 400.211 307.671 401.944 307.671 406.71C307.671 411.85 304.413 415.59 286.69 425.662C286.69 426.747 286.744 428.911 287.241 431.622H316.506C317.33 429.185 317.885 427.02 318.161 424.583H293.254C305.698 420.409 316.782 416.051 316.782 405.084M242.238 405.084C242.238 397.666 236.998 393.168 227.612 393.168C222.421 393.168 218.611 394.251 216.296 395.339C214.968 397.176 214.359 399.293 213.535 402.643C217.065 401.29 220.49 400.211 225.682 400.211C229.819 400.211 233.131 401.944 233.131 406.71C233.131 411.85 229.873 415.59 212.153 425.662C212.153 426.747 212.207 428.911 212.707 431.622H241.969C242.799 429.185 243.348 427.02 243.62 424.583H218.717C231.155 420.409 242.238 416.051 242.238 405.084Z" fill="#9A1032"/>
<path d="M317.593 380.41C316.341 380.719 314.965 381.011 313.471 381.287C311.965 381.563 310.107 381.697 307.885 381.697C305.697 381.697 303.482 381.409 301.245 380.826C299.008 380.246 296.993 379.31 295.199 378.02C293.402 376.733 291.929 375.035 290.789 372.936C289.64 370.837 289.074 368.263 289.074 365.228C289.074 362.439 289.547 359.989 290.483 357.891C291.419 355.789 292.729 354.044 294.399 352.64C296.072 351.246 298.06 350.206 300.357 349.516C302.654 348.823 305.149 348.481 307.837 348.481C309.528 348.481 311.168 348.639 312.762 348.963C314.359 349.281 315.953 349.674 317.544 350.134L316.847 357.085C315.438 356.315 314.038 355.747 312.65 355.381C311.252 355.013 309.807 354.829 308.31 354.829C306.743 354.829 305.34 355.087 304.088 355.613C302.836 356.131 301.766 356.853 300.872 357.772C299.978 358.696 299.29 359.793 298.805 361.066C298.32 362.335 298.084 363.723 298.084 365.228C298.084 366.791 298.354 368.203 298.905 369.464C299.448 370.718 300.199 371.783 301.154 372.66C302.109 373.531 303.257 374.2 304.6 374.66C305.946 375.118 307.413 375.35 309.013 375.35C310.449 375.35 311.874 375.19 313.28 374.866C314.689 374.548 315.983 374.155 317.171 373.694L317.593 380.41Z" fill="#9A1032"/>
<path d="M349.022 368.953C349.022 371.165 348.676 373.062 347.989 374.661C347.301 376.254 346.328 377.574 345.061 378.615C343.791 379.661 342.276 380.434 340.509 380.94C338.742 381.451 336.793 381.698 334.666 381.698C332.541 381.698 330.595 381.451 328.825 380.94C327.062 380.434 325.546 379.661 324.276 378.615C323.009 377.574 322.037 376.254 321.349 374.661C320.661 373.062 320.315 371.165 320.315 368.953V349.029H329.041V367.529C329.041 368.602 329.125 369.604 329.298 370.541C329.468 371.48 329.771 372.304 330.189 373.026C330.61 373.745 331.183 374.313 331.902 374.726C332.617 375.143 333.544 375.351 334.666 375.351C335.793 375.351 336.717 375.143 337.439 374.726C338.16 374.313 338.727 373.745 339.151 373.026C339.569 372.304 339.869 371.48 340.042 370.541C340.209 369.604 340.3 368.602 340.3 367.529V349.029H349.022V368.953Z" fill="#9A1032"/>
<path d="M362.112 363.846H364.361C365.113 363.846 365.816 363.775 366.474 363.641C367.128 363.499 367.701 363.255 368.183 362.904C368.668 362.553 369.053 362.089 369.335 361.522C369.613 360.957 369.756 360.258 369.756 359.432C369.756 358.599 369.613 357.91 369.335 357.363C369.053 356.81 368.668 356.364 368.183 356.025C367.701 355.689 367.128 355.448 366.474 355.314C365.816 355.172 365.113 355.103 364.361 355.103H362.112V363.846ZM353.384 349.03H363.798C368.835 349.03 372.541 349.883 374.92 351.583C377.293 353.29 378.484 355.948 378.484 359.568C378.484 362.821 377.342 365.36 375.06 367.182C372.771 369.01 369.583 369.92 365.486 369.92H362.112V381.146H353.384V349.03Z" fill="#9A1032"/>
<path d="M107.123 349.029H116.036L120.261 373.695H120.355L124.758 349.029H135.829L140.427 373.695H140.524L144.791 349.029H153.283L145.961 381.148H134.754L130.11 356.485H130.013L125.701 381.148H114.393L107.123 349.029Z" fill="#9A1032"/>
<path d="M162.617 365.089C162.617 366.412 162.756 367.69 163.041 368.933C163.32 370.172 163.753 371.269 164.35 372.221C164.944 373.172 165.711 373.93 166.654 374.498C167.59 375.066 168.711 375.351 170.03 375.351C171.339 375.351 172.472 375.066 173.409 374.498C174.345 373.93 175.109 373.172 175.7 372.221C176.297 371.269 176.737 370.172 177.019 368.933C177.297 367.69 177.44 366.412 177.44 365.089C177.44 363.712 177.297 362.398 177.019 361.159C176.737 359.916 176.297 358.825 175.7 357.886C175.109 356.955 174.345 356.209 173.409 355.656C172.472 355.103 171.339 354.832 170.03 354.832C168.711 354.832 167.59 355.103 166.654 355.656C165.711 356.209 164.944 356.955 164.35 357.886C163.753 358.825 163.32 359.916 163.041 361.159C162.756 362.398 162.617 363.712 162.617 365.089ZM153.606 365.089C153.606 362.511 153.961 360.196 154.664 358.141C155.364 356.087 156.407 354.345 157.783 352.921C159.159 351.494 160.874 350.394 162.917 349.63C164.965 348.863 167.335 348.477 170.03 348.477C172.715 348.477 175.085 348.863 177.134 349.63C179.182 350.394 180.895 351.494 182.271 352.921C183.647 354.345 184.686 356.087 185.392 358.141C186.095 360.196 186.444 362.511 186.444 365.089C186.444 367.634 186.095 369.935 185.392 371.992C184.686 374.049 183.635 375.797 182.247 377.236C180.855 378.678 179.137 379.784 177.085 380.548C175.043 381.318 172.682 381.701 170.03 381.701C167.335 381.701 164.978 381.318 162.941 380.548C160.916 379.784 159.201 378.678 157.807 377.236C156.416 375.797 155.364 374.049 154.664 371.992C153.961 369.935 153.606 367.634 153.606 365.089Z" fill="#9A1032"/>
<path d="M198.455 362.375H200.749C201.44 362.375 202.167 362.351 202.931 362.304C203.701 362.259 204.389 362.114 204.998 361.87C205.607 361.62 206.116 361.254 206.519 360.764C206.929 360.27 207.129 359.569 207.129 358.644C207.129 357.91 206.953 357.307 206.589 356.831C206.231 356.355 205.765 355.993 205.186 355.749C204.607 355.505 203.934 355.338 203.164 355.243C202.401 355.148 201.598 355.104 200.749 355.104H198.455V362.375ZM189.732 349.03H205.304C206.738 349.03 208.104 349.194 209.383 349.512C210.665 349.836 211.793 350.338 212.763 351.013C213.726 351.688 214.487 352.526 215.036 353.537C215.584 354.554 215.857 355.749 215.857 357.128C215.857 359.275 215.342 361.04 214.305 362.423C213.278 363.799 211.696 364.736 209.571 365.229V365.318C210.259 365.5 210.814 365.791 211.238 366.195C211.659 366.594 212.026 367.09 212.338 367.688C212.654 368.288 212.938 368.978 213.205 369.76C213.475 370.542 213.808 371.425 214.22 372.409L217.406 381.146H208.311L206.428 375.352C205.989 373.969 205.574 372.834 205.186 371.945C204.795 371.059 204.368 370.351 203.919 369.831C203.464 369.305 202.949 368.948 202.367 368.749C201.788 368.547 201.097 368.449 200.285 368.449H198.455V381.146H189.732V349.03Z" fill="#9A1032"/>
<path d="M221.16 349.029H229.882V374.798H243.393V381.148H221.16V349.029Z" fill="#9A1032"/>
<path d="M255.168 374.797H258.544C261.827 374.797 264.345 373.985 266.094 372.356C267.846 370.733 268.725 368.313 268.725 365.088C268.725 361.868 267.828 359.445 266.045 357.819C264.263 356.193 261.766 355.378 258.544 355.378H255.168V374.797ZM246.44 349.028H258.354C261.202 349.028 263.815 349.278 266.188 349.765C268.567 350.256 270.604 351.109 272.313 352.322C274.013 353.532 275.347 355.167 276.298 357.221C277.253 359.273 277.732 361.853 277.732 364.951C277.732 367.959 277.244 370.489 276.274 372.544C275.304 374.601 273.962 376.263 272.24 377.535C270.522 378.807 268.473 379.726 266.094 380.294C263.718 380.862 261.139 381.147 258.354 381.147H246.44V349.028Z" fill="#9A1032"/>
<path fill-rule="evenodd" clip-rule="evenodd" d="M1.51556 349.029V381.148H11.7048V369.548H19.0421L21.6516 362.529H11.7048V356.024H24.0579L26.6583 349.029H1.51556Z" fill="#9A1032"/>
<path fill-rule="evenodd" clip-rule="evenodd" d="M29.7781 381.145H39.9673V349.027H29.7781V381.145Z" fill="#9A1032"/>
<path fill-rule="evenodd" clip-rule="evenodd" d="M46.9798 349.029V381.148H57.1751V369.548H64.5063L67.1158 362.529H57.1751V356.024H69.5222L72.1255 349.029H46.9798Z" fill="#9A1032"/>
<path fill-rule="evenodd" clip-rule="evenodd" d="M87.9958 370.66L83.9195 357.282L79.9857 370.66H87.9958ZM101.304 381.149H91.0114L89.6809 376.832H78.1642L76.8883 381.149H66.8567L78.7855 349.03H89.3808L101.304 381.149Z" fill="#9A1032"/>
<defs>
<linearGradient id="paint0_linear_1_995" x1="161.901" y1="174.181" x2="191.649" y2="100.396" gradientUnits="userSpaceOnUse">
<stop stop-color="#858380"/>
<stop offset="1" stop-color="#A19F9C"/>
</linearGradient>
<linearGradient id="paint1_linear_1_995" x1="178.297" y1="-0.610963" x2="218.557" y2="107.826" gradientUnits="userSpaceOnUse">
<stop stop-color="#9D9B98"/>
<stop offset="1" stop-color="#797775"/>
</linearGradient>
<linearGradient id="paint2_linear_1_995" x1="220.84" y1="84.0295" x2="102.699" y2="291.898" gradientUnits="userSpaceOnUse">
<stop stop-color="#797775"/>
<stop offset="0.842522" stop-color="#F2EFEA"/>
<stop offset="1" stop-color="#F2EFEA"/>
</linearGradient>
<linearGradient id="paint3_linear_1_995" x1="165.38" y1="281.742" x2="165.38" y2="43.5239" gradientUnits="userSpaceOnUse">
<stop stop-color="#9D9B98"/>
<stop offset="1" stop-color="#F2EFEA"/>
</linearGradient>
<linearGradient id="paint4_linear_1_995" x1="248.569" y1="187.559" x2="187.361" y2="14.0684" gradientUnits="userSpaceOnUse">
<stop stop-color="#9D9B98"/>
<stop offset="1" stop-color="#F2EFEA"/>
</linearGradient>
<linearGradient id="paint5_linear_1_995" x1="244.529" y1="290.341" x2="151.515" y2="26.6975" gradientUnits="userSpaceOnUse">
<stop stop-color="#44433E"/>
<stop offset="1" stop-color="#F2EFEA"/>
</linearGradient>
<linearGradient id="paint6_linear_1_995" x1="185.416" y1="37.9649" x2="185.416" y2="155.146" gradientUnits="userSpaceOnUse">
<stop stop-color="#F2EFEA"/>
<stop offset="1" stop-color="#F2EFEA"/>
</linearGradient>
<linearGradient id="paint7_linear_1_995" x1="148.024" y1="32.5027" x2="186.647" y2="6.99612" gradientUnits="userSpaceOnUse">
<stop stop-color="#FAF6F2"/>
<stop offset="1" stop-color="#FFFBF7"/>
</linearGradient>
<linearGradient id="paint8_linear_1_995" x1="140.416" y1="12.0876" x2="184.867" y2="12.0876" gradientUnits="userSpaceOnUse">
<stop stop-color="#B0AEAB"/>
<stop offset="1" stop-color="#FAF6F2"/>
</linearGradient>
<linearGradient id="paint9_linear_1_995" x1="254.526" y1="37.1516" x2="194.226" y2="3.79916" gradientUnits="userSpaceOnUse">
<stop stop-color="#FFFBF7"/>
<stop offset="0.527027" stop-color="#FFFBF7"/>
<stop offset="1" stop-color="#B4B2AF"/>
</linearGradient>
<linearGradient id="paint10_linear_1_995" x1="153.123" y1="6.59068" x2="227.294" y2="6.59068" gradientUnits="userSpaceOnUse">
<stop stop-color="#CCC9C6"/>
<stop offset="1" stop-color="#FAF6F2"/>
</linearGradient>
<linearGradient id="paint11_linear_1_995" x1="137.31" y1="17.4992" x2="129.668" y2="152.526" gradientUnits="userSpaceOnUse">
<stop stop-color="#FFFBF7"/>
<stop offset="1" stop-color="#FFFBF7"/>
</linearGradient>
<linearGradient id="paint12_linear_1_995" x1="158.167" y1="214.92" x2="239.375" y2="214.92" gradientUnits="userSpaceOnUse">
<stop stop-color="#DAD7D3"/>
<stop offset="1" stop-color="#FAF6F2"/>
</linearGradient>
<linearGradient id="paint13_linear_1_995" x1="156.178" y1="100.97" x2="153.559" y2="50.5251" gradientUnits="userSpaceOnUse">
<stop stop-color="#BBB8B5"/>
<stop offset="1" stop-color="#FAF6F2"/>
</linearGradient>
<linearGradient id="paint14_linear_1_995" x1="186.735" y1="27.8393" x2="186.735" y2="299.018" gradientUnits="userSpaceOnUse">
<stop stop-color="#DAD7D3"/>
<stop offset="0.512418" stop-color="#FFFBF7"/>
<stop offset="1" stop-color="#EEEBE7"/>
</linearGradient>
<linearGradient id="paint15_linear_1_995" x1="186.735" y1="11.93" x2="186.735" y2="283.108" gradientUnits="userSpaceOnUse">
<stop stop-color="#DAD7D3"/>
<stop offset="0.512418" stop-color="#FFFBF7"/>
<stop offset="1" stop-color="#EEEBE7"/>
</linearGradient>
<linearGradient id="paint16_linear_1_995" x1="200.599" y1="285.441" x2="163.231" y2="128.777" gradientUnits="userSpaceOnUse">
<stop stop-color="#FAF6F2"/>
<stop offset="0.512418" stop-color="#FFFBF7"/>
<stop offset="0.677314" stop-color="#FFFBF7"/>
<stop offset="0.90099" stop-color="#EBE7E3"/>
<stop offset="1" stop-color="#CCC9C6"/>
</linearGradient>
<linearGradient id="paint17_linear_1_995" x1="148.077" y1="38.5982" x2="122.676" y2="83.2906" gradientUnits="userSpaceOnUse">
<stop stop-color="#791426"/>
<stop offset="0.534653" stop-color="#AF1C3B"/>
<stop offset="1" stop-color="#791426"/>
</linearGradient>
<linearGradient id="paint18_linear_1_995" x1="143.118" y1="35.779" x2="117.714" y2="80.4748" gradientUnits="userSpaceOnUse">
<stop stop-color="#791426"/>
<stop offset="0.534653" stop-color="#AF1C3B"/>
<stop offset="1" stop-color="#791426"/>
</linearGradient>
<linearGradient id="paint19_linear_1_995" x1="155.966" y1="43.0823" x2="130.566" y2="87.7736" gradientUnits="userSpaceOnUse">
<stop stop-color="#791426"/>
<stop offset="0.534653" stop-color="#AF1C3B"/>
<stop offset="1" stop-color="#791426"/>
</linearGradient>
<linearGradient id="paint20_linear_1_995" x1="156.612" y1="396.791" x2="252.09" y2="165.619" gradientUnits="userSpaceOnUse">
<stop stop-color="#791426"/>
<stop offset="0.534653" stop-color="#AF1C3B"/>
<stop offset="1" stop-color="#791426"/>
</linearGradient>
<linearGradient id="paint21_linear_1_995" x1="155.227" y1="116.101" x2="266.596" y2="370.207" gradientUnits="userSpaceOnUse">
<stop stop-color="#791426"/>
<stop offset="0.534653" stop-color="#AF1C3B"/>
<stop offset="1" stop-color="#791426"/>
</linearGradient>
</defs>
</svg>
