<svg width="442" height="519" viewBox="0 0 442 519" fill="none" xmlns="http://www.w3.org/2000/svg">
<path d="M214.278 179.059C202.097 158.997 190.849 140.426 183.63 122.592C181.237 115.36 179.356 108.238 178.194 101.413C174.101 81.8783 175.811 70.4047 183.415 54.5936C183.576 54.2629 183.747 53.9227 183.923 53.5824C187.542 51.5551 192.529 49.6668 198.243 49.1156C210.976 47.8839 232.598 51.0518 240.866 73.8746C249.589 97.9866 230.966 144.998 214.278 179.059ZM292.916 43.0864C292.086 41.5192 289.004 35.8495 287.944 33.9084C287.744 33.549 287.612 33.3141 287.583 33.2614C274.132 9.02485 273.678 13.6162 265.282 12.1593C264.969 12.1065 264.647 12.0251 264.334 11.9484C254.771 9.78689 238.337 3.67622 230.307 0.78144C222.009 -2.19961 200.172 4.213 186.077 5.57412C182.492 5.9144 179.713 6.56143 177.496 7.40973C171.014 9.87796 169.403 14.0715 166.726 17.5079C165.163 19.5208 164.069 20.1295 162.619 20.465C162.589 20.4698 162.55 20.4698 162.531 20.4794C151.566 24.3375 125.661 55.696 131.258 98.969C131.659 103.215 132.567 107.351 133.734 111.401C144.445 152.93 180.289 208.626 189.09 224.432C182.604 239.078 168.763 269.152 164.348 297.477C164.167 298.436 163.097 304.944 163.029 310.408C162.443 324.805 165.193 337.98 173.701 347.441C173.754 347.498 175.371 349.2 175.444 349.276C179.796 353.484 184.924 356.159 190.087 357.764C197.393 360.851 202.951 359.125 208.329 358.229C210.727 359.657 213.237 360.76 215.792 361.617C231.167 366.832 248.368 362.648 256.427 358.229C267.236 354.783 272.164 348.557 275.25 338.905C278.362 329.813 283.124 311.261 272.344 283.804C267.504 271.946 257.765 253.389 242.761 226.416L242.664 226.258C254.693 203.919 286.904 148.645 292.638 132.494C292.95 131.641 293.219 130.816 293.488 129.992C303.226 105.54 309.585 73.194 292.916 43.0864" fill="white"/>
<path d="M205.136 253.962C201.663 247.391 194.063 233.075 192.442 229.672C174.781 263.442 170.425 300.944 170.146 311.843C170.332 320.221 170.146 332.926 182.22 338.337C198.239 316.928 170.146 284.942 205.136 253.962Z" fill="#ACA9A6"/>
<path d="M245.68 141.343C249.812 121.209 260.113 104.042 247.033 76.0571C236.259 53.0187 217.714 44.7753 198.236 49.1174H198.241C210.984 47.8857 232.611 51.0441 240.869 73.8764C249.592 97.9884 230.969 145 214.281 179.061C213.9 179.862 213.484 180.662 213.094 181.458C221.206 195.275 227.844 207.166 235.766 221.208C235.766 221.208 246.442 204.3 250.877 196.641C241.783 175.965 243.102 153.885 245.68 141.343Z" fill="#ACA9A6"/>
<path d="M296.284 75.6777C296.274 74.9828 296.274 74.2734 296.26 73.6073V73.4922C296.255 73.1903 296.24 72.9219 296.24 72.6248C296.128 69.6102 295.913 67.003 295.62 64.8462C295.307 62.7231 294.931 61.1415 294.585 60.0104C293.041 55.4718 289.339 50.0465 285.1 44.8272C276.807 34.614 266.452 25.23 266.13 24.9328C265.475 25.2156 264.806 25.5559 264.113 25.9489C255.268 31.1441 255.473 38.199 224.757 23.7634C220.117 21.5827 212.864 22.963 208.806 23.2266C239.863 45.8624 273.949 44.8943 296.284 75.6777Z" fill="#BCBAB7"/>
<path d="M272.455 160.875C273.642 159.116 274.717 157.481 275.679 155.996C276.827 154.15 277.916 152.262 278.946 150.35C279.415 149.482 279.869 148.605 280.314 147.723C292.924 122.816 296.46 93.7531 296.28 75.6751C280.475 30.6143 234.394 50.71 219.634 22.6153C219.39 22.6297 208.337 23.2624 208.103 23.2863C208.826 24.1921 209.573 25.0836 210.359 25.975C216.21 32.5314 229.915 45.8359 244.655 49.2291C259.405 52.6271 271.772 54.7359 284.216 72.9241C296.661 91.1267 283.425 116.772 271.772 141.958C267.122 152.003 266.658 162.097 265.979 172.061C267.874 169.492 268.284 166.501 270.531 163.539C271.185 162.667 271.825 161.776 272.455 160.875Z" fill="#CCC9C6"/>
<path d="M284.218 72.9294C271.769 54.7316 259.407 52.6229 244.657 49.2296C229.912 45.8412 216.212 32.5272 210.361 25.9708C209.575 25.0889 208.828 24.1879 208.105 23.2917C197.936 24.2646 189.78 32.2588 184.275 43.7037C182.385 47.6385 180.803 51.9758 179.557 56.5672C183.631 53.1069 190.522 49.8575 198.244 49.1194C217.712 44.7724 236.266 53.0159 247.036 76.0638C260.12 104.039 249.815 121.216 245.678 141.34C243.099 153.883 241.785 175.962 250.875 196.638C254.035 191.179 257.449 183.631 265.981 172.066C266.66 162.092 267.119 151.999 271.769 141.963C283.427 116.773 296.658 91.1224 284.218 72.9294Z" fill="#BBB8B5"/>
<path d="M208.814 23.22C208.57 23.2343 208.335 23.268 208.096 23.2776C197.927 24.2649 189.781 32.2446 184.266 43.6991C182.381 47.6387 180.794 51.9712 179.558 56.5721C180.784 55.5321 182.244 54.5163 183.915 53.5817C187.544 51.5592 192.53 49.666 198.245 49.1149C210.978 47.888 232.609 51.051 240.863 73.869C249.591 97.9857 230.968 144.997 214.279 179.059C222.382 192.876 227.349 201.637 236.531 216.346C236.531 216.346 276.234 156.945 276.683 156.064C289.289 131.156 296.312 100.608 294.432 76.1313C291.433 36.8793 266.451 25.2283 266.128 24.9359C265.474 25.2139 264.8 25.5589 264.111 25.9471C255.271 31.1472 255.042 39.4433 224.326 25.0125C221.039 23.4597 216.658 23.0857 212.946 23.0857C211.417 23.0857 209.996 23.1433 208.814 23.22" fill="url(#paint0_linear_1_996)"/>
<path d="M195.971 226.142C182.222 244.958 161.118 345.518 191.8 341.996C239.967 335.377 202.355 238.967 195.971 226.142Z" fill="#9A9794"/>
<path d="M208.814 23.2201C208.57 23.2344 208.335 23.2681 208.096 23.2777C197.927 24.265 189.781 32.2447 184.266 43.6992C182.381 47.6388 180.794 51.9713 179.558 56.5722C180.784 55.5322 182.244 54.5164 183.915 53.5818C187.544 51.5593 192.53 49.6661 198.245 49.115C210.978 47.8881 232.609 51.0511 240.863 73.8691C249.591 97.9858 230.968 144.997 214.279 179.059C222.382 192.876 229.361 206.986 237.298 221.024C237.298 221.024 279.872 148.611 280.312 147.724C292.927 122.812 298.344 93.6485 296.288 75.676C294.187 57.4111 290.549 50.8738 285.977 44.1401C284.38 41.7821 266.451 25.2283 266.128 24.936C265.474 25.214 264.8 25.559 264.111 25.9472C255.271 31.1473 255.042 39.4434 224.326 25.0126C221.039 23.4598 216.658 23.0858 212.946 23.0858C211.417 23.0858 209.996 23.1434 208.814 23.2201" fill="url(#paint1_linear_1_996)"/>
<g opacity="0.279999">
<path d="M228.121 35.4609C215.026 35.5951 205.449 39.7791 205.136 42.7649C266.304 44.7299 271.213 86.7233 211.417 192.838C188.745 233.073 179.739 270.063 179.627 294.913V295.847C179.695 311.515 183.373 322.188 189.4 325.547C191.466 326.698 193.678 327.239 195.866 327.273H196.242C205.703 327.144 214.46 317.395 208.321 304.939C200.682 289.449 207.134 257.496 226.675 222.591C246.211 187.672 314.505 91.6838 272.453 52.6858C258.47 39.7168 242.353 35.5903 229.395 35.4609H228.121Z" fill="url(#paint2_linear_1_996)"/>
</g>
<g opacity="0.330002">
<path d="M199.707 41.4796C203.151 40.3821 206.745 39.7734 210.34 39.4044C213.949 39.0258 217.593 38.9634 221.217 39.1983C228.47 39.6728 235.742 41.4125 242.243 44.8728C248.753 48.2948 254.272 53.5044 258.253 59.663C260.216 62.7591 261.828 66.0565 263.166 69.4545C264.397 72.8765 265.452 76.3559 266.185 79.9217C269.169 94.2231 267.801 109.032 264.773 123.128C261.696 137.276 256.954 150.983 251.42 164.23C245.93 177.51 239.532 190.331 233.032 203.007L223.141 221.895L213.441 240.759C207.2 253.374 201.168 266.074 196.997 279.292C195.942 282.595 195.072 285.93 194.389 289.309C193.656 292.664 193.133 296.072 192.948 299.484C192.523 306.314 193.295 313.277 196.088 319.776L195.248 320.212C191.185 314.178 189.182 306.812 188.723 299.498C188.22 292.166 189.124 284.823 190.623 277.706C192.064 270.56 194.286 263.639 196.684 256.834C199.082 250.019 201.896 243.386 204.797 236.82C216.518 210.623 230.316 185.744 242.551 160.4C245.569 154.045 248.568 147.695 251.22 141.22C253.921 134.76 256.397 128.218 258.395 121.551C262.419 108.266 264.7 94.2614 262.634 80.5447C262.18 77.1228 261.232 73.7679 260.216 70.4657C259.083 67.2019 257.686 64.0292 255.962 61.0289C252.441 55.0764 247.444 49.9579 241.339 46.4257C235.259 42.8695 228.255 40.8757 221.139 40.1329C217.573 39.7638 213.974 39.6824 210.384 39.9076C206.799 40.1425 203.209 40.6025 199.732 41.5611L199.707 41.4796Z" fill="#797775"/>
</g>
<g opacity="0.550003">
<path d="M163.582 303.808C163.582 324.445 173.336 336.513 181.111 341.411C183.597 342.978 187.793 344.076 192.242 344.167H193.419C195.236 344.129 197.073 343.923 198.836 343.501C210.821 340.635 219.896 328.835 220.106 306.88V305.298C220.023 296.528 218.562 286.195 215.373 274.237C214.308 270.235 205.8 252.128 204.111 248.922C200.638 242.356 192.648 226.904 191.021 223.502C177.126 254.323 163.861 292.89 163.582 303.808" fill="url(#paint3_linear_1_996)"/>
</g>
<g opacity="0.440002">
<path d="M184.266 43.6994C182.381 47.6389 180.804 51.9714 179.558 56.5724C180.774 55.5324 182.249 54.5165 183.92 53.5819C187.544 51.5594 192.53 49.6663 198.235 49.1151C210.978 47.8882 232.599 51.0513 240.868 73.8692C249.591 97.986 230.968 144.997 214.279 179.059C222.382 192.876 229.884 205.687 237.801 219.725C237.801 219.725 279.872 148.611 280.312 147.725C292.927 122.817 304.727 76.1314 285.103 44.8256C278.129 33.7018 268.121 25.3578 267.789 25.0654C266.48 25.2571 264.8 25.5592 264.111 25.9474C255.271 31.1474 258.343 35.3696 227.041 22.2089C224.482 21.1306 221.786 20.6513 219.051 20.6513C204.594 20.6513 188.901 34.0757 184.266 43.6994" fill="url(#paint4_linear_1_996)"/>
</g>
<g opacity="0.440002">
<path d="M219.109 22.837C208.926 22.9088 197.522 31.071 193.278 35.7439C188.345 41.1836 180.804 51.9717 179.558 56.5726C183.632 53.1171 190.518 49.8582 198.235 49.1154C210.978 47.8884 232.599 51.0515 240.868 73.8695C249.591 97.9862 230.968 144.998 214.279 179.059C213.888 179.86 213.488 180.665 213.092 181.456C211.417 184.374 191.715 221.556 191.021 223.502C178.85 257.952 167.075 293.25 166.796 304.163C166.796 322.849 173.546 343.822 192.477 344.114H193.278C195.031 344.09 196.877 343.889 198.836 343.501C216.848 339.892 221.327 311.016 218.621 296.14C218.621 296.14 212.809 271.965 212.536 271.462C212.536 271.462 248.297 201.096 250.876 196.639C254.021 191.18 279.872 148.611 280.312 147.725C292.927 122.817 297.494 93.716 296.283 75.6764C295.858 69.3261 289.338 50.0499 285.103 44.8258C276.805 34.6126 264.8 25.5594 264.111 25.9476C255.271 31.1477 256.663 35.4372 224.765 23.7622C223.061 23.1392 221.268 22.8513 219.432 22.837H219.109Z" fill="url(#paint5_linear_1_996)"/>
</g>
<path d="M197.903 45.7413C196.247 45.909 190.464 47.0161 186.948 48.1616L185.048 51.0178L183.915 53.582C187.544 51.5595 192.53 49.6664 198.245 49.1152C210.978 47.8883 232.609 51.0514 240.863 73.8693C249.591 97.9861 230.968 144.997 214.279 179.059C213.918 179.802 213.547 180.535 213.185 181.273C215.871 183.488 217.986 185.17 217.986 185.17C218.489 184.355 218.797 183.684 219.246 182.845C236.428 147.705 253.249 97.9382 244.126 72.7431C240.575 62.9516 234.441 55.6189 225.889 50.9604C225.351 50.6729 222.103 49.1345 220.975 48.7127C220.428 48.4922 219.881 48.291 219.329 48.0993C218.26 47.735 214.934 46.8434 214.387 46.7236C212.306 46.2539 210.147 45.9184 207.959 45.7266C206.328 45.5733 204.662 45.5064 203.016 45.5064C201.292 45.5064 199.563 45.5783 197.903 45.7413" fill="url(#paint6_linear_1_996)"/>
<path d="M236.534 216.346C235.196 214.146 234.4 212.938 234.395 212.933C233.892 212.099 233.418 211.309 232.93 210.508C214.409 177.832 194.468 149.378 183.625 122.596C181.237 115.364 179.356 108.237 178.189 101.422C174.101 81.8774 175.811 70.4037 183.415 54.5975C190.727 39.3855 212.837 20.4017 225.208 26.2152C251.885 38.7481 255.436 32.6997 261.868 27.5524C262.068 27.4038 262.571 27.0396 262.776 26.8527C262.918 26.7472 263.734 26.2296 263.87 26.1338C333.81 78.8868 258.835 180.846 236.534 216.346ZM193.862 339.968C192.021 340.251 190.258 340.299 188.573 340.126C185.784 339.762 182.99 338.688 180.319 336.882C176.577 334.351 173.798 330.613 172.367 326.381C168.025 313.618 168.934 288.226 192.162 230.728C194.58 235.895 196.856 240.755 197.857 242.748C211.298 269.439 214.527 293.92 214.541 308.538C213.091 326.937 204.055 338.094 193.862 339.968M292.916 43.0854C292.086 41.523 289.009 35.8581 287.944 33.9075C287.744 33.5432 287.612 33.3084 287.583 33.2557C274.132 9.0239 273.678 13.6249 265.272 12.1679C264.974 12.1152 264.647 12.0241 264.334 11.9522C254.771 9.79553 238.327 3.67526 230.297 0.79007C222.009 -2.19577 200.172 4.21205 186.077 5.56838C182.482 5.91824 179.713 6.56044 177.496 7.40395C171.014 9.87698 169.403 14.0706 166.726 17.5069C165.163 19.5151 164.059 20.1333 162.614 20.4592C162.589 20.4688 162.55 20.4688 162.531 20.4832C151.566 24.3365 125.661 55.6998 131.258 98.9633C131.649 103.21 132.567 107.351 133.729 111.405C144.445 152.929 180.289 208.634 189.09 224.431C182.604 239.082 168.763 269.151 164.348 297.471C164.167 298.43 163.097 304.953 163.029 310.397V310.407C162.438 324.804 165.183 337.989 173.701 347.445C173.754 347.497 175.371 349.203 175.449 349.28C179.791 353.479 184.924 356.162 190.092 357.773C197.393 360.854 202.951 359.124 208.319 358.223C210.727 359.661 213.237 360.754 215.796 361.617C231.167 366.836 248.368 362.642 256.427 358.223C267.236 354.782 272.154 348.556 275.25 338.909C278.361 329.822 283.123 311.26 272.349 283.807C267.499 271.945 257.765 253.383 242.761 226.415L242.664 226.257C254.688 203.918 286.899 148.649 292.643 132.493C292.95 131.645 293.219 130.82 293.487 130.001C303.226 105.544 309.585 73.1883 292.916 43.0854" fill="#EFECE8"/>
<path d="M263.941 173.778C262.93 175.378 260.352 179.164 257.143 183.833C249.143 197.113 241.538 208.376 236.542 216.332C238.168 218.905 241.792 224.7 243.34 227.46C243.14 227.11 242.955 226.77 242.764 226.416L242.662 226.257C243.433 224.829 244.293 223.257 245.221 221.565C245.255 212.584 260.825 180.756 263.941 173.778Z" fill="#DAD7D3"/>
<path d="M230.197 6.72125C224.292 3.61559 216.756 3.86481 209.571 5.09653C207.378 5.47515 202.138 6.46244 202.138 6.46244C202.138 6.46244 212.731 9.01694 221.191 11.9501C226.641 13.9965 235.784 17.4616 246.803 11.7584L247.008 11.2935C241.928 10.7615 235.809 9.67354 230.197 6.72125Z" fill="#BBB8B5"/>
<path d="M195.725 9.17765C193.302 10.1218 191.182 10.9508 189.678 11.7656C169.8 22.5827 164.154 33.2895 163.211 34.157C162.645 37.924 161.775 40.8142 161.346 45.396C165.023 47.2555 182.855 43.8479 194.709 34.6891C196.179 33.4813 197.727 32.3264 199.339 31.2288C199.964 30.7544 200.535 30.4666 201.014 30.112C201.092 30.0832 201.161 29.9348 201.234 29.906C208.013 23.9631 215.989 9.39341 223.447 12.9927C224.042 13.2803 224.633 13.5438 225.21 13.7834C224.331 13.285 223.447 12.7915 222.553 12.317C217.21 9.50369 211.554 7.45235 205.41 7.45235C202.318 7.45235 199.095 7.97468 195.725 9.17765Z" fill="url(#paint7_linear_1_996)"/>
<path d="M166.332 21.266C165.448 23.4275 164.715 25.5123 164.217 28.1866C163.87 30.0222 163.538 32.0256 163.216 34.1679C175.748 18.908 188.378 12.3804 189.687 11.7717C191.153 11.0624 195.177 8.35454 196.965 7.77462C183.367 11.3931 175.777 16.8328 167.655 19.2435C167.294 19.5646 166.542 20.758 166.332 21.266Z" fill="#F6F2EE"/>
<path d="M232.918 26.5557C212.141 15.1251 201.431 29.6613 201.426 29.6661C201.362 29.6853 201.299 29.8866 201.24 29.9105C193.855 36.3902 186.466 45.4196 183.408 54.5976C190.73 39.3809 212.84 20.3971 225.211 26.2154C254.467 39.956 255.937 31.3915 263.873 26.1339C258.076 29.5703 253.28 37.7514 232.918 26.5557Z" fill="#EBE7E3"/>
<path d="M261.829 27.146C248.193 32.7438 238.986 21.7734 225.213 13.7888C224.632 13.5395 224.046 13.2855 223.45 12.9884C213.882 8.31073 197.779 33.1128 197.818 33.0937C200.895 30.8699 212.143 15.1259 232.92 26.5565C253.277 37.7522 256.31 31.3923 261.844 27.5677C262.122 27.3808 263.875 26.1347 263.875 26.1347C263.875 26.1347 262.107 26.9351 261.844 27.1364L261.829 27.146Z" fill="#FFFBF7"/>
<path d="M194.708 34.6886C182.845 43.5407 165.023 47.2502 161.35 45.4003C159.733 62.8887 155.855 85.5006 159.802 111.05C161.526 122.208 163.831 134.084 165.746 145.836C160.881 108.299 159.85 63.2386 194.708 34.6886Z" fill="#EFECE8"/>
<path d="M177.496 7.40757C171.015 9.88059 169.403 14.0694 166.726 17.5057C165.154 19.5187 164.06 20.1369 162.614 20.4628C163.605 20.2567 164.778 19.9836 166.111 19.6625C169.73 18.771 172.797 17.453 176.387 15.9002C179.684 14.472 183.415 12.8521 188.206 10.935C190.868 9.87101 196.495 7.86288 199.459 7.07688C202.463 6.2765 210.268 4.97289 210.693 4.89141C210.693 4.89141 213.692 4.51279 214.663 4.36901C214.385 4.38818 181.637 6.22378 177.496 7.40757Z" fill="#EFECE8"/>
<path d="M213.844 4.41883C213.151 4.46676 181.634 6.22549 177.497 7.40928C171.021 9.88231 169.404 14.076 166.728 17.5028C165.155 19.5205 164.061 20.1386 162.62 20.4645C163.607 20.2585 164.779 19.9902 166.103 19.6595C169.727 18.7729 172.799 17.45 176.388 15.8924C179.68 14.469 183.417 12.8587 188.213 10.9368C190.865 9.87283 196.491 7.85508 199.451 7.06908C202.465 6.27829 209.966 4.99863 210.689 4.89798C211.686 4.759 213.693 4.50973 214.665 4.37554C214.387 4.38513 214.113 4.39487 213.844 4.41883" fill="url(#paint8_linear_1_996)"/>
<path d="M261.032 350.361C260.71 351.027 260.456 351.607 260.124 352.182C258.986 354.373 257.75 356.405 256.427 358.226C267.299 354.756 272.163 348.655 275.25 338.902C263.733 350.769 261.032 350.361 261.032 350.361Z" fill="#D2CFCB"/>
<path d="M235.768 353.615C227.108 349.891 220.148 357.195 215.797 361.624C231.172 366.833 248.369 362.645 256.432 358.221C257.746 356.404 258.987 354.377 260.125 352.187C255.577 359.606 244.144 357.219 235.768 353.615Z" fill="#DEDBD7"/>
<path d="M209.154 340.963C213.54 332.489 215.865 317.138 214.541 308.54C213.071 326.882 204.036 338.092 193.867 339.966C192.026 340.253 190.253 340.297 188.578 340.124C185.784 339.76 182.995 338.691 180.314 336.884C179.869 336.582 179.444 336.256 179.024 335.926C171.264 333.659 165.017 327.208 163.18 319.309C163.166 319.228 163.132 319.161 163.117 319.084C163.195 320.369 163.317 321.648 163.474 322.909L163.503 323.182C163.981 326.997 164.787 330.658 165.989 334.104C174.541 349.302 199.152 360.287 209.154 340.963Z" fill="#EBE7E3"/>
<path d="M193.863 339.966C192.021 340.254 190.258 340.297 188.573 340.125C185.789 339.76 182.991 338.692 180.319 336.885C178.273 335.495 176.51 333.75 175.093 331.747C168.075 324.615 164.207 311.896 163.586 303.259L163.562 302.943V302.948V302.943V302.957C163.298 305.248 163.059 307.937 163.03 310.405V310.415C162.815 315.644 163.044 320.709 163.826 325.502C163.855 325.588 163.87 325.679 163.884 325.78C171.655 340.278 193.218 354.737 207.572 330.319C203.841 335.72 198.996 339.022 193.863 339.966Z" fill="#F2EFEA"/>
<path d="M287.586 33.2575C274.136 9.02094 273.681 13.6171 265.276 12.1649C253.896 12.764 241.178 20.5569 225.212 13.7897C247.683 26.9887 266.609 -1.48461 287.894 33.8183C287.909 33.847 288.158 34.3071 288.177 34.3359C288.084 34.1777 288.016 34.0339 287.938 33.9093C287.747 33.5451 287.616 33.3102 287.586 33.2575Z" fill="#E7E4E0"/>
<path d="M263.872 26.1293C263.999 26.0527 264.141 25.9712 264.273 25.8898C269.318 22.6307 279.164 20.9102 287.946 33.9031C275.047 12.4702 263.027 14.44 250.558 16.4194C242.416 17.7134 234.084 19.0027 225.21 13.7834C237.708 21.6866 251.921 33.4046 263.872 26.1293" fill="url(#paint9_linear_1_996)"/>
<path d="M190.092 357.768C195.743 354.303 200.564 349.457 204.398 343.836C193.716 353.469 170.59 350.344 163.796 325.321C165.159 333.78 168.246 341.377 173.701 347.44C173.755 347.502 175.372 349.203 175.45 349.275C179.792 353.483 184.925 356.157 190.092 357.768Z" fill="#CCC9C6"/>
<path d="M230.302 0.786273C222.009 -2.19957 200.177 4.21783 186.077 5.56937C182.487 5.91444 179.708 6.56625 177.501 7.40496C185.838 5.62688 186.414 7.39538 210.839 4.71627C210.961 4.6971 214.043 4.40475 214.83 4.36161C220.319 4.01175 225.731 4.37599 230.195 6.7244C235.807 9.6719 241.101 10.918 246.185 11.4548C252.51 12.1162 258.508 11.6657 264.33 11.9532C254.776 9.79172 238.332 3.67147 230.302 0.786273Z" fill="#F2EFEA"/>
<path d="M223.891 0.00899294C213.61 0.162359 197.37 4.48541 186.079 5.57335C182.484 5.91363 179.71 6.56541 177.497 7.40892C185.927 5.75065 186.777 7.38999 210.846 4.71567C210.958 4.6965 214.05 4.40409 214.821 4.35616C220.321 4.01109 225.723 4.37524 230.191 6.71886C235.803 9.67595 241.102 10.9126 246.182 11.4446C249.996 11.8519 253.684 11.852 257.298 11.8424C259.677 11.8424 262.016 11.8423 264.336 11.9477C254.768 9.79099 238.328 3.68042 230.309 0.785639C228.883 0.277615 227.08 0.0425417 224.975 0.00899294H223.891Z" fill="url(#paint10_linear_1_996)"/>
<path d="M246.18 11.4501L245.516 11.7808C236.412 16.6022 228.002 14.3641 222.556 12.3176C223.445 12.7873 224.339 13.2761 225.208 13.7937C241.174 20.561 253.892 12.7585 265.272 12.1594C264.974 12.1067 264.647 12.0252 264.335 11.9485C258.513 11.661 252.515 12.1163 246.18 11.4501Z" fill="#EBE7E3"/>
<path d="M263.941 284.939C253.602 240.171 231.106 211.022 211.291 187.14C194.47 166.886 185.323 145.041 181.112 125.276C181.528 129.81 181.909 134.564 182.221 139.405C186.055 166.862 196.487 199.476 227.179 236.38C255.067 269.905 260.972 274.477 263.941 284.939Z" fill="#FFFBF7"/>
<path d="M288.461 34.8553C288.461 34.8649 288.784 35.5886 288.784 35.5886C288.862 35.7611 290.718 40.0601 290.786 40.2279C295.968 52.1617 290.61 61.9914 289.585 63.6832C297.062 89.6452 289.223 119.35 277.082 146.352C271.792 158.181 271.987 168.782 270.454 176.258C270.468 176.22 270.493 176.182 270.508 176.153C280.593 157.85 289.814 140.443 292.642 132.497C292.95 131.643 293.218 130.819 293.487 129.995C303.221 105.543 309.585 73.1919 292.921 43.0891C292.193 41.728 289.78 37.2804 288.461 34.8553Z" fill="#EBE7E3"/>
<path d="M263.874 26.1352C271.239 31.6947 276.353 38.2511 280.739 44.7643C279.249 34.4361 276.592 24.1846 267.786 25.0616C266.677 25.1815 265.647 25.378 264.592 25.8093C264.558 25.8189 264.465 25.6799 263.874 26.1352Z" fill="#DEDBD7"/>
<path d="M291.014 40.0079C290.945 39.8402 285.778 32.4834 282.838 29.5455C279.605 26.1092 274.916 24.0627 270.813 24.1681C267.033 24.264 265.548 25.2561 264.376 25.8216C264.191 25.9031 263.976 26.0708 263.878 26.1379C276.479 22.5865 278.882 34.5443 280.743 44.7575C284.792 50.7723 287.698 57.1178 289.588 63.7125C290.306 62.3897 295.664 51.7548 291.014 40.0079Z" fill="#CCC9C6"/>
<path d="M215.796 361.618C221.271 357.228 225.779 352.44 231.547 352.627C227.396 352.455 211.908 355.719 208.319 358.225C210.731 359.653 213.242 360.756 215.796 361.618Z" fill="#D2CFCB"/>
<path d="M268.727 315.312C268.566 311.133 268.087 306.997 267.301 303C265.733 295.034 262.886 287.62 258.505 281.552C242.353 259.199 203.642 217.987 193.6 185.881C196.516 206.005 191.544 230.204 199.759 242.089C202.553 245.622 205.253 249.106 207.832 252.518C227.535 275.59 250.465 288.971 249.742 321.701C249.357 339.041 243.413 345.228 234.724 353.222C235.061 353.332 235.408 353.462 235.769 353.615C244.155 357.2 255.579 359.601 260.121 352.187C265.987 340.929 269.328 330.505 268.727 315.312Z" fill="#EFECE8"/>
<path d="M251.251 324.475C256.462 282.381 231.695 259.831 208.1 233.299C205.37 230.318 197.487 226.925 200.578 233.913C213.897 254.459 222.781 274.392 224.891 282.683C237.331 331.621 223.665 347.101 208.324 358.23C211.909 355.719 227.402 352.455 231.543 352.632C232.559 352.661 233.614 352.848 234.723 353.222C241.79 346.713 246.718 343.291 249.502 332.929C249.898 331.492 250.249 329.891 250.606 328.122C250.835 326.982 251.089 325.774 251.251 324.475Z" fill="#E7E4E0"/>
<path d="M233.054 293.711C227.296 271.08 213.645 235.753 189.42 204.907C189.049 206.01 186.909 212.667 185.136 217.618C186.748 220.345 188.096 222.645 189.088 224.428C190.333 226.796 191.134 228.439 192.16 230.73C194.577 235.897 196.858 240.757 197.855 242.75C211.3 269.441 214.524 293.917 214.539 308.54C215.54 326.867 206.192 347.897 190.089 357.765C197.395 360.856 202.953 359.126 208.326 358.225C221.435 353.543 245.494 342.654 233.054 293.711Z" fill="#F2EFEA"/>
<path d="M151.221 34.0518C134.967 55.8537 130.947 91.2046 137.443 109.968C145.741 133.955 149.453 145.817 169.951 177.909C171.837 180.856 159.328 131.799 156.593 119.865C154.093 108.947 146.503 64.3367 162.552 29.1729C164.042 25.909 165.741 22.3146 167.656 19.2473C161.214 22.5638 155.743 27.9939 151.221 34.0518" fill="url(#paint11_linear_1_996)"/>
<path d="M202.52 23.2868C195.067 26.8094 188.625 32.043 183.203 37.9715C177.767 43.9193 173.552 50.8303 170.602 58.1967C164.722 73.0108 164.273 89.3874 166.846 105.069C169.269 120.866 175.081 136.135 178.392 152.234C180.073 160.257 181.01 168.505 180.742 176.715C180.454 184.92 178.983 193.058 176.414 200.779C178.021 192.809 178.871 184.738 178.539 176.715C178.295 168.692 176.913 160.77 174.983 152.972C173.005 145.184 170.588 137.463 168.209 129.67C165.904 121.858 163.75 113.912 162.441 105.75C161.181 97.5973 160.678 89.282 161.357 81.0002C161.762 76.8689 162.343 72.7472 163.379 68.7118C164.361 64.6716 165.674 60.6889 167.408 56.8978C170.788 49.2679 175.638 42.2945 181.635 36.505C187.662 30.7969 194.661 25.9371 202.52 23.2868Z" fill="#CCC9C6"/>
<path d="M185.626 216.979C187.282 212.652 188.342 208.156 188.845 203.593C189.25 199.021 189.353 194.43 189.006 189.843C188.513 180.665 187.082 171.54 185.68 162.415C184.327 153.28 182.764 144.164 181.509 135.005C180.185 125.856 179.746 116.673 178.852 107.471L187.36 162.165C188.762 171.305 190.066 180.493 190.383 189.786C190.569 194.43 190.291 199.088 189.724 203.699C188.923 208.29 187.658 212.8 185.626 216.979Z" fill="#CCC9C6"/>
<path d="M162.223 29.9091C160.406 35.7274 158.765 41.5888 157.563 47.5318C156.274 53.4651 155.326 59.456 154.731 65.4756C153.495 77.51 153.495 89.6642 154.77 101.684C155.966 113.719 158.828 125.533 161.886 137.294C163.395 143.189 165.031 149.055 166.403 155.008C167.688 160.955 168.914 167.008 168.728 173.119C168.445 167.028 167.029 161.099 165.412 155.242C163.81 149.381 162.022 143.563 160.313 137.716C156.855 126.031 154.037 114.078 152.64 101.905C152 95.8132 151.722 89.693 151.8 83.5775C151.883 77.4621 152.205 71.3466 153.021 65.2886C153.832 59.2211 154.994 53.2159 156.489 47.2921C158.057 41.3924 159.922 35.5692 162.223 29.9091Z" fill="#CCC9C6"/>
<path d="M150.607 34.9178C147.882 39.974 146.036 45.4185 144.532 50.9205C143.042 56.4273 142.002 62.0395 141.176 67.6661C139.623 78.9433 139.442 90.3834 140.639 101.661C141.831 112.938 144.58 124.066 149.176 134.433C151.526 139.571 154.178 144.699 156.791 149.75C159.36 154.845 162.324 159.738 165.089 164.809C163.233 162.585 161.479 160.299 159.775 157.955C158.119 155.597 156.512 153.182 155.003 150.718C153.533 148.226 152.117 145.71 150.798 143.151C149.46 140.62 148.19 138.004 147.018 135.344C142.392 124.704 139.696 113.326 138.573 101.867C137.411 90.3882 138.046 78.8091 139.838 67.4696C140.771 61.8047 142.06 56.1829 143.784 50.7048C145.513 45.2364 147.584 39.8111 150.607 34.9178Z" fill="#DEDBD7"/>
<path d="M163.211 34.1654C168.54 26.2191 175.9 19.7203 183.905 14.3141C187.939 11.6302 192.296 9.36329 196.97 7.77212C198.655 7.22096 200.364 6.74169 202.142 6.46372C202.836 6.34869 203.568 6.29118 204.277 6.24325C205.546 6.18574 206.831 6.16178 208.111 6.37266C209.41 6.52602 210.65 6.9334 211.788 7.31681C221.102 10.571 229.171 16.0347 237.332 20.9664C241.42 23.425 245.591 25.7878 250.118 27.2016C252.365 27.911 254.729 28.3471 257.093 28.1889C259.457 28.0452 261.796 27.3454 263.877 26.1377C261.918 27.5275 259.589 28.4477 257.147 28.7401C254.7 29.0612 252.214 28.7545 249.835 28.1698C245.068 26.9285 240.736 24.6376 236.507 22.3419C228.086 17.6882 220.101 12.2485 211.095 9.29619C209.947 8.94153 208.892 8.58687 207.793 8.43351C206.694 8.23701 205.546 8.24659 204.404 8.27535C202.118 8.39996 199.817 8.91277 197.59 9.61251C193.107 11.0359 188.892 13.2789 184.818 15.7088C180.755 18.1674 176.906 20.9903 173.287 24.072C169.624 27.1106 166.205 30.4511 163.211 34.1654Z" fill="#CCC9C6"/>
<path d="M263.874 26.1351C265.798 24.5871 268.26 23.5614 270.858 23.3841C273.442 23.202 276.084 23.8011 278.394 24.9561C282.502 26.9978 285.54 29.8974 287.933 33.9088C288.001 34.0239 288.255 34.4744 288.48 34.8961C288.626 35.1645 288.763 35.4281 288.841 35.5719C291.42 40.2543 293.076 44.7882 293.276 49.763C293.535 54.7186 292.387 59.6551 289.593 63.7193C291.811 59.4778 292.587 54.594 292.148 49.8397C291.664 45.0806 290.072 40.4604 287.606 36.3579C285.169 32.2697 281.818 28.6369 277.662 26.3316C275.581 25.2005 273.266 24.5056 270.887 24.4337C268.499 24.3666 266.077 24.9657 263.874 26.1351Z" fill="#BBB8B5"/>
<path d="M191.073 203.936C193.374 214.437 196.929 224.626 201.936 234.101C204.383 238.87 207.162 243.461 210.219 247.87L214.898 254.47L217.233 257.805C218.004 258.917 218.698 260.096 219.435 261.227C222.4 265.776 224.93 270.573 227.343 275.433C229.619 280.35 231.567 285.416 233.086 290.616C234.537 295.821 235.616 301.131 236.1 306.504C236.627 311.872 236.71 314.134 236.51 319.487C236.378 314.124 236.134 311.881 235.372 306.585C234.654 301.28 233.531 296.041 231.943 290.942C230.327 285.843 228.231 280.906 225.985 276.056C223.562 271.282 221.027 266.552 218.048 262.076C217.311 260.954 216.607 259.809 215.845 258.706L213.506 255.419C211.967 253.233 210.356 251.029 208.842 248.786C205.799 244.285 203.03 239.598 200.612 234.753C195.806 225.028 192.553 214.58 191.073 203.936Z" fill="#CCC9C6"/>
<path d="M188.032 174.998C188.858 182.249 190.787 189.328 192.999 196.273C195.221 203.213 197.888 210.018 201.014 216.599C207.285 229.755 215.29 242.196 225.644 252.534C228.248 255.06 230.968 257.686 233.4 260.476C235.847 263.27 238.074 266.246 240.111 269.347C244.175 275.539 247.286 282.34 249.298 289.433C252.678 301.338 253.122 313.909 251.022 325.996C250.612 328.321 250.099 330.64 249.503 332.931C250.959 325.766 251.681 318.486 251.423 311.225C251.227 303.969 250.118 296.737 247.994 289.812C245.845 282.896 242.831 276.229 238.783 270.186C236.765 267.171 234.553 264.267 232.135 261.549C229.718 258.798 227.08 256.349 224.428 253.699C214.02 243.102 205.879 230.517 199.842 217.135C196.833 210.43 194.269 203.529 192.213 196.498C191.202 192.975 190.318 189.429 189.571 185.844C188.838 182.264 188.203 178.645 188.032 174.998Z" fill="#D2CFCB"/>
<path d="M276.673 156.069C280.546 148.688 283.726 141.034 286.51 133.27C289.299 125.51 291.609 117.588 293.47 109.57C295.301 101.557 296.595 93.4186 297.113 85.2232C297.318 81.1302 297.328 77.0037 296.874 72.9347L296.551 69.8674L295.902 66.8528L295.589 65.3383C295.457 64.8351 295.242 64.3654 295.086 63.8766L294.08 60.9291C298.036 68.3385 298.989 76.975 298.969 85.2711C298.969 89.4551 298.666 93.6295 298.119 97.78C297.606 101.921 296.884 106.038 295.956 110.116C294.163 118.273 291.653 126.268 288.522 134.017C285.367 141.743 281.499 149.239 276.673 156.069Z" fill="#FFFBF7"/>
<path d="M184.491 153.126C184.193 151.722 184.008 150.936 184.008 150.936C184.008 150.936 184.169 151.712 184.491 153.126ZM183.397 214.673C184.203 216.035 184.862 217.103 185.556 218.321C185.878 218.886 186.235 219.476 186.562 220.037C214.079 267.24 257.215 301.675 232.975 338.943C230.812 342.274 228.599 345.691 224.809 349.012C229.19 345.47 232.619 345.892 235.681 346.324C238.905 346.774 241.737 347.229 244.883 343.036C245.772 341.852 246.958 339.94 247.974 337.467C248.521 336.168 249.01 334.735 249.503 332.928C249.503 332.928 262.729 350.445 275.652 337.721C280.004 323.506 281.738 302.092 262.421 278.824C240.443 252.349 226.743 249.674 208.99 219.835C194.948 196.245 186.533 162.045 184.491 153.126C186.552 162.774 193.986 201.556 183.397 214.673" fill="url(#paint12_linear_1_996)"/>
<path d="M157.687 44.8929C153.736 61.974 151.255 86.9964 155.216 112.546C156.94 123.718 165.37 148.108 167.28 159.864C162.43 122.333 144.237 50.5146 202.523 23.2778C188.643 26.6567 161.36 46.7332 157.687 44.8929" fill="url(#paint13_linear_1_996)"/>
<path d="M223.891 0.00969433C213.61 0.16306 197.37 4.48611 186.078 5.57405C182.484 5.91433 179.71 6.56611 177.497 7.40962C171.021 9.88264 169.404 14.0763 166.728 17.5031C165.155 19.5208 164.061 20.139 162.62 20.4649C162.586 20.4697 162.552 20.4698 162.527 20.4842C151.563 24.3423 125.662 55.7054 131.255 98.969C131.655 103.215 132.569 107.351 133.736 111.401C144.437 152.93 180.291 208.626 189.092 224.432C182.606 239.078 168.764 269.152 164.349 297.472C164.164 298.436 163.099 304.944 163.031 310.393C162.435 324.81 165.189 337.98 173.707 347.441C173.756 347.503 175.373 349.209 175.446 349.281C179.788 353.484 184.926 356.159 190.083 357.769H190.088C197.395 360.846 202.963 359.125 208.321 358.229C210.728 359.657 213.239 360.76 215.793 361.617C231.168 366.832 248.365 362.648 256.429 358.229C267.237 354.783 272.165 348.548 275.252 338.905C278.363 329.818 283.125 311.261 272.351 283.808C267.496 271.946 257.767 253.389 242.753 226.421L242.66 226.258C254.685 203.919 286.9 148.655 292.639 132.494C292.947 131.641 293.22 130.816 293.489 129.992C303.223 105.54 309.587 73.1844 292.918 43.0912C292.087 41.5144 289.01 35.8638 287.946 33.9036C287.75 33.549 287.618 33.3143 287.584 33.2615C274.133 9.02017 273.679 13.6163 265.274 12.1593C264.971 12.1162 264.649 12.0251 264.336 11.9484C254.768 9.79169 238.328 3.68112 230.309 0.78634C228.883 0.278316 227.08 0.0432431 224.975 0.00969433H223.891ZM234.392 212.929C233.894 212.095 233.415 211.31 232.931 210.504C214.411 177.837 194.469 149.379 183.632 122.602C181.233 115.365 179.358 108.238 178.191 101.418C174.103 81.8833 175.807 70.4 183.417 54.6034C190.728 39.3866 212.838 20.4027 225.21 26.2115C238.812 32.6049 246.294 34.1146 251.232 33.5251C255.974 32.95 258.329 30.4146 261.479 27.8841C262.133 27.3234 263.735 26.2353 263.872 26.1299C271.262 31.7133 276.356 38.2314 280.751 44.7495C318.027 100.004 256.487 184.595 236.531 216.347C235.188 214.142 234.402 212.934 234.392 212.929ZM188.569 340.122C185.781 339.763 182.992 338.685 180.31 336.887C176.579 334.352 173.795 330.609 172.359 326.386C168.027 313.609 168.935 288.222 192.159 230.734C194.587 235.891 196.867 240.756 197.854 242.749C211.295 269.44 214.523 293.916 214.543 308.543C213.092 326.933 204.052 338.095 193.859 339.969C192.74 340.142 191.646 340.223 190.577 340.223C189.898 340.223 189.229 340.185 188.569 340.122" fill="url(#paint14_linear_1_996)"/>
<path d="M224.409 0.00436856C214.162 0.0139539 197.556 4.46629 186.078 5.5734C182.484 5.91368 179.71 6.56546 177.497 7.40898C171.021 9.882 169.404 14.0757 166.728 17.5024C165.155 19.5202 164.061 20.1383 162.62 20.4642C162.586 20.469 162.552 20.4692 162.527 20.4835C151.563 24.3416 125.662 55.7048 131.255 98.9684C131.655 103.215 132.569 107.351 133.736 111.401C144.437 152.929 180.291 208.625 189.092 224.431C182.606 239.078 168.764 269.152 164.349 297.472C164.164 298.435 163.099 304.943 163.031 310.402C162.435 324.809 165.189 337.979 173.707 347.44C173.756 347.502 175.373 349.209 175.446 349.281C179.788 353.484 184.926 356.158 190.083 357.768H190.088C197.395 360.845 202.963 359.125 208.321 358.228C210.728 359.657 213.239 360.759 215.793 361.617C221.014 363.385 226.44 364.071 231.652 364.042C241.786 363.97 251.11 361.142 256.429 358.228C267.237 354.783 272.165 348.547 275.252 338.904C278.363 329.818 283.125 311.26 272.351 283.808C267.496 271.946 257.767 253.389 242.753 226.42L242.66 226.257C254.685 203.919 286.9 148.654 292.639 132.493C292.947 131.64 293.22 130.816 293.489 129.991C303.223 105.539 309.587 73.1837 292.918 43.0905C292.087 41.5233 289.01 35.8632 287.946 33.903C287.75 33.5483 287.618 33.3136 287.584 33.2609C274.133 9.01952 273.679 13.6156 265.274 12.1587C264.971 12.1155 264.649 12.0244 264.336 11.9477C254.768 9.79104 238.328 3.68047 230.309 0.785695C228.785 0.239329 226.807 0.00436856 224.511 0.00436856H224.409ZM234.392 212.929C233.894 212.095 233.415 211.309 232.931 210.504C214.411 177.837 194.469 149.378 183.632 122.601C181.233 115.364 179.358 108.238 178.191 101.418C174.103 81.8827 175.807 70.3994 183.417 54.6027C190.728 39.386 212.838 20.4021 225.21 26.2108C238.812 32.6043 246.294 34.114 251.232 33.5245C255.974 32.9493 258.329 30.414 261.479 27.8835C262.133 27.3227 263.735 26.2346 263.872 26.1292C271.262 31.7127 276.356 38.2308 280.751 44.7488C318.027 100.004 256.487 184.594 236.531 216.346C235.188 214.141 234.402 212.934 234.392 212.929ZM188.569 340.122C185.781 339.762 182.992 338.684 180.31 336.887C176.579 334.351 173.795 330.608 172.359 326.386C168.027 313.608 168.935 288.222 192.159 230.734C194.587 235.891 196.867 240.755 197.854 242.749C211.295 269.439 214.523 293.916 214.543 308.543C213.092 326.932 204.052 338.094 193.859 339.968C192.74 340.141 191.646 340.222 190.577 340.222C189.898 340.222 189.229 340.184 188.569 340.122" fill="url(#paint15_linear_1_996)"/>
<path d="M221.303 313.821C221.65 296.999 218.407 280.407 213.034 264.629C207.632 248.823 200.072 233.808 191.324 219.521C186.978 212.341 182.44 205.157 178.186 197.877C173.932 190.578 169.756 183.245 165.791 175.787C157.859 160.897 150.401 145.704 144.804 129.802C148.266 137.489 151.964 145.018 155.983 152.423C159.915 159.857 164.018 167.199 168.208 174.503C176.57 189.121 185.376 203.427 194.274 217.79C203.056 232.288 210.587 247.63 215.545 263.848C218.04 271.938 219.896 280.225 220.932 288.607C221.933 296.985 222.119 305.468 221.303 313.821Z" fill="#E1DEDA"/>
<g opacity="0.429993">
<path d="M155.978 152.421C159.91 159.85 164.022 167.202 168.203 174.501C169.927 177.511 171.666 180.511 173.429 183.502C178.479 191.395 184.13 199.524 190.328 207.408C218.758 243.612 236.624 280.491 223.744 316.082C221.405 322.562 222.582 325.6 225.547 325.725H225.937C234.113 325.399 254.065 305.193 254.387 274.774V273.288C254.167 252.392 244.648 226.847 215.969 199.687C171.387 166.459 144.808 129.809 144.808 129.809C148.266 137.492 151.958 145.022 155.978 152.421" fill="url(#paint16_linear_1_996)"/>
</g>
<path d="M192.16 230.731C191.134 228.44 190.333 226.796 189.088 224.428C182.606 239.08 168.765 269.154 164.345 297.474C164.169 298.432 163.099 304.955 163.031 310.409C163.129 311.382 163.275 312.297 163.466 313.136C167.363 329.642 173.429 332.451 175.954 332.872C174.377 330.955 173.165 328.756 172.364 326.383C168.027 313.615 168.931 288.219 192.16 230.731Z" fill="#F2EFEA"/>
<path d="M272.351 283.803C267.501 271.951 257.772 253.389 242.758 226.411L242.665 226.262C242.665 226.262 232.936 210.509 232.927 210.504C214.411 177.837 194.474 149.383 183.627 122.592C181.238 115.365 179.353 108.238 178.191 101.418C178.181 101.389 178.181 101.365 178.176 101.336C178.166 101.288 178.161 101.25 178.147 101.212C179.202 107.845 178.928 114.713 181.107 125.281C185.326 145.046 194.474 166.886 211.285 187.145C231.11 211.017 253.606 240.175 263.945 284.939C265.274 290.695 267.262 303.53 268.048 315.435C268.995 329.789 266.26 339.811 261.039 350.378C261.166 350.556 264.307 354.658 273.406 342.192C274.138 341.105 274.72 340.002 275.252 338.905C278.363 329.818 283.13 311.265 272.351 283.803Z" fill="#FFFBF7"/>
<path d="M143.953 67.1213C143.953 74.5307 150.073 80.5264 157.624 80.5264C165.18 80.5264 171.299 74.5307 171.299 67.1213C171.299 59.7118 165.18 53.7015 157.624 53.7015C150.073 53.7015 143.953 59.7118 143.953 67.1213ZM159.451 60.7756C158.068 60.2532 157.199 58.9592 157.189 57.5789C157.331 57.5693 157.472 57.5406 157.624 57.5406C159.866 57.5406 161.907 58.3027 163.553 59.5584C162.894 60.4642 161.819 61.0008 160.701 61.0008C160.281 61.0008 159.861 60.9289 159.451 60.7756M148.53 63.6753C149.365 61.5618 150.947 59.8364 152.945 58.7581C153.253 59.2613 153.438 59.8601 153.438 60.4784C153.438 62.3954 151.861 63.9436 149.912 63.9436C149.419 63.9436 148.964 63.8575 148.53 63.6753ZM155.524 70.5192L153.765 67.2699C153.57 66.9008 153.638 66.4503 153.922 66.1483L156.54 63.5028C156.833 63.2008 157.292 63.1146 157.668 63.3015L161.043 64.9212C161.429 65.1033 161.643 65.5012 161.58 65.9181L161.057 69.5653C160.999 69.9822 160.672 70.3084 160.261 70.3802L156.564 71.0127C156.51 71.0223 156.447 71.0223 156.393 71.0223C156.032 71.0223 155.7 70.8355 155.524 70.5192M164.237 67.797C164.237 66.1579 165.404 64.8015 166.948 64.4277C167.211 65.2904 167.387 66.1771 167.387 67.1213C167.387 68.5111 167.075 69.829 166.518 71.0223C165.189 70.5335 164.237 69.2731 164.237 67.797M148.163 69.3833C148.447 69.3114 148.745 69.2634 149.057 69.2634C150.996 69.2634 152.583 70.8069 152.583 72.7239C152.583 73.5195 152.31 74.2287 151.851 74.8134C150.034 73.4954 148.71 71.5975 148.163 69.3833ZM156.75 76.6153C156.969 74.9139 158.435 73.6009 160.227 73.6009C161.404 73.6009 162.444 74.1809 163.089 75.058C161.536 76.0932 159.656 76.697 157.624 76.697C157.321 76.697 157.033 76.6441 156.75 76.6153" fill="url(#paint17_linear_1_996)"/>
<path d="M159.245 42.7932L162.4 48.1612L167.871 45.0649L164.716 39.6971L159.245 42.7932Z" fill="url(#paint18_linear_1_996)"/>
<path d="M151.48 90.9117L156.032 95.2202L160.422 90.7727L155.875 86.4496L151.48 90.9117Z" fill="url(#paint19_linear_1_996)"/>
<path d="M243.217 316.278C242.729 316.906 242.465 317.956 242.348 319.302C242.231 320.668 242.28 321.89 242.382 323.055C241.869 322.504 240.853 322.322 240.311 322.729C240.453 323.271 240.638 323.764 240.712 324.344C240.77 324.747 240.77 325.192 240.775 325.624C239.823 326.309 238.724 327.239 238.573 328.974C238.548 329.252 238.558 329.506 238.558 329.77C238.201 328.667 237.581 327.541 237.273 326.582C236.995 325.729 236.497 324.91 236.008 324.478C235.867 324.339 235.681 324.296 235.51 324.196C235.403 324.478 235.32 324.78 235.212 325.039C235.168 325.169 235.149 325.303 235.095 325.561C234.768 325.231 234.504 324.929 234.177 324.694C233.933 324.522 233.64 324.445 233.342 324.387C232.717 324.248 232.609 324.397 232.609 325.293C232.609 325.585 232.594 325.897 232.585 326.28C231.222 325.768 230.465 326.851 230.494 326.879C230.782 327.143 231.036 327.306 231.1 327.713C231.163 328.097 231.007 328.701 230.812 329.223C230.421 330.258 230.68 332.017 231.437 332.703C231.979 333.196 232.985 333.105 233.693 332.43C234.514 331.682 234.768 329.372 234.309 328.653C234.03 328.221 233.835 328.217 233.293 328.581C233.434 328.883 233.718 329.175 233.679 329.515C233.64 329.899 233.366 330.431 233.088 330.733C232.707 331.135 232.277 331.174 231.969 330.843C231.432 330.254 231.422 329.233 231.92 328.274C232.062 328.011 232.414 327.517 232.594 327.383C233.366 326.831 234.279 326.673 234.841 327.066C235.466 327.503 235.847 328.207 235.925 329.252C236.072 331.073 235.11 333.911 235.198 335.722C235.261 337.4 236.482 338.061 237.903 338.334C238.529 338.454 240.145 338.636 240.477 338.756C242.167 339.35 243.632 339.259 244.531 337.73C245.454 336.163 245.957 333.206 246.944 331.648C247.515 330.762 248.175 330.311 248.937 330.186C249.63 330.095 250.363 330.623 250.792 331.466C250.9 331.668 250.968 332.257 250.978 332.563C250.959 333.637 250.465 334.543 249.718 334.816C249.274 334.974 248.907 334.764 248.766 334.227C248.663 333.839 248.673 333.244 248.824 332.875C248.946 332.563 249.327 332.439 249.596 332.228C249.288 331.658 249.112 331.567 248.663 331.83C247.916 332.271 247.134 334.394 247.515 335.42C247.813 336.335 248.673 336.863 249.381 336.666C250.392 336.388 251.354 334.998 251.51 333.882C251.579 333.345 251.735 332.741 251.96 332.42C252.209 332.08 252.507 332.051 252.902 331.955C252.932 331.945 252.956 331.878 253.01 331.797C252.79 330.623 251.97 330.814 251.325 330.498C251.491 330.139 251.623 329.87 251.769 329.597C252.194 328.801 252.165 328.619 251.54 328.48C251.252 328.403 250.959 328.327 250.651 328.38C250.26 328.432 249.874 328.6 249.43 328.744C249.498 328.49 249.542 328.361 249.567 328.236C249.606 327.948 249.669 327.637 249.708 327.344C249.63 327.354 249.562 327.354 249.493 327.344C249.366 327.344 249.244 327.335 249.112 327.373C248.487 327.546 248.067 327.929 247.271 328.389C246.529 328.821 245.571 329.908 244.795 331.001C244.888 330.623 244.995 330.254 245.137 329.913C245.64 328.653 245.547 327.877 245.049 327.273L244.482 326.371C244.541 326.237 244.604 326.084 244.663 325.907C244.927 325.063 245.332 324.406 245.65 323.573C245.508 323.041 244.541 322.547 243.901 322.768C244.262 321.627 244.512 320.385 244.521 318.938C244.512 317.615 244.194 316.8 243.833 316.173C243.779 316.082 243.701 316.043 243.623 316.043C243.486 316.043 243.334 316.144 243.217 316.278M218.387 331.945C218.167 331.193 217.942 330.431 217.703 329.611C216.687 329.808 216.081 330.57 215.642 331.385C215.212 332.195 214.987 333.096 214.655 333.925C214.245 333.58 213.835 333.216 213.415 332.851C212.106 334.371 211.891 335.962 213.078 337.821C214.05 339.336 215.197 340.726 216.296 342.101C217.547 343.678 218.816 345.183 218.904 347.244C218.997 349.17 217.942 350.852 216.272 352.228C214.948 353.325 213.478 353.733 211.632 353.742C211.573 353.742 211.417 354.279 211.388 354.38C211.554 355.132 212.931 354.792 213.625 354.62C218.836 353.326 222.201 349.443 220.638 345.513C220.037 343.951 218.006 341.469 217.229 339.954C216.58 338.713 215.998 337.457 216.277 335.99C216.623 334.26 218.343 332.573 220.526 332.928C221.766 333.124 222.748 334.131 222.738 335.353C222.729 336.139 222.045 337.179 221.254 337.519C220.741 337.73 220.208 337.802 219.813 337.438C219.451 337.083 219.451 336.642 219.691 336.163C219.73 336.086 219.74 336 219.759 335.909C218.958 335.971 217.952 337.045 218.064 337.884C218.274 339.35 221.635 340.519 223.178 339.523C224.594 338.622 225.356 336.513 224.848 334.816C224.355 333.177 223.603 332.319 222.015 331.816C221.845 331.749 221.698 331.682 221.571 331.615C221.889 330.829 222.147 330.148 222.416 329.4C222.318 329.396 222.216 329.396 222.113 329.396C220.365 329.396 219.383 330.474 218.387 331.945M230.333 337.979C229.317 338.406 228.096 339.599 227.867 340.424C228.365 340.294 228.829 340.131 229.259 340.059C230.191 339.944 230.821 340.395 230.988 341.248C231.124 341.972 230.587 343.242 229.84 343.86C228.629 344.871 227.349 345.763 226.094 346.697C224.633 347.756 223.979 349.012 224.086 350.44C224.218 352.348 225.854 353.709 226.143 353.982C223.608 357.141 220.599 359.776 217.542 362.173C218.382 362.412 219.227 362.642 220.067 362.825C222.821 360.524 225.508 358.08 228.106 355.286C230.314 356.239 233.014 356.45 235.134 354.85C236.497 353.814 237.127 352.559 237.674 351.241C238.089 350.244 238.406 349.233 238.758 348.217C239.247 346.836 240.267 345.724 241.337 345.312C242.319 344.938 242.905 345.413 242.993 346.669C242.997 346.836 243.007 346.99 243.027 347.268C243.701 346.429 243.95 345.581 244.135 344.79C244.463 343.28 244.101 342.355 243.457 341.751C242.69 341.047 241.4 340.994 240.087 341.972C239.574 342.331 238.919 343.06 238.446 343.769C237.82 344.708 237.312 345.657 236.834 346.616C235.281 348.633 234.021 349.947 233.161 350.733C234.113 349.333 234.841 347.848 235.476 346.347C236.028 345.053 236.482 343.74 236.922 342.417C236.98 342.254 237.005 342.082 237.073 341.78C236.839 342 236.707 342.082 236.604 342.211C234.778 344.382 232.717 346.352 230.67 348.279C230.465 348.466 230.309 348.677 230.118 348.883C230.206 347.847 230.978 346.505 231.784 345.341C232.086 345.039 232.37 344.737 232.638 344.411C233.478 343.438 234.206 342.264 234.665 341.128C235.251 339.638 234.748 338.684 233.869 338.104C233.356 337.759 232.785 337.567 232.135 337.567C231.603 337.567 230.997 337.701 230.333 337.979M209.468 341.66C208.579 341.607 206.797 341.54 206.777 341.607C211.769 344.085 213.239 347.493 214.05 351.663C215.124 351.15 216.184 348.006 215.998 346.352C215.749 344.056 214.45 342.384 212.316 340.793C212.257 341.109 212.218 341.291 212.159 341.531C210.997 341.008 210.269 339.901 208.789 339.666C209.029 340.385 209.244 341.008 209.468 341.66M254.451 347.665C254.368 347.622 254.241 347.574 254.104 347.502C253.142 346.97 249.532 346.175 247.681 348.125C246.407 349.51 244.883 352.99 247.217 354.49C247.789 354.845 248.204 355.19 249.112 354.754C249.869 354.375 250.372 353.685 250.724 352.894C250.792 352.75 250.802 352.592 250.856 352.367C250.709 352.477 250.631 352.52 250.558 352.602C249.806 353.407 249.366 353.618 249 353.373C248.634 353.153 248.346 351.825 248.761 351.092C249.869 349.141 251.96 348.485 252.995 349.108C253.816 349.606 254.001 350.68 253.342 352.276C252.57 354.14 251.276 355.636 249.718 356.268C248.297 356.843 246.9 357.064 245.503 357.246C244.634 357.347 243.774 357.145 242.871 356.954C241.733 356.7 240.546 356.45 239.266 356.8C235.813 357.768 231.784 360.884 229.493 364.008C229.952 364.032 230.406 364.042 230.865 364.042C231.53 363.275 232.321 362.523 233.249 361.833C235.906 359.82 238.538 358.784 241.019 358.895C242.978 358.995 244.717 359.36 246.534 359.436C247.647 359.489 248.736 359.556 249.894 359.355C251.52 359.067 253.098 357.85 254.47 355.636C254.031 355.544 253.625 355.463 253.171 355.353C255.076 353.675 256.595 351.715 257.093 349.118C256.307 349.654 255.579 350.1 254.817 350.536C255.32 349.496 255.813 348.509 256.121 347.546C256.448 346.525 256.409 345.7 256.038 345.14C255.515 345.993 255.032 346.779 254.451 347.665M216.565 354.922C215.476 355.794 215.505 357.246 216.404 358.391C216.706 358.78 217.053 359.115 217.288 359.383C218.23 358.621 219.041 357.84 219.954 357.155C221.976 355.626 222.563 353.853 222.269 352.017C222.201 351.567 222.069 351.13 221.947 350.56C220.12 352.161 218.274 353.536 216.565 354.922ZM207.617 355.492C206.645 355.454 205.722 355.406 204.789 355.295C204.78 355.372 205.825 356.359 206.44 356.815C205.996 357.184 205.581 357.519 205.161 357.85C209.615 357.677 212.926 359.7 216.243 361.727C215.818 359.105 212.032 355.573 207.441 354.931C207.495 355.113 207.549 355.286 207.617 355.492M225.395 361.099C224.687 361.9 223.701 362.647 222.86 363.371C224.443 363.639 226.001 363.812 227.559 363.908C227.74 363.826 227.92 363.731 228.086 363.606C228.951 362.997 229.659 362.177 230.377 361.406C230.9 360.836 231.295 360.184 231.798 359.575C232.267 358.995 232.8 358.439 233.317 357.835C230.108 357.926 227.422 358.804 225.395 361.099M242.045 360.984C239.29 361.214 236.257 362.451 233.342 363.999C237.942 363.831 242.338 363.107 246.221 362.101C245.342 361.348 244.233 360.955 242.783 360.955C242.548 360.955 242.299 360.97 242.045 360.984" fill="url(#paint20_linear_1_996)"/>
<path d="M214.914 222.098C214.768 222.117 214.645 222.193 214.636 222.337V222.385C214.684 223.176 214.904 224.091 215.696 225.275C216.57 226.583 217.527 227.556 218.543 228.376C217.844 228.558 217.273 229.555 217.483 230.12C218.26 230.681 219.022 231.045 219.759 231.649C221.307 232.895 222.103 232.229 222.225 231.669C222.26 231.467 222.02 231.103 221.664 230.681C221.991 230.973 222.362 231.17 222.748 231.165C223.427 231.017 223.886 230.71 223.373 229.665C223.1 229.133 222.606 228.524 222.338 227.968C222.055 227.384 221.923 226.842 221.718 226.277C220.99 226.219 220.189 226.962 220.077 227.758C219.461 226.646 218.768 225.515 217.835 224.36C216.926 223.214 216.047 222.419 215.241 222.136C215.183 222.117 215.119 222.102 215.061 222.098H214.914ZM227.945 227.039C228.13 228.323 229.498 230.461 230.865 232.114C230.274 230.748 230.514 229.972 231.051 229.296C231.256 229.047 231.202 228.103 230.455 227.206C230.167 226.857 229.503 226.2 229.068 226.08C228.926 226.037 228.79 226.018 228.677 226.018C228.086 226.018 227.872 226.526 227.945 227.039M237.166 228.246C236.848 228.496 236.282 228.951 235.964 230.672C235.701 230.331 234.963 229.689 234.612 229.387C234.48 229.608 234.299 229.77 234.226 230.029C233.981 230.815 234.113 231.759 234.675 232.785C235.632 234.563 236.682 236.313 237.742 238.052C239.696 241.263 241.571 244.345 240.507 247.163C240.731 247.149 240.805 247.154 240.844 247.149C240.917 247.125 240.956 247.034 241.015 247C242.475 245.999 243.559 244.307 242.494 242.275C241.4 240.175 238.465 237.539 237.444 235.387C236.848 234.156 236.819 233.121 237.234 232.234C237.615 231.438 238.729 231.036 239.96 231.17C240.253 231.208 240.971 231.558 241.298 231.76C242.494 232.555 243.159 233.72 242.924 234.707C242.792 235.277 242.289 235.522 241.601 235.287C241.093 235.114 240.433 234.683 240.135 234.276C239.872 233.921 240.004 233.422 239.964 232.986C239.115 232.905 238.89 233.03 238.866 233.691C238.812 234.798 240.179 236.394 241.591 236.725C242.822 237.055 244.033 236.519 244.316 235.627C244.726 234.367 244.287 233.087 243.164 232.138C242.607 231.688 242.04 231.093 241.855 230.614C241.664 230.13 241.84 229.78 241.991 229.287C242.011 229.243 241.952 229.176 241.908 229.066C240.443 228.462 240.067 229.464 239.256 229.924C238.993 229.488 238.783 229.152 238.572 228.802C238.226 228.199 238.021 227.935 237.762 227.935C237.601 227.935 237.415 228.045 237.166 228.246M225.718 230.053C225.473 230.279 225.317 230.748 225.571 231.199C226.064 232.114 227.066 233.025 228.169 233.547C230.274 234.544 232.184 236.044 233.601 237.961C233.845 238.302 234.079 238.647 234.309 238.997C233.093 237.813 231.676 236.73 230.392 235.627C229.01 234.463 227.676 233.921 226.548 233.974C226.216 233.993 225.981 234.29 225.996 234.616C226.05 235.757 226.836 236.926 228.013 238.325C229.01 239.509 230.006 240.87 231.09 242.155C230.861 241.963 230.621 241.786 230.392 241.594C228.726 240.276 227.281 238.685 226.118 236.849C225.537 235.929 222.978 232.848 221.869 234.391C221.468 234.947 222.084 236.058 223.271 236.955C224.326 237.741 225.405 238.402 226.47 239.159C226.489 240.425 226.983 241.239 228.521 242.337C229.41 242.955 230.299 243.43 231.183 244.033C231.447 244.216 231.828 244.556 231.92 244.8C232.37 246.037 233.2 246.689 234.104 247.082C235.134 247.527 236.062 247.547 236.726 247.527C237.332 247.503 237.957 247.182 238.377 246.626C238.997 245.816 239.378 243.688 238.45 241.997C238.143 241.441 237.566 240.799 237.034 240.358C236.604 239.984 236.345 239.744 236.096 239.222C235.598 238.153 234.963 237.089 234.226 236.063C233.171 234.626 232.248 234.161 231.232 234.271C230.343 233.188 229.537 232.181 228.599 231.256C227.749 230.427 226.748 229.919 226.138 229.919C225.962 229.919 225.815 229.962 225.718 230.053M218.538 239.193C218.543 240.65 220.76 240.856 221.307 240.65C221.981 240.396 222.411 239.888 223.075 239.653C223.53 239.509 224.223 239.682 225.049 239.73C223.603 238.838 221.415 237.784 219.984 237.784C219.124 237.784 218.533 238.162 218.538 239.193M221.708 241.834C221.449 241.891 221.268 242.054 221.039 242.164C221.356 242.533 221.84 243.262 222.255 243.573C221.654 243.703 221.122 243.751 220.648 243.933C220.267 244.067 219.993 244.331 219.705 244.594C219.105 245.155 219.197 245.38 220.179 246.013C220.526 246.233 220.843 246.459 221.283 246.751C219.744 247.825 220.414 249.401 220.462 249.392C220.961 249.262 221.322 249.114 221.815 249.334C222.284 249.555 222.856 250.149 223.28 250.715C224.179 251.884 225.449 252.392 226.758 252.076C227.691 251.855 228.296 250.71 228.042 249.473C227.788 248.079 226.265 246.626 225.141 246.612C224.462 246.598 224.316 246.808 224.34 247.638C224.79 247.714 225.293 247.609 225.639 247.887C226.04 248.208 226.44 248.879 226.582 249.392C226.773 250.087 226.499 250.552 225.908 250.643C224.887 250.81 223.74 250.087 223.017 248.869C222.821 248.529 222.523 247.815 222.504 247.518C222.44 246.3 222.914 245.236 223.754 244.92C224.687 244.57 225.732 244.671 226.944 245.323C229.068 246.478 231.559 249.512 233.63 250.715C235.627 251.884 237.42 250.94 238.529 249.574C238.568 249.521 238.66 249.483 238.69 249.416C238.695 249.382 238.69 249.301 238.724 249.08C235.793 249.948 232.78 247.911 229.635 245.797C227.945 244.647 226.226 243.501 224.487 242.447C223.73 241.992 223.007 241.757 222.348 241.757C222.128 241.757 221.913 241.786 221.708 241.834ZM246.304 243.324C244.736 244.12 244.043 246.277 245.488 249.042C245.845 249.703 246.275 250.403 246.768 251.012C248.683 253.389 250.832 255.315 252.956 257.285C254.245 258.503 255.457 259.821 256.683 261.153C259.838 264.599 259.257 268.687 259.344 268.879C260.751 266.631 261.982 264.316 260.824 260.731C260.087 258.493 258.539 256.969 256.942 255.608C255.73 254.563 254.46 253.676 253.2 252.713C251.486 251.405 250.392 249.492 250.324 247.858C250.26 246.368 251.203 245.802 253.015 246.296C253.249 246.358 253.386 246.391 253.796 246.506C253.132 245.299 251.94 244.479 250.9 243.856C249.781 243.19 248.824 242.927 247.989 242.927C247.359 242.927 246.802 243.08 246.304 243.324M243.701 252.742C245.894 256.231 247.696 259.94 249.444 263.616C250.328 265.438 251.593 267.115 252.751 268.716C253.181 269.301 254.079 269.463 254.758 269.593C255.232 269.684 255.564 269.818 255.867 270.379C259.779 277.415 262.851 284.767 265.313 291.855C265.386 292.095 265.445 292.459 265.352 292.665C264.273 294.788 264.927 296.307 266.05 297.688C266.939 298.79 268.575 301.023 269.215 300.971C269.347 299.643 269.498 298.334 269.474 297.031C269.469 295.857 269.42 294.62 269.074 293.523C268.868 292.856 268.121 292.468 267.618 291.941C267.257 291.567 266.729 291.28 266.563 290.815C263.96 283.889 260.844 276.672 256.912 269.818C256.521 269.109 256.429 268.62 256.673 267.93C257.083 266.727 256.697 265.39 255.974 264.134C254.114 260.947 251.608 258.484 249 256.221C247.432 254.865 245.801 253.638 244.145 252.411C243.94 252.253 243.715 252.147 243.325 251.908C243.515 252.32 243.579 252.55 243.701 252.742M236.614 254.453C235.261 255.435 234.602 256.902 234.768 259.145C234.895 260.707 235.989 262.922 237.044 263.621C237.102 262.898 237.088 262.193 237.195 261.589C237.474 260.286 238.406 259.638 239.676 259.821C240.77 259.993 242.299 261.321 242.812 262.619C243.671 264.719 244.341 266.866 245.044 268.998C245.855 271.462 247.305 272.981 249.376 273.485C251.061 273.897 252.692 273.581 254.338 272.857C253.64 272.44 253.098 272.1 252.531 271.783C250.744 270.762 249.562 268.979 248.653 266.871C247.52 264.244 246.46 261.556 244.932 259.121C243.95 257.52 242.646 255.986 241.254 254.831C240.316 254.06 239.442 253.743 238.641 253.743C237.894 253.743 237.21 254.021 236.614 254.453M222.856 271.337C221.747 271.155 220.619 270.983 219.398 270.791C219.061 272.157 219.686 273.374 220.487 274.419C221.283 275.435 222.323 276.24 223.212 277.146C222.509 277.458 221.786 277.75 221.078 278.047C222.269 280.573 224.223 281.809 227.349 281.455C229.898 281.157 232.384 280.554 234.851 280.008C237.659 279.399 240.37 278.723 243.11 279.849C245.689 280.894 247.242 283.204 248.043 286.099C248.673 288.404 248.326 290.479 247.242 292.77C247.208 292.837 247.73 293.331 247.935 293.456C248.253 292.526 249.23 291.088 249.43 290.125C250.866 282.888 245.918 277.827 239.852 277.415C237.464 277.223 235.041 277.506 232.599 277.568C230.597 277.63 228.604 277.597 226.88 276.379C224.829 274.903 223.652 271.764 225.415 269.267C226.426 267.844 228.321 267.24 229.893 267.968C230.929 268.452 231.876 269.924 231.837 271.112C231.818 271.889 231.593 272.588 230.875 272.857C230.191 273.101 229.625 272.842 229.136 272.243C229.058 272.157 228.951 272.095 228.858 272.018C228.448 273.043 229.254 274.922 230.421 275.287C232.443 275.914 234.48 273.36 234.104 270.853C233.776 268.558 232.687 266.631 230.631 265.73C228.375 264.748 226.46 265.097 224.858 266.746C224.668 266.928 224.492 267.062 224.331 267.197C223.486 266.329 222.753 265.596 221.947 264.81C220.619 267.139 221.454 269.109 222.856 271.337M234.318 275.114C236.619 275.042 239.012 272.148 237.928 269.574C237.146 267.652 234.787 266.07 232.956 264.968C235.793 268.155 236.941 271.615 234.318 275.114ZM263.701 279.126C264.512 280.463 265.049 282.011 265.66 283.468C267.867 282.15 269.43 279.533 268.522 276.701C268.058 275.253 267.257 273.916 266.509 272.598C265.938 271.611 265.22 270.758 264.605 269.804C263.999 268.888 263.472 267.915 262.861 266.933C261.459 271.29 261.425 275.306 263.701 279.126M255.198 284.58C255.916 286.463 257.977 287.125 260.023 286.463C260.707 286.233 261.357 285.931 261.84 285.744C261.21 284.11 260.492 282.662 259.96 281.105C258.773 277.654 256.551 276.02 253.816 275.536C253.147 275.426 252.453 275.387 251.603 275.282C253.005 278.498 254.055 281.618 255.198 284.58M230.905 284.282C231.325 284.522 231.559 284.647 231.872 284.839C230.597 286.161 228.682 286.602 227.637 288.476C228.775 288.495 229.762 288.505 230.773 288.514C230.289 289.679 229.351 292.052 229.43 292.114C235.29 286.573 240.79 286.219 247.051 287.134C246.841 285.442 242.905 282.509 240.487 281.972C239.715 281.8 238.963 281.714 238.226 281.714C235.745 281.714 233.41 282.658 230.905 284.282ZM267.984 286.061C269.552 285.457 271.11 284.896 272.649 284.58C272.546 284.321 272.453 284.057 272.351 283.803C272.087 283.156 271.799 282.48 271.511 281.79C269.977 283.007 268.683 284.565 267.984 286.061ZM268.292 289.871C268.204 289.9 268.141 290.024 267.984 290.254C270.339 290.666 271.213 292.698 271.652 295.052C273.015 294.726 273.63 293.575 274.226 292.535C274.739 292.995 275.218 293.542 275.765 293.935C275.291 292.243 274.759 290.508 274.158 288.735C273.845 288.701 273.528 288.677 273.22 288.677C271.56 288.677 269.923 289.176 268.292 289.871M247.823 297.975C248.106 297.985 248.39 297.99 248.707 297.994C248.189 299.274 247.676 300.506 247.085 301.699C247.178 301.757 249.083 300.822 250.016 300.209C250.324 300.995 250.592 301.704 250.861 302.423C252.741 296.35 257.152 292.881 261.581 289.387C261.254 289.329 260.907 289.305 260.546 289.305C256.57 289.305 250.656 292.612 247.823 297.975M262.216 293.863C260.683 295.157 259.257 296.585 258.485 298.541C257.728 300.419 257.967 301.924 259.193 303.204C260.732 301.828 261.879 300.443 261.43 298.699C262.504 298.641 263.53 298.569 264.829 298.478C263.867 296.403 263.271 294.568 264.585 292.353C264.512 292.296 264.448 292.233 264.37 292.186C263.682 292.756 262.925 293.278 262.216 293.863M271.286 296.537C272.077 297.86 272.639 299.025 273.435 299.988C273.987 300.702 274.895 301.172 276.019 300.702C276.409 300.549 276.937 300.146 277.206 299.748C277.098 299.236 276.981 298.723 276.859 298.196C276.068 298.287 275.457 297.831 274.954 297.472C274.114 296.882 273.215 296.504 271.97 296.504C271.755 296.504 271.525 296.513 271.286 296.537M263.169 302.801C262.851 303.827 262.412 304.671 261.015 304.963C261.572 305.758 262.421 305.907 263.403 305.797C264.326 305.687 264.971 305.044 265.371 304.34C265.982 303.271 266.05 301.987 265.904 300.88C265.826 300.271 265.704 299.552 265.503 299.154C264.233 300.295 263.589 301.517 263.169 302.801M272.79 304.546C273.879 305.155 275.472 304.45 276.346 302.691C274.895 303.084 274.373 302.188 273.63 301.45C272.976 300.808 272.136 300.386 271.296 299.806C270.861 301.594 271.608 303.904 272.79 304.546M266.695 304.258C266.729 305.227 266.744 306.099 265.733 306.995C266.695 307.273 267.535 307.038 268.365 306.391C269.113 305.825 269.337 305.126 269.298 304.335C269.225 302.96 268.199 301.316 266.881 300.707C266.851 302.006 266.641 303.185 266.695 304.258M271.169 308.308C271.296 308.5 271.457 308.605 271.657 308.624H271.804C271.975 308.61 272.175 308.548 272.409 308.433C273.078 308.102 273.303 307.728 273.201 307.22C272.927 305.787 271.857 304.896 270.68 304.038C270.456 305.667 270.392 307.134 271.169 308.308" fill="url(#paint21_linear_1_996)"/>
<path d="M172.531 210.458L174.523 209.341L169.097 200.057L167.104 201.174L169.19 204.754L159.334 210.309L160.574 212.437L170.435 206.877L172.531 210.458ZM181.424 221.131L171.666 222.65L177.888 215.087L175.954 211.795L164.11 218.471L165.346 220.594L174.411 215.49L174.445 215.547L167.295 223.92L168.311 225.655L179.28 223.829L179.315 223.872L170.259 228.981L171.5 231.104L183.349 224.433L181.424 221.131Z" fill="#BCBAB7"/>
<path d="M189.398 495.532C186.683 495.532 185.523 491.981 185.523 482.207C185.523 477.134 188.039 475.867 195.213 475.867C197.098 475.867 198.602 475.881 200.046 475.905C197.757 482.817 194.688 495.532 189.398 495.532ZM174.85 488.868C174.85 491.455 175.102 493.663 175.56 495.532H137.618C132.573 495.532 129.347 494.387 129.347 489.819V477.134H141.298C142.274 474.283 142.916 471.675 143.239 468.893H129.351C129.408 464.979 129.699 461.484 129.99 457.472C125.466 459.057 121.914 460.895 119.001 464.071V468.893H112.859C112.344 472.319 112.344 474.913 112.217 477.134H119.001V490.456C119.001 499.78 124.756 503.777 132.64 503.777H184.224C190.544 503.777 195.398 498.694 200.064 487.19V503.777H210.403V468.893C205.752 468.51 201.483 468.252 196.831 468.252C184.033 468.252 174.85 473.458 174.85 488.868ZM229.152 485V481.577C229.152 477.134 228.826 473.329 228.184 468.893H218.163C218.486 473.329 218.809 477.134 218.809 481.577V503.777H229.152C229.152 491.34 233.222 477.197 244.016 478.722C244.016 476.501 243.693 471.424 243.051 468.252C235.17 468.924 231.31 475.738 229.152 485ZM86.6799 495.532C83.9655 495.532 82.8017 491.981 82.8017 482.207C82.8017 477.134 85.3245 475.867 92.4955 475.867C94.3796 475.867 95.884 475.881 97.3353 475.905C95.0395 482.817 91.9774 495.532 86.6799 495.532ZM72.1392 488.868C72.1392 499.401 76.0139 504.411 81.1872 504.411C87.5244 504.411 92.5842 498.906 97.3495 487.173V503.777H107.693V468.893C103.037 468.51 98.7723 468.252 94.1135 468.252C81.315 468.252 72.1392 473.458 72.1392 488.868M409.176 472.695C409.176 464.008 403.034 458.74 392.045 458.74C385.97 458.74 381.514 460.007 378.796 461.282C377.245 463.433 376.535 465.912 375.563 469.836C379.7 468.252 383.706 466.988 389.785 466.988C394.631 466.988 398.513 469.018 398.513 474.6C398.513 480.62 394.699 485 373.945 496.796C373.945 498.067 374.013 500.602 374.595 503.777H408.849C409.825 500.922 410.467 498.388 410.79 495.532H381.634C396.2 490.644 409.176 485.54 409.176 472.695M47.7806 494.035L47.2483 493.753C41.046 490.522 32.7041 485.578 32.7041 476.567C32.7041 468.315 38.14 464.447 44.6652 464.447C51.9072 464.447 56.2999 469.457 56.2999 478.217C56.2999 484.248 52.9149 489.568 47.7806 494.035M67.6117 504.411L50.5837 495.501C60.2207 492.065 67.2888 485.285 67.2888 475.676C67.2888 462.734 57.3963 456.205 44.6652 456.205C32.9667 456.205 21.7188 463.562 21.7188 477.772C21.7188 489.76 31.0258 496.925 41.2376 502.19L74.073 519C74.073 511.58 73.1718 507.325 67.6117 504.411M309.626 500.602C306.724 500.602 297.669 494.829 297.669 479.359C297.669 471.741 302.196 466.988 309.626 466.988C317.06 466.988 321.591 471.741 321.591 479.359C321.591 494.829 312.539 500.602 309.626 500.602M309.626 458.74C296.704 458.74 287.003 466.351 287.003 478.722C287.003 494.895 302.842 504.411 309.626 504.411C316.418 504.411 332.25 494.895 332.25 478.722C332.25 466.351 322.56 458.74 309.626 458.74ZM309.772 476.034C307.512 477.615 305.571 479.464 303.86 481.577C305.571 483.691 307.512 485.533 309.772 487.12C312.032 485.533 313.966 483.691 315.69 481.577C313.966 479.464 312.032 477.615 309.772 476.034ZM369.102 472.695C369.102 464.008 362.956 458.74 351.964 458.74C345.893 458.74 341.433 460.007 338.715 461.282C337.168 463.433 336.455 465.912 335.482 469.836C339.623 468.252 343.633 466.988 349.707 466.988C354.554 466.988 358.436 469.018 358.436 474.6C358.436 480.62 354.622 485 333.871 496.796C333.871 498.067 333.935 500.602 334.517 503.777H368.779C369.744 500.922 370.393 498.388 370.716 495.532H341.557C356.126 490.644 369.102 485.54 369.102 472.695M281.829 472.695C281.829 464.008 275.695 458.74 264.706 458.74C258.628 458.74 254.167 460.007 251.457 461.282C249.902 463.433 249.189 465.912 248.224 469.836C252.358 468.252 256.367 466.988 262.445 466.988C267.289 466.988 271.167 469.018 271.167 474.6C271.167 480.62 267.353 485 246.606 496.796C246.606 498.067 246.67 500.602 247.255 503.777H281.514C282.486 500.922 283.128 498.388 283.447 495.532H254.292C268.854 490.644 281.829 485.54 281.829 472.695Z" fill="#E4DBDE"/>
<path d="M370.051 443.797C368.586 444.159 366.975 444.5 365.226 444.824C363.462 445.148 361.287 445.305 358.686 445.305C356.125 445.305 353.531 444.967 350.912 444.285C348.294 443.606 345.934 442.509 343.833 440.998C341.729 439.49 340.005 437.502 338.671 435.044C337.326 432.586 336.662 429.57 336.662 426.015C336.662 422.749 337.216 419.88 338.312 417.422C339.409 414.96 340.942 412.917 342.897 411.273C344.855 409.64 347.183 408.422 349.873 407.614C352.562 406.803 355.482 406.402 358.63 406.402C360.61 406.402 362.529 406.587 364.395 406.966C366.265 407.339 368.132 407.798 369.995 408.338L369.179 416.479C367.529 415.577 365.889 414.912 364.264 414.483C362.628 414.052 360.936 413.836 359.183 413.836C357.349 413.836 355.706 414.139 354.24 414.755C352.775 415.361 351.522 416.207 350.476 417.283C349.429 418.366 348.624 419.65 348.056 421.141C347.488 422.627 347.211 424.253 347.211 426.015C347.211 427.847 347.527 429.501 348.173 430.977C348.808 432.446 349.688 433.693 350.806 434.72C351.923 435.74 353.268 436.523 354.84 437.063C356.416 437.599 358.133 437.871 360.006 437.871C361.688 437.871 363.356 437.683 365.002 437.303C366.652 436.931 368.167 436.471 369.558 435.932L370.051 443.797Z" fill="#E4DBDE"/>
<path d="M406.848 430.379C406.848 432.969 406.443 435.191 405.638 437.064C404.832 438.93 403.693 440.476 402.21 441.695C400.723 442.92 398.949 443.826 396.881 444.417C394.812 445.016 392.531 445.305 390.04 445.305C387.552 445.305 385.274 445.016 383.202 444.417C381.137 443.826 379.363 442.92 377.876 441.695C376.393 440.476 375.254 438.93 374.449 437.064C373.643 435.191 373.239 432.969 373.239 430.379V407.043H383.454V428.711C383.454 429.968 383.554 431.141 383.756 432.238C383.954 433.338 384.309 434.303 384.799 435.149C385.292 435.991 385.963 436.656 386.804 437.14C387.641 437.628 388.727 437.872 390.04 437.872C391.36 437.872 392.442 437.628 393.286 437.14C394.131 436.656 394.794 435.991 395.291 435.149C395.781 434.303 396.132 433.338 396.334 432.238C396.529 431.141 396.636 429.968 396.636 428.711V407.043H406.848V430.379Z" fill="#E4DBDE"/>
<path d="M422.174 424.398H424.806C425.686 424.398 426.509 424.314 427.279 424.158C428.046 423.99 428.716 423.705 429.281 423.294C429.848 422.883 430.299 422.34 430.629 421.675C430.955 421.013 431.122 420.195 431.122 419.227C431.122 418.252 430.955 417.445 430.629 416.804C430.299 416.156 429.848 415.634 429.281 415.237C428.716 414.844 428.046 414.562 427.279 414.405C426.509 414.238 425.686 414.158 424.806 414.158H422.174V424.398ZM411.955 407.044H424.146C430.044 407.044 434.383 408.044 437.168 410.035C439.947 412.034 441.341 415.147 441.341 419.387C441.341 423.197 440.003 426.17 437.332 428.304C434.653 430.446 430.92 431.511 426.123 431.511H422.174V444.659H411.955V407.044Z" fill="#E4DBDE"/>
<path d="M123.641 407.044H134.076L139.022 435.933H139.132L144.288 407.044H157.25L162.632 435.933H162.746L167.742 407.044H177.684L169.111 444.662H155.99L150.554 415.776H150.441L145.391 444.662H132.153L123.641 407.044Z" fill="#E4DBDE"/>
<path d="M188.611 425.853C188.611 427.402 188.774 428.899 189.108 430.355C189.434 431.807 189.942 433.092 190.641 434.206C191.336 435.32 192.234 436.208 193.337 436.873C194.434 437.538 195.747 437.872 197.29 437.872C198.823 437.872 200.15 437.538 201.246 436.873C202.343 436.208 203.237 435.32 203.929 434.206C204.628 433.092 205.142 431.807 205.472 430.355C205.799 428.899 205.966 427.402 205.966 425.853C205.966 424.241 205.799 422.702 205.472 421.25C205.142 419.794 204.628 418.517 203.929 417.416C203.237 416.327 202.343 415.453 201.246 414.805C200.15 414.157 198.823 413.841 197.29 413.841C195.747 413.841 194.434 414.157 193.337 414.805C192.234 415.453 191.336 416.327 190.641 417.416C189.942 418.517 189.434 419.794 189.108 421.25C188.774 422.702 188.611 424.241 188.611 425.853ZM178.062 425.853C178.062 422.834 178.477 420.122 179.301 417.716C180.12 415.31 181.341 413.269 182.952 411.602C184.563 409.93 186.571 408.642 188.962 407.747C191.361 406.849 194.136 406.396 197.29 406.396C200.434 406.396 203.209 406.849 205.607 407.747C208.006 408.642 210.011 409.93 211.621 411.602C213.232 413.269 214.449 415.31 215.276 417.716C216.099 420.122 216.507 422.834 216.507 425.853C216.507 428.833 216.099 431.528 215.276 433.938C214.449 436.347 213.218 438.394 211.593 440.08C209.964 441.768 207.953 443.064 205.55 443.958C203.159 444.86 200.395 445.309 197.29 445.309C194.136 445.309 191.375 444.86 188.991 443.958C186.621 443.064 184.612 441.768 182.98 440.08C181.351 438.394 180.12 436.347 179.301 433.938C178.477 431.528 178.062 428.833 178.062 425.853Z" fill="#E4DBDE"/>
<path d="M230.569 422.675H233.255C234.064 422.675 234.916 422.647 235.81 422.591C236.711 422.539 237.516 422.368 238.23 422.083C238.943 421.79 239.539 421.362 240.011 420.787C240.49 420.21 240.724 419.388 240.724 418.305C240.724 417.445 240.518 416.738 240.093 416.181C239.674 415.624 239.127 415.199 238.45 414.914C237.772 414.628 236.984 414.433 236.083 414.322C235.189 414.21 234.249 414.158 233.255 414.158H230.569V422.675ZM220.357 407.045H238.588C240.266 407.045 241.867 407.236 243.364 407.609C244.865 407.988 246.185 408.577 247.32 409.367C248.449 410.157 249.339 411.139 249.981 412.323C250.624 413.514 250.943 414.914 250.943 416.529C250.943 419.043 250.34 421.111 249.126 422.73C247.923 424.342 246.071 425.439 243.584 426.017V426.122C244.389 426.334 245.039 426.675 245.536 427.149C246.029 427.615 246.458 428.197 246.824 428.897C247.193 429.6 247.526 430.408 247.838 431.324C248.154 432.239 248.544 433.273 249.027 434.426L252.756 444.659H242.108L239.904 437.873C239.39 436.254 238.904 434.924 238.45 433.883C237.992 432.845 237.492 432.016 236.967 431.407C236.434 430.791 235.831 430.373 235.15 430.14C234.472 429.903 233.663 429.788 232.712 429.788H230.569V444.659H220.357V407.045Z" fill="#E4DBDE"/>
<path d="M257.151 407.044H267.363V437.224H283.181V444.662H257.151V407.044Z" fill="#E4DBDE"/>
<path d="M296.967 437.223H300.92C304.763 437.223 307.711 436.272 309.759 434.364C311.809 432.463 312.838 429.629 312.838 425.851C312.838 422.081 311.788 419.243 309.702 417.338C307.615 415.434 304.692 414.48 300.92 414.48H296.967V437.223ZM286.748 407.042H300.696C304.032 407.042 307.09 407.335 309.869 407.906C312.654 408.48 315.038 409.48 317.04 410.9C319.03 412.317 320.591 414.232 321.706 416.638C322.823 419.041 323.384 422.063 323.384 425.691C323.384 429.215 322.813 432.178 321.677 434.584C320.542 436.993 318.97 438.94 316.954 440.43C314.943 441.92 312.544 442.996 309.759 443.661C306.977 444.326 303.957 444.66 300.696 444.66H286.748V407.042Z" fill="#E4DBDE"/>
<path fill-rule="evenodd" clip-rule="evenodd" d="M0 407.044V444.662H11.9292V431.075H20.5195L23.5745 422.855H11.9292V415.237H26.3918L29.4362 407.044H0Z" fill="#E4DBDE"/>
<path fill-rule="evenodd" clip-rule="evenodd" d="M33.0887 444.658H45.0179V407.041H33.0887V444.658Z" fill="#E4DBDE"/>
<path fill-rule="evenodd" clip-rule="evenodd" d="M53.2278 407.044V444.662H65.1641V431.075H73.7473L76.8023 422.855H65.1641V415.237H79.6196L82.6675 407.044H53.2278Z" fill="#E4DBDE"/>
<path fill-rule="evenodd" clip-rule="evenodd" d="M101.248 432.378L96.4755 416.71L91.8699 432.378H101.248ZM116.828 444.662H104.778L103.221 439.607H89.7374L88.2436 444.662H76.4989L90.4648 407.044H102.869L116.828 444.662Z" fill="#E4DBDE"/>
<defs>
<linearGradient id="paint0_linear_1_996" x1="187.774" y1="202.26" x2="222.624" y2="115.852" gradientUnits="userSpaceOnUse">
<stop stop-color="#858380"/>
<stop offset="1" stop-color="#A19F9C"/>
</linearGradient>
<linearGradient id="paint1_linear_1_996" x1="206.969" y1="-2.45742" x2="254.136" y2="124.532" gradientUnits="userSpaceOnUse">
<stop stop-color="#9D9B98"/>
<stop offset="1" stop-color="#797775"/>
</linearGradient>
<linearGradient id="paint2_linear_1_996" x1="256.777" y1="96.6741" x2="118.383" y2="340.086" gradientUnits="userSpaceOnUse">
<stop stop-color="#797775"/>
<stop offset="0.842522" stop-color="#F2EFEA"/>
<stop offset="1" stop-color="#F2EFEA"/>
</linearGradient>
<linearGradient id="paint3_linear_1_996" x1="191.847" y1="328.236" x2="191.847" y2="49.2336" gradientUnits="userSpaceOnUse">
<stop stop-color="#9D9B98"/>
<stop offset="1" stop-color="#F2EFEA"/>
</linearGradient>
<linearGradient id="paint4_linear_1_996" x1="289.241" y1="217.929" x2="217.533" y2="14.7522" gradientUnits="userSpaceOnUse">
<stop stop-color="#9D9B98"/>
<stop offset="1" stop-color="#F2EFEA"/>
</linearGradient>
<linearGradient id="paint5_linear_1_996" x1="284.511" y1="338.308" x2="175.54" y2="29.5524" gradientUnits="userSpaceOnUse">
<stop stop-color="#44433E"/>
<stop offset="1" stop-color="#F2EFEA"/>
</linearGradient>
<linearGradient id="paint6_linear_1_996" x1="215.303" y1="42.7229" x2="215.303" y2="179.966" gradientUnits="userSpaceOnUse">
<stop stop-color="#F2EFEA"/>
<stop offset="1" stop-color="#F2EFEA"/>
</linearGradient>
<linearGradient id="paint7_linear_1_996" x1="171.526" y1="36.3255" x2="216.755" y2="6.46781" gradientUnits="userSpaceOnUse">
<stop stop-color="#FAF6F2"/>
<stop offset="1" stop-color="#FFFBF7"/>
</linearGradient>
<linearGradient id="paint8_linear_1_996" x1="162.619" y1="12.4152" x2="214.662" y2="12.4152" gradientUnits="userSpaceOnUse">
<stop stop-color="#B0AEAB"/>
<stop offset="1" stop-color="#FAF6F2"/>
</linearGradient>
<linearGradient id="paint9_linear_1_996" x1="296.216" y1="41.7704" x2="225.606" y2="2.73041" gradientUnits="userSpaceOnUse">
<stop stop-color="#FFFBF7"/>
<stop offset="0.527027" stop-color="#FFFBF7"/>
<stop offset="1" stop-color="#B4B2AF"/>
</linearGradient>
<linearGradient id="paint10_linear_1_996" x1="177.496" y1="5.97719" x2="264.334" y2="5.97719" gradientUnits="userSpaceOnUse">
<stop stop-color="#CCC9C6"/>
<stop offset="1" stop-color="#FAF6F2"/>
</linearGradient>
<linearGradient id="paint11_linear_1_996" x1="158.983" y1="18.7533" x2="150.03" y2="176.897" gradientUnits="userSpaceOnUse">
<stop stop-color="#FFFBF7"/>
<stop offset="1" stop-color="#FFFBF7"/>
</linearGradient>
<linearGradient id="paint12_linear_1_996" x1="183.402" y1="249.973" x2="278.477" y2="249.973" gradientUnits="userSpaceOnUse">
<stop stop-color="#DAD7D3"/>
<stop offset="1" stop-color="#FAF6F2"/>
</linearGradient>
<linearGradient id="paint13_linear_1_996" x1="181.072" y1="116.515" x2="178.005" y2="57.4336" gradientUnits="userSpaceOnUse">
<stop stop-color="#BBB8B5"/>
<stop offset="1" stop-color="#FAF6F2"/>
</linearGradient>
<linearGradient id="paint14_linear_1_996" x1="216.848" y1="30.8637" x2="216.848" y2="348.47" gradientUnits="userSpaceOnUse">
<stop stop-color="#DAD7D3"/>
<stop offset="0.512418" stop-color="#FFFBF7"/>
<stop offset="1" stop-color="#EEEBE7"/>
</linearGradient>
<linearGradient id="paint15_linear_1_996" x1="216.848" y1="12.2307" x2="216.848" y2="329.836" gradientUnits="userSpaceOnUse">
<stop stop-color="#DAD7D3"/>
<stop offset="0.512418" stop-color="#FFFBF7"/>
<stop offset="1" stop-color="#EEEBE7"/>
</linearGradient>
<linearGradient id="paint16_linear_1_996" x1="233.079" y1="332.569" x2="189.299" y2="149.09" gradientUnits="userSpaceOnUse">
<stop stop-color="#FAF6F2"/>
<stop offset="0.512418" stop-color="#FFFBF7"/>
<stop offset="0.677314" stop-color="#FFFBF7"/>
<stop offset="0.90099" stop-color="#EBE7E3"/>
<stop offset="1" stop-color="#CCC9C6"/>
</linearGradient>
<linearGradient id="paint17_linear_1_996" x1="171.589" y1="43.4647" x2="141.834" y2="95.799" gradientUnits="userSpaceOnUse">
<stop stop-color="#791426"/>
<stop offset="0.534653" stop-color="#AF1C3B"/>
<stop offset="1" stop-color="#791426"/>
</linearGradient>
<linearGradient id="paint18_linear_1_996" x1="165.783" y1="40.1627" x2="136.024" y2="92.5011" gradientUnits="userSpaceOnUse">
<stop stop-color="#791426"/>
<stop offset="0.534653" stop-color="#AF1C3B"/>
<stop offset="1" stop-color="#791426"/>
</linearGradient>
<linearGradient id="paint19_linear_1_996" x1="180.825" y1="48.7164" x2="151.07" y2="101.049" gradientUnits="userSpaceOnUse">
<stop stop-color="#791426"/>
<stop offset="0.534653" stop-color="#AF1C3B"/>
<stop offset="1" stop-color="#791426"/>
</linearGradient>
<linearGradient id="paint20_linear_1_996" x1="181.581" y1="462.982" x2="293.436" y2="192.262" gradientUnits="userSpaceOnUse">
<stop stop-color="#791426"/>
<stop offset="0.534653" stop-color="#AF1C3B"/>
<stop offset="1" stop-color="#791426"/>
</linearGradient>
<linearGradient id="paint21_linear_1_996" x1="179.959" y1="134.237" x2="310.43" y2="431.811" gradientUnits="userSpaceOnUse">
<stop stop-color="#791426"/>
<stop offset="0.534653" stop-color="#AF1C3B"/>
<stop offset="1" stop-color="#791426"/>
</linearGradient>
</defs>
</svg>
