<svg width="828" height="656" viewBox="0 0 828 656" fill="none" xmlns="http://www.w3.org/2000/svg">
<path d="M506.809 99.4933C476.418 106.236 450.942 119.538 429.104 140.129C407.267 160.72 393.982 180.947 384.702 208.28C375.785 234.338 374.511 269.871 381.608 291.556L384.884 301.578L385.429 293.196L385.975 284.996L393.982 288.64C400.534 291.738 401.989 293.378 402.899 298.844C404.173 306.68 415.274 330.369 421.825 338.933C425.101 343.124 426.92 348.409 427.83 355.333C428.376 360.982 429.65 367.542 430.378 369.911L431.652 374.467L426.738 369.911C414 358.249 401.262 338.022 387.795 307.956C383.61 298.662 387.795 315.609 393.073 329.276C406.539 364.444 438.385 397.609 474.235 413.827C498.074 424.76 511.358 427.311 542.295 427.129C567.589 426.947 572.139 426.582 586.879 422.027C633.102 407.996 667.859 378.658 688.605 336.2C703.345 305.951 705.165 297.933 704.983 262.4C704.983 235.067 704.437 230.876 699.888 215.933C682.964 160.72 641.473 119.173 586.515 102.773C565.952 96.5778 527.008 94.9378 506.809 99.4933ZM574.869 117.898C587.425 120.813 619.089 134.844 621.273 138.124C622.547 140.493 620.909 156.893 618.907 159.991C618.179 161.267 604.895 163.089 587.789 164.547L557.763 166.916L552.303 162.907C542.295 155.436 516.09 143.956 506.263 142.68C500.986 142.133 496.8 141.04 496.8 140.493C496.8 139.764 498.438 134.116 500.622 128.102L504.261 116.804L514.634 115.711C520.275 114.982 525.917 114.253 526.826 113.707C530.466 112.249 563.222 114.982 574.869 117.898ZM497.71 143.956C499.712 147.053 514.998 153.978 536.471 161.449L557.035 168.556L555.943 180.4C554.487 195.16 549.756 229.418 548.482 233.427C547.936 235.249 541.931 238.529 533.56 241.444C517.182 247.276 506.263 252.56 491.887 261.853L481.514 268.413L461.314 258.209C450.396 252.56 439.477 246.364 437.293 244.724C433.472 241.627 433.472 241.08 435.837 232.151C437.111 227.049 439.295 211.924 440.569 198.804L442.935 174.751L451.124 167.827C462.224 158.533 479.148 147.964 487.337 144.867C495.708 141.769 496.254 141.769 497.71 143.956ZM647.66 159.991C668.041 180.947 682.6 209.009 687.513 236.342L689.151 245.818L681.69 239.44C677.504 235.796 668.769 230.329 662.036 227.231C651.845 222.311 649.844 220.489 648.934 215.933C647.296 207.551 637.651 188.418 628.734 175.48L620.727 164L625.095 157.44C627.642 153.796 629.644 149.604 629.644 148.329C629.644 143.227 634.193 146.142 647.66 159.991ZM434.564 168.191L440.569 174.387L435.655 188.782C431.834 200.444 430.742 207.187 430.378 223.587L429.832 243.813L422.371 253.836C418.367 259.302 411.816 268.778 407.995 274.791L400.898 285.907L393.436 280.44C389.251 277.524 385.429 273.516 384.884 271.511C383.246 266.409 387.249 238.711 391.435 224.68C393.618 217.756 398.168 206.458 401.626 199.351C407.995 186.413 424.919 162.178 427.466 162.178C428.194 162.178 431.47 164.911 434.564 168.191ZM682.418 248.916L689.697 253.836V268.596C689.515 297.204 679.87 328 665.858 343.307C661.126 348.409 653.665 355.333 649.116 358.431L640.927 364.444L629.28 356.062C609.08 341.12 607.989 339.844 609.99 331.098C611.446 324.72 610.9 290.462 609.08 269.507C608.717 265.862 612.356 261.671 628.734 246.729L648.752 228.507L661.854 236.342C669.133 240.533 678.232 246.182 682.418 248.916ZM577.962 253.653L604.349 266.956L603.439 303.4L602.529 339.844L595.614 346.769C588.517 353.876 560.128 369 550.302 371.004C544.114 372.28 527.554 364.809 498.256 347.498L482.242 338.204V312.511C482.242 277.342 482.97 274.427 491.159 270.964C494.798 269.324 508.811 262.036 522.277 254.382C535.743 246.911 547.936 240.716 549.028 240.716C550.302 240.533 563.222 246.547 577.962 253.653ZM486.427 349.867C496.618 357.52 521.549 369.911 534.469 373.738C541.385 375.742 542.295 376.653 543.204 382.484C543.75 386.129 545.752 394.693 547.572 401.8C549.574 408.724 550.666 414.92 550.12 415.467C549.574 416.013 541.385 416.196 531.74 416.013C509.357 415.649 490.067 410.729 468.411 399.978C453.853 392.871 450.942 390.684 445.846 382.667C440.205 373.738 430.196 348.409 431.834 346.951C432.562 346.222 456.583 343.853 472.779 342.76C475.145 342.76 481.15 345.676 486.427 349.867ZM648.206 370.276C644.93 373.738 644.202 373.92 644.202 371.369C644.202 369.729 645.658 367.542 647.296 366.449C652.209 363.716 652.573 365.902 648.206 370.276Z" fill="#EAEAEA" fill-opacity="0.1"/>
<path d="M419.095 123.729C336.113 166.733 267.508 233.609 211.095 326.907C182.342 374.284 152.862 440.431 135.938 495.644C125.019 531.178 123.745 539.742 133.39 512.956C163.598 429.316 205.453 350.778 255.679 283.356C302.629 220.124 362.682 163.089 420.369 126.827C445.118 111.338 445.118 111.338 444.026 111.338C443.48 111.338 432.38 116.804 419.095 123.729Z" fill="#EAEAEA" fill-opacity="0.1"/>
<path d="M367.96 208.098C363.046 219.942 358.133 235.431 353.583 252.924C352.491 257.48 349.216 261.124 340.481 267.32L328.834 275.702L330.108 261.489C330.836 253.653 331.746 244.724 332.292 241.627C333.748 231.787 325.923 254.564 323.193 268.596C320.645 280.987 319.917 281.898 309.909 290.644C277.334 318.524 243.669 354.604 218.01 388.862C208.911 401.071 200.722 411.64 199.812 412.733C198.174 414.373 198.902 406.538 201.45 396.333C201.996 393.418 201.814 393.236 200.358 395.422C199.266 396.88 197.082 404.351 195.444 411.822C193.443 420.933 189.803 429.316 184.89 437.333L177.429 449.178L176.337 442.8C175.427 437.333 175.245 437.88 174.517 447.356C172.697 470.862 187.619 493.093 207.637 496.738C213.096 497.649 212.732 497.284 204.179 492.911C193.079 487.08 184.89 477.969 181.068 466.671C177.065 455.009 177.611 452.458 185.436 442.618L192.533 433.507L194.716 443.529C195.808 449.178 198.538 457.013 200.904 461.387L204.907 469.222L201.268 472.502L197.446 475.782L201.632 473.778C205.271 471.956 206.727 472.502 212.186 477.24C215.644 480.338 221.103 484.164 224.197 485.804C230.202 488.902 240.211 492.182 240.211 491.089C240.211 490.724 235.844 487.991 230.748 485.076C219.465 478.698 211.458 470.862 214.006 468.493C218.556 464.302 287.343 437.698 339.025 420.022C366.686 410.547 369.779 409.818 372.691 412.369C378.696 417.653 395.438 424.942 407.267 427.311C414 428.769 419.641 429.498 420.005 429.133C420.733 428.404 408.359 422.756 405.993 422.756C405.447 422.756 399.26 419.111 392.163 414.738C377.968 405.627 377.968 405.991 396.53 400.889C403.445 399.067 404.537 399.249 411.816 404.169C428.376 415.649 448.94 423.849 466.774 426.218C472.233 426.947 476.782 427.311 476.782 426.947C476.782 426.764 471.505 424.031 464.954 421.116C433.472 406.72 402.899 380.48 387.249 354.24C363.592 314.698 357.769 261.671 371.053 209.373C372.873 201.902 374.329 195.707 373.965 195.342C373.783 195.16 371.053 200.809 367.96 208.098ZM351.764 298.116L352.673 318.342L343.393 325.084L333.93 331.644L331.746 320.164C330.472 313.969 329.562 305.04 329.38 300.484C329.38 292.284 329.744 291.92 339.935 284.631C345.576 280.622 350.49 277.524 350.49 277.524C350.672 277.707 351.218 287 351.764 298.116ZM319.371 311.053C319.917 315.973 321.009 324.356 321.919 329.822C323.375 338.933 323.193 340.027 319.553 342.578C310.818 348.773 271.329 381.391 261.138 390.867L250.22 401.071L261.138 393.964C280.064 381.573 315.55 359.707 321.555 356.609L327.378 353.511L333.02 365.173C336.113 371.733 341.755 381.027 345.758 386.129C353.037 395.422 354.675 399.067 351.036 399.067C347.396 399.067 294.258 421.116 270.237 432.596C256.953 438.973 238.209 448.813 228.746 454.462C219.102 460.111 210.913 464.667 210.367 464.667C208.001 464.667 201.996 449.542 199.994 438.609L197.81 426.764L205.453 416.924C220.557 398.156 256.407 357.884 271.511 343.307C289.345 325.631 315.186 302.671 317.006 302.489C317.734 302.489 318.644 306.316 319.371 311.053ZM364.866 348.956C368.324 356.427 375.239 367.724 380.152 374.102L389.069 385.764L377.422 389.409L365.776 393.236L359.589 385.947C353.401 378.84 341.937 358.431 339.571 350.596C338.479 347.133 339.935 345.676 347.942 340.938C353.219 337.84 357.769 335.289 357.951 335.289C358.133 335.289 361.226 341.484 364.866 348.956Z" fill="#EAEAEA" fill-opacity="0.1"/>
<path d="M477.692 441.16C383.61 450.089 277.88 481.067 191.259 524.8C167.602 536.827 134.3 555.596 136.666 555.778C137.393 555.778 145.946 551.951 155.773 547.396C198.538 527.533 273.877 499.836 325.741 484.711C394.346 464.849 470.595 449.542 531.376 443.347C545.024 442.071 545.024 442.071 536.835 440.796C526.098 438.973 498.256 439.156 477.692 441.16Z" fill="#EAEAEA" fill-opacity="0.1"/>
</svg>
